<svg id="Layer_1" enable-background="new 0 0 512 512" height="512" viewBox="0 0 512 512" width="512" xmlns="http://www.w3.org/2000/svg"><g><g><path clip-rule="evenodd" d="m256 459.991 110.527 52.009h44.532c7.067 0 9.023-1.577 8.614-8.761l-3.446-67.486c-3.125-51.571-75.135-69.004-114.06-78.962-3.329-.847-5.315-2.365-5.315-6.045v-23.741c-22.602-10.425-61.293-10.805-81.705 0v23.741c0 3.679-1.986 5.198-5.344 6.045-38.896 9.958-110.936 27.392-114.031 78.962l-3.446 67.486c-.409 6.979 1.343 8.761 8.614 8.761h44.532z" fill="#ffdfcf" fill-rule="evenodd"/></g><g><path clip-rule="evenodd" d="m296.853 327.005c12.79-8.585 25.113-20.033 34.253-32.064-2.628-.993 12.06-21.405 13.783-27.625 16.411-59.485 22.543-42.781-3.358-79.984-42.342-93.505-130.822-84.452-171.061-.029-40.385 42.285-6.629 92.892 10.396 107.639 9.169 12.031 21.492 23.478 34.282 32.064 14.279 9.578 29.143 15.652 40.853 15.01 11.709.641 26.573-5.433 40.852-15.011z" fill="#ffeee6" fill-rule="evenodd"/></g><g><path clip-rule="evenodd" d="m333.738 91.254c-.175 35.284-25.085 60.132-57.175 54.177h-.031c-38.724-7.51-81.158 6.449-106.057 41.867l-.062-.876c-1.144-19.913-5.697-37.694-20.532-51.334.175-.752.361-1.504.567-2.256 1.793-7.005 4.234-13.835 7.314-20.377.886-1.895 1.834-3.781 2.823-5.625 21.325-39.837 66.179-68.28 124.322-66.91 9.756.237 18.224 2.895 25.291 7.273 14.979 9.282 23.416 26.31 23.54 44.061z" fill="#fe93d3" fill-rule="evenodd"/></g><g><path clip-rule="evenodd" d="m157.767 112.457c20.003-42.752 66.287-73.969 127.142-72.538 9.753.234 18.222 2.891 25.288 7.271-5.489-74.874-167.79-62.141-152.43 65.267z" fill="#fe93d3" fill-rule="evenodd"/></g><g><path clip-rule="evenodd" d="m364.045 133.395c-.029-1.256 1.84-1.519 2.745-2.19-5.636-15.477-16.499-29.319-33.056-39.948-16.236 19.069-41.028 44.095-57.176 54.17 25.172 4.906 48.766 18.865 64.973 41.905.234-4.323 23.361-23.888 22.514-53.937z" fill="#fe4eb7" fill-rule="evenodd"/></g><g><path clip-rule="evenodd" d="m326.288 267.316 29.26-38.664c-9.023-.555-15.915-8.41-15.389-17.434l1.372-23.887c-12.936-18.397-30.603-31.013-50.022-37.846 9.928 20.208 15.681 44.358 15.681 70.289 0 55.572-26.427 102.908-63.425 120.867 4.322 1.08 8.439 1.577 12.235 1.372 11.71.642 26.573-5.432 40.853-15.01 12.79-8.585 25.113-20.033 34.253-32.064-2.628-.993-5.081-2.716-6.95-5.081-5.431-6.831-3.124-15.563 2.132-22.542z" fill="#ffdfcf" fill-rule="evenodd"/></g><g><path clip-rule="evenodd" d="m170.47 187.302c24.909-35.422 67.338-49.381 106.059-41.876h.029c32.092 5.957 57.001-18.894 57.176-54.17-.088-13.462-4.964-26.515-13.841-36.065.73 3.563 1.139 7.271 1.168 10.98-.175 35.247-25.113 60.127-57.205 54.17h-.029c-35.772-6.95-74.726 4.439-100.102 34.196 4.234 9.666 6.015 20.412 6.687 31.889z" fill="#fe72c5" fill-rule="evenodd"/></g><g><path clip-rule="evenodd" d="m285.435 375.042c38.896 9.958 108.103 22.164 111.198 73.735v63.223h14.425c7.271 0 9.023-1.781 8.614-8.761l-3.446-67.486c-3.125-51.571-75.135-69.004-114.06-78.962-3.329-.847-5.315-2.365-5.315-6.045v-23.741c-14.279 9.578-29.143 15.652-40.853 15.01-3.796.204-7.914-.292-12.235-1.372-9.023-2.278-18.952-7.155-28.617-13.637v19.127c15.915 13.871 44.123 16.09 59.133 11.097 7.271-2.395 5.811-.934 5.811 9.52v2.249c.001 3.649 2.016 5.196 5.345 6.043z" fill="#ffcebf" fill-rule="evenodd"/></g><g><path clip-rule="evenodd" d="m157.037 87.373c-.555 7.797-.35 16.178.73 25.085 20.003-42.752 66.287-73.969 127.142-72.538 9.753.234 18.222 2.891 25.288 7.271-.613-8.352-3.183-15.594-7.213-21.726-6.045-2.891-12.878-4.585-20.412-4.76-56.678-1.461-101.356 26.34-125.535 66.668z" fill="#fe72c5" fill-rule="evenodd"/></g><g><path d="m286.319 101.009c-1.113 4.121-5.347 6.562-9.467 5.439-36.767-9.941-88.111-1.978-114.453 17.74-1.329.999-3.554 1.998-11.95 8.643 1.793-7.005 4.234-13.835 7.314-20.377.886-1.895 1.834-3.781 2.823-5.625 31.307-18.852 82.033-25.641 120.294-15.298 4.12 1.123 6.562 5.358 5.439 9.478z" fill="#fe4eb7"/></g><g><path clip-rule="evenodd" d="m256 512h110.527v-52.33c0-3.125-2.541-5.665-5.665-5.665h-209.753c-3.095 0-5.636 2.541-5.636 5.665v52.33z" fill="#fe93d3" fill-rule="evenodd"/></g><g><path clip-rule="evenodd" d="m394.619 246.874c23.478-18.923 19.01-40.27 20.879-63.193.905-21.376 5.256-28.414 13.082-54.725l37.195-125.101c.572-1.923-.869-3.855-2.875-3.855h-47.47c-1.328 0-2.498.873-2.876 2.146l-32.477 109.319-1.548 4.263c-3.358 9.315-7.154 11.944-11.739 15.477-.905.672-1.81 1.372-2.745 2.19-16.382 13.813-21.259 32.268-22.456 53.031l-.058.905-1.372 23.887c-.526 9.023 6.366 16.879 15.389 17.434l-29.26 38.664c-5.256 6.979-7.563 15.711-2.132 22.544 1.869 2.365 4.322 4.088 6.95 5.081 5.023 1.898 10.775 1.168 14.951-2.745z" fill="#fed1a3" fill-rule="evenodd"/></g><g><path clip-rule="evenodd" d="m394.619 246.874c23.478-18.923 19.01-40.27 20.879-63.193.905-21.376 5.256-28.414 13.082-54.725l37.195-125.101c.572-1.923-.869-3.855-2.875-3.855h-17.12l-35.742 120.283c-7.826 26.311-12.177 33.32-13.082 54.725-1.898 22.924 2.599 44.241-20.879 63.193l-48.562 45.322c-1.577 1.489-3.387 2.511-5.315 3.095.496 1.11 1.139 2.19 1.956 3.241 1.869 2.365 4.322 4.088 6.95 5.081 5.023 1.898 10.775 1.168 14.951-2.745z" fill="#ffbc85" fill-rule="evenodd"/></g><g><path clip-rule="evenodd" d="m372.981 213.234 2.278-35.364c.263-4.176-3.037-7.768-7.213-7.972l-1.402-.088c-4.176-.204-7.651 3.037-8.001 7.213l-4.001 51.542c.292.029.613.058.905.088 9.024.554 16.879-6.367 17.434-15.419z" fill="#ffbc85" fill-rule="evenodd"/></g><g><path clip-rule="evenodd" d="m117.382 246.874c-23.507-18.923-19.01-40.27-20.879-63.193-.905-21.376-5.285-28.414-13.111-54.725l-37.167-125.102c-.572-1.923.869-3.854 2.875-3.854h47.471c1.328 0 2.498.873 2.876 2.146l32.477 109.319 1.548 4.263c3.358 9.315 7.154 11.944 11.739 15.477.876.672 1.781 1.372 2.745 2.19 16.353 13.813 21.259 32.268 22.456 53.031l.058.905 1.372 23.887c.526 9.023-6.366 16.879-15.389 17.434l29.23 38.664c5.285 6.979 7.592 15.711 2.161 22.544-1.898 2.365-4.322 4.088-6.979 5.081-4.993 1.898-10.775 1.168-14.951-2.745z" fill="#fed1a3" fill-rule="evenodd"/></g><g><path clip-rule="evenodd" d="m131.924 111.464-32.477-109.318c-.378-1.273-1.548-2.146-2.875-2.146h-17.093l36.034 121.247 1.548 4.264c4.001 11.126 8.644 12.732 14.484 17.667 16.353 13.842 21.259 32.298 22.456 53.031l.905 15.623.526 9.169c.175 2.716-.35 5.315-1.372 7.622.788.058 1.577.088 2.395.029 9.023-.555 15.915-8.41 15.389-17.434l-1.372-23.887v-.029l-.058-.876c-1.139-19.916-5.694-37.7-20.529-51.337-.613-.584-1.256-1.139-1.927-1.694-.964-.818-1.869-1.519-2.745-2.19-4.585-3.533-8.381-6.162-11.739-15.477z" fill="#ffbc85" fill-rule="evenodd"/></g><g><path clip-rule="evenodd" d="m151.547 228.214c-6.804-1.665-12.089-7.622-12.557-14.981l-2.249-35.364c0-12.469-18.922-12.469-15.389 7.125l1.431 20.704c0 19.478 8.001 28.618 20.12 34.342l23.332 1.577-9.782-12.966c-.818.058-1.606.029-2.395-.029-.846-.057-1.693-.203-2.511-.408z" fill="#ffbc85" fill-rule="evenodd"/></g><g><path clip-rule="evenodd" d="m331.953 459.67v36.065 16.265h34.574v-52.33c0-3.125-2.541-5.665-5.665-5.665h-34.574c-3.125 0 5.665 2.54 5.665 5.665z" fill="#fe72c5" fill-rule="evenodd"/></g><g><path d="m297.258 228.481c-5.195 0-10.394-1.935-14.359-5.806-3.053-2.981-3.111-7.873-.13-10.926 2.981-3.054 7.873-3.112 10.926-.13 1.966 1.919 5.145 1.927 7.088.016 3.046-2.99 7.937-2.945 10.927.098 2.99 3.044 2.946 7.936-.098 10.927-3.952 3.88-9.151 5.821-14.354 5.821z" fill="#365e7d"/></g><g><path d="m214.735 228.481c-5.195 0-10.394-1.935-14.359-5.806-3.053-2.981-3.111-7.873-.13-10.926 2.981-3.054 7.873-3.112 10.926-.13 1.966 1.919 5.145 1.927 7.088.016 3.046-2.99 7.937-2.945 10.927.098 2.99 3.044 2.946 7.936-.098 10.927-3.952 3.88-9.151 5.821-14.354 5.821z" fill="#365e7d"/></g><g><path d="m255.99 293.298c-6.623 0-13.24-1.577-18.393-4.734-3.639-2.229-4.782-6.986-2.553-10.624s6.986-4.783 10.624-2.553c5.397 3.306 15.251 3.302 20.674-.007 3.642-2.224 8.398-1.072 10.62 2.57 2.223 3.643 1.072 8.397-2.57 10.62-5.163 3.152-11.785 4.728-18.402 4.728z" fill="#fe93d3"/></g></g></svg>