<svg id="Layer_1" enable-background="new 0 0 512 512" height="512" viewBox="0 0 512 512" width="512" xmlns="http://www.w3.org/2000/svg"><g><g><path clip-rule="evenodd" d="m58.787 497.247h394.425c9.457 0 17.2-7.743 17.2-17.2v-19.286l-199.712-25.972-229.141 25.972v19.286c0 9.457 7.743 17.2 17.228 17.2z" fill="#f9f6f6" fill-rule="evenodd"/></g><g><path clip-rule="evenodd" d="m506.469 309.387v-92.573c0-5.629-4.6-10.2-10.228-10.2h-480.51c-5.629 0-10.2 4.572-10.2 10.2v92.573l257.255 31.086z" fill="#fe93d3" fill-rule="evenodd"/></g><g><path clip-rule="evenodd" d="m41.559 460.761h428.853c19.828 0 36.057-16.2 36.057-36.029v-62.973l-243.684-21.286-257.254 21.286v62.973c0 19.829 16.2 36.029 36.028 36.029z" fill="#fe93d3" fill-rule="evenodd"/></g><g><path clip-rule="evenodd" d="m5.531 361.759h156.627c-4.029-7.857-6.314-16.772-6.314-26.2 0-9.4 2.286-18.315 6.314-26.172h-156.627z" fill="#ffe07d" fill-rule="evenodd"/></g><g><path clip-rule="evenodd" d="m349.813 361.759h156.656v-52.372h-156.656c4.057 7.857 6.343 16.772 6.343 26.172 0 9.428-2.285 18.343-6.343 26.2z" fill="#ffe07d" fill-rule="evenodd"/></g><g><path clip-rule="evenodd" d="m319.757 393.274c22.343 0 41.8-12.857 51.371-31.515 4.057-7.857 6.343-16.772 6.343-26.2 0-9.4-2.286-18.315-6.343-26.172-9.571-18.657-29.028-31.515-51.371-31.515h-127.542c-22.314 0-41.771 12.857-51.371 31.515-4.029 7.857-6.314 16.772-6.314 26.2 0 9.4 2.286 18.315 6.314 26.172 9.6 18.658 29.057 31.515 51.371 31.515z" fill="#f9f6f6" fill-rule="evenodd"/></g><g><path clip-rule="evenodd" d="m448.298 216.814v92.573h58.171v-92.573c0-5.629-4.6-10.2-10.228-10.2h-47.857-10.286c4.057 0 7.6 2.4 9.228 5.857.629 1.314.972 2.771.972 4.343z" fill="#fe4eb7" fill-rule="evenodd"/></g><g><path clip-rule="evenodd" d="m448.298 316.815v39.858 5.086h58.171v-52.372h-58.171z" fill="#ffd064" fill-rule="evenodd"/></g><g><path clip-rule="evenodd" d="m448.298 424.732c0 13.057-7.029 24.543-17.514 30.886-5.429 3.257-11.771 5.143-18.514 5.143h58.142c19.828 0 36.057-16.2 36.057-36.029v-62.973h-58.171z" fill="#fe4eb7" fill-rule="evenodd"/></g><g><path clip-rule="evenodd" d="m395.042 497.247h58.171c9.457 0 17.2-7.743 17.2-17.2v-19.286h-58.143v19.286c0 9.457-7.743 17.2-17.228 17.2z" fill="#dddaec" fill-rule="evenodd"/></g><g><path clip-rule="evenodd" d="m29.588 133.412h452.253c-34.4-108.716-332.797-.057-362.197-118.659-70.971 17.114-95.485 65.287-90.056 118.659z" fill="#ffe07d" fill-rule="evenodd"/></g><g><path clip-rule="evenodd" d="m15.731 170.013h480.51v-22.743c0-7.629-6.229-13.857-13.828-13.857h-.571-452.254c-7.629 0-13.857 6.229-13.857 13.857z" fill="#f9f6f6" fill-rule="evenodd"/></g><g><path clip-rule="evenodd" d="m15.731 206.613h422.367 10.286 47.857v-36.6h-480.51z" fill="#f9f6f6" fill-rule="evenodd"/></g><g><path clip-rule="evenodd" d="m426.384 170.013h69.857v-22.743c0-7.629-6.229-13.857-13.828-13.857h-.571-69.314c7.628 0 13.857 6.229 13.857 13.857v22.743z" fill="#dddaec" fill-rule="evenodd"/></g><g><path clip-rule="evenodd" d="m426.384 206.613h11.714 10.286 47.857v-36.6h-69.857z" fill="#dddaec" fill-rule="evenodd"/></g><g><path clip-rule="evenodd" d="m75.844 32.382c31.857 121.459 284.969 40.486 361.511 101.03h44.485c-34.4-108.716-332.797-.057-362.197-118.659-17.285 4.171-31.799 10.171-43.799 17.629z" fill="#ffd064" fill-rule="evenodd"/></g><g><path d="m504.441 177.572h-496.882c-4.175 0-7.559-3.385-7.559-7.559s3.385-7.559 7.559-7.559h496.881c4.175 0 7.559 3.385 7.559 7.559s-3.384 7.559-7.558 7.559z" fill="#d0cee7"/></g><g><path d="m310.614 326.861h-109.628c-4.175 0-7.559-3.385-7.559-7.559s3.385-7.559 7.559-7.559h109.628c4.175 0 7.559 3.384 7.559 7.559s-3.384 7.559-7.559 7.559z" fill="#365e7d"/></g><g><path d="m292.3 359.69h-73c-4.175 0-7.559-3.385-7.559-7.559 0-4.175 3.385-7.559 7.559-7.559h73c4.175 0 7.559 3.385 7.559 7.559s-3.385 7.559-7.559 7.559z" fill="#365e7d"/></g><g><path clip-rule="evenodd" d="m345.071 335.587c0 4.086-.429 8.086-1.257 11.972-5.543 26.029-28.8 45.715-56.428 45.715h32.371c22.343 0 41.8-12.857 51.371-31.515 1.857-3.629 3.343-7.457 4.4-11.429 1.257-4.714 1.943-9.657 1.943-14.772 0-3.257-.286-6.486-.829-9.629-1-5.857-2.886-11.4-5.514-16.543-9.571-18.657-29.028-31.515-51.371-31.515h-32.371c29.857 0 54.6 23 57.428 52.144.171 1.829.257 3.686.257 5.572z" fill="#dddaec" fill-rule="evenodd"/></g></g></svg>