<svg id="Layer_1" enable-background="new 0 0 512 512" height="512" viewBox="0 0 512 512" width="512" xmlns="http://www.w3.org/2000/svg"><g><g><path clip-rule="evenodd" d="m11.564 451.886 170.263 23.543 94.95-23.543 75.313-85.448v-123.528l-165.112-37.387-175.414 37.387z" fill="#9dc6fb" fill-rule="evenodd"/></g><g><path clip-rule="evenodd" d="m75.779 45.235 111.143 18.515 100.923-18.515c-27.567-30.137-66.552-45.235-107.026-45.235-42.226.263-79.926 17.814-105.04 45.235z" fill="#ffe07d" fill-rule="evenodd"/></g><g><path clip-rule="evenodd" d="m11.564 242.91h340.526c0-65.356-53.411-44.826-53.411-98.151v-30.517l-116.867-23.684-116.838 23.684v30.517c0 53.324-53.41 32.795-53.41 98.151z" fill="#dddaec" fill-rule="evenodd"/></g><g><path clip-rule="evenodd" d="m30.39 511.927 309.235.073c-14.747-2.278-31.25-9.944-42.639-21.333-10.951-10.98-17.697-24.589-20.208-38.781h-265.214l.02 41.234c0 10.338 8.469 18.807 18.806 18.807z" fill="#dddaec" fill-rule="evenodd"/></g><g><path clip-rule="evenodd" d="m153.72 2.599c31.1 5.841 58.346 21.231 77.94 42.636h21.668 34.517c-25.085-27.421-62.814-44.972-105.04-45.235h-.993-.993c-9.286.058-18.339.935-27.099 2.599z" fill="#ffd064" fill-rule="evenodd"/></g><g><path clip-rule="evenodd" d="m254.934 144.759c0 53.325 53.411 32.795 53.411 98.151h43.745c0-65.356-53.411-44.826-53.411-98.151v-30.517h-24.909-8.001-10.834v30.517z" fill="#d0cee7" fill-rule="evenodd"/></g><g><path clip-rule="evenodd" d="m349.023 366.35c1.022 0 2.044.029 3.066.088v-123.528h-43.745v135.472z" fill="#80b4fb" fill-rule="evenodd"/></g><g><path clip-rule="evenodd" d="m319.737 55.455v48.532c0 5.645-4.615 10.25-10.219 10.25h-255.382c-5.635 0-10.219-4.605-10.219-10.25v-48.532c0-5.635 4.584-10.22 10.219-10.22h255.382c5.604 0 10.219 4.584 10.219 10.22z" fill="#9dc6fb" fill-rule="evenodd"/></g><g><path d="m235.31 384.823h-106.996c-4.267 0-7.726-3.459-7.726-7.726s3.459-7.726 7.726-7.726h106.996c4.267 0 7.726 3.459 7.726 7.726.001 4.267-3.459 7.726-7.726 7.726z" fill="#f9f6f6"/></g><g><path d="m217.439 421.152h-71.253c-4.267 0-7.726-3.459-7.726-7.726s3.459-7.726 7.726-7.726h71.253c4.267 0 7.726 3.459 7.726 7.726s-3.459 7.726-7.726 7.726z" fill="#f9f6f6"/></g><g><path d="m101.905 83.403v30.833h-15.452v-30.833c0-4.265 3.461-7.726 7.726-7.726s7.726 3.462 7.726 7.726z" fill="#80b4fb"/></g><g><path d="m145.74 83.403v30.833h-15.453v-30.833c0-4.265 3.451-7.726 7.726-7.726 4.265 0 7.727 3.462 7.727 7.726z" fill="#80b4fb"/></g><g><path d="m189.543 83.403v30.833h-15.453v-30.833c0-4.265 3.451-7.726 7.726-7.726 4.266 0 7.727 3.462 7.727 7.726z" fill="#80b4fb"/></g><g><path d="m217.914 114.237v-30.834c0-4.265 3.461-7.726 7.726-7.726 4.275 0 7.726 3.461 7.726 7.726v30.833h-15.452z" fill="#80b4fb"/></g><g><path clip-rule="evenodd" d="m288.254 55.456v48.535c0 5.636-4.614 10.25-10.221 10.25h20.441.204 10.834c5.607 0 10.221-4.614 10.221-10.25v-48.535c0-5.636-4.614-10.221-10.221-10.221h-21.668-9.812c5.608 0 10.222 4.585 10.222 10.221z" fill="#80b4fb" fill-rule="evenodd"/></g><g><path d="m277.17 83.403v30.833h-15.453v-30.833c0-4.265 3.461-7.726 7.726-7.726 4.276 0 7.727 3.462 7.727 7.726z" fill="#80b4fb"/></g><g><path clip-rule="evenodd" d="m100.075 338.228h163.503c15.419 0 28.034-12.616 28.034-28.035 0-15.448-12.615-28.064-28.034-28.064h-163.503c-15.448 0-28.063 12.616-28.063 28.035 0 15.448 12.615 28.064 28.063 28.064z" fill="#ffe07d" fill-rule="evenodd"/></g><g><path clip-rule="evenodd" d="m242.64 310.193c0 15.419-12.645 28.035-28.063 28.035h49.001c15.419 0 28.034-12.616 28.034-28.035 0-15.448-12.615-28.064-28.034-28.064h-49.001c15.419 0 28.063 12.616 28.063 28.064z" fill="#ffd064" fill-rule="evenodd"/></g><g><path clip-rule="evenodd" d="m442.06 460.603h33.203c10.746 0 19.507-8.79 19.507-19.508v-12.324c0-10.747-8.79-19.537-19.507-19.537h-86.789c7.388 16.178 8.556 34.518 3.504 51.368l16.295 7.359z" fill="#ffbc85" fill-rule="evenodd"/></g><g><path clip-rule="evenodd" d="m329.983 512h112.077c10.484 0 19.069-8.586 19.069-19.099v-13.2c0-10.513-8.585-19.099-19.069-19.099h-50.082c-3.358 11.156-7.709 19.946-18.251 30.459-10.512 10.543-27.771 19.216-43.744 20.939z" fill="#ffbc85" fill-rule="evenodd"/></g><g><path clip-rule="evenodd" d="m477.775 428.377v12.324c0 10.717-8.79 19.508-19.536 19.508h22.69c10.746 0 19.507-8.79 19.507-19.508v-12.324c0-10.747-8.761-19.537-19.507-19.537h-22.69c10.747.001 19.536 8.791 19.536 19.537z" fill="#f5a96c" fill-rule="evenodd"/></g><g><path clip-rule="evenodd" d="m397.586 472.342h26.486c10.484 0 19.069 8.586 19.069 19.069v13.229c0 2.599-.526 5.081-1.489 7.359h.409c10.484 0 19.069-8.586 19.069-19.099v-13.2c0-10.513-8.585-19.099-19.069-19.099h-39.802c-1.198 4.032-2.775 7.945-4.673 11.741z" fill="#f5a96c" fill-rule="evenodd"/></g><g><path clip-rule="evenodd" d="m345.957 511.606c15.974-1.723 31.48-8.673 43.745-20.938 8.79-8.79 14.864-19.303 18.222-30.459 5.081-16.85 3.913-35.19-3.504-51.368-3.504-7.651-8.41-14.835-14.718-21.172-13.316-13.287-30.487-20.384-47.921-21.231-19.828-.964-39.948 6.103-55.075 21.231-17.463 17.463-24.209 41.614-20.237 64.217 2.511 14.193 9.257 27.801 20.237 38.781 11.36 11.389 25.552 18.193 40.328 20.471 1.139.175 2.249.321 3.387.467 5.169.526 10.367.526 15.536.001z" fill="#ffe07d" fill-rule="evenodd"/></g><g><path clip-rule="evenodd" d="m375.188 408.841c4.585 14.134 4.731 29.378.467 43.6-.788 2.599-1.723 5.198-2.803 7.71-.029.029-.029.058-.029.058-3.563 8.235-8.673 15.974-15.419 22.691-4.789 4.789-10.104 8.79-15.74 11.973-5.694 3.212-11.739 5.607-17.959 7.155-3.3.847-6.658 1.431-10.046 1.781-2.745.292-5.49.438-8.264.409 6.862 3.475 14.192 5.782 21.639 6.921 1.139.175 2.249.321 3.387.467 5.169.526 10.367.526 15.536 0 15.974-1.723 31.48-8.673 43.745-20.938 8.79-8.79 14.864-19.303 18.222-30.459 5.081-16.85 3.913-35.19-3.504-51.368-3.504-7.651-8.41-14.835-14.718-21.172-13.316-13.287-30.487-20.384-47.921-21.231-1.022-.058-2.044-.088-3.066-.088 1.022.526 2.044 1.051 3.066 1.635 5.607 3.183 10.863 7.155 15.623 11.915 6.308 6.308 11.243 13.492 14.747 21.172 1.168 2.541 2.161 5.14 3.037 7.769z" fill="#ffd064" fill-rule="evenodd"/></g></g></svg>