<svg id="Layer_1" enable-background="new 0 0 512 512" height="512" viewBox="0 0 512 512" width="512" xmlns="http://www.w3.org/2000/svg"><g><g><path clip-rule="evenodd" d="m238.145 294.369 14.941 193.298c.853 10.883 8.941 19.883 19.882 19.883s19.059-9 19.912-19.883l14.941-193.298-35.382-9.294z" fill="#d09080" fill-rule="evenodd"/></g><g><path clip-rule="evenodd" d="m346.501 185.041-35.912 73.617-37.622 17.853-37.591-17.853-35.902-73.617c-8.53-22.499-10.508-37.004 6.964-49.294 4.718-3.338 9.983-6.202 15.628-8.612 2.359-1.02 4.801-1.947 7.283-2.802 2.411-.824 4.883-1.576 7.386-2.266 9.096-2.472 18.749-4.007 28.505-4.677 2.575-.175 5.151-.299 7.726-.35 2.575.051 5.161.175 7.726.35 9.776.659 19.44 2.205 28.536 4.687 2.503.68 4.976 1.432 7.387 2.256 2.483.855 4.914 1.782 7.283 2.802 5.625 2.411 10.879 5.275 15.628 8.612 17.473 12.29 15.505 26.795 6.975 49.294z" fill="#ffe07d" fill-rule="evenodd"/></g><g><path clip-rule="evenodd" d="m418.761 294.369 14.941 193.298c.853 10.883 8.971 19.883 19.912 19.883s19.029-9 19.882-19.883l14.97-193.298-35.735-13.912z" fill="#ffbc85" fill-rule="evenodd"/></g><g><path clip-rule="evenodd" d="m235.38 258.662 2.765 35.707h69.676l2.765-35.707h-37.618z" fill="#f9f6f6" fill-rule="evenodd"/></g><g><path clip-rule="evenodd" d="m327.703 185.043-35.911 73.619h18.794l35.911-73.619c8.529-22.5 10.5-37.001-6.971-49.295-6.735-4.735-14.5-8.53-22.912-11.412-13.47-4.618-28.559-6.971-43.647-7.294-3.118.059-6.265.206-9.382.471 3.147.235 6.294.588 9.382 1 8.618 1.206 17 3.118 24.823 5.824 6.088 2.088 11.823 4.618 17.059 7.647 2.029 1.177 4 2.441 5.882 3.765 17.472 12.293 15.472 26.794 6.972 49.294z" fill="#ffd064" fill-rule="evenodd"/></g><g><path clip-rule="evenodd" d="m291.056 267.927-1.647 21.618-.382 4.824h18.794l2.765-35.707h-18.794z" fill="#dddaec" fill-rule="evenodd"/></g><g><path clip-rule="evenodd" d="m289.027 294.369-14.97 193.298c-.559 7.441-4.529 14-10.47 17.383 2.735 1.588 5.941 2.5 9.382 2.5 10.941 0 19.059-9 19.912-19.883l14.941-193.298z" fill="#ce775f" fill-rule="evenodd"/></g><g><path clip-rule="evenodd" d="m511.351 136.365-20.151 122.293-34.233 14.505-40.97-14.505-19.326-82.847c-3.616-23.91.762-32.152 22.86-41.156l5.831-2.359 7.726-3.132 7.726-3.142 22.19-9.045 15.453-6.284 4.862-1.978c10.467-4.264 32.76-1.112 28.032 27.65z" fill="#ffe07d" fill-rule="evenodd"/></g><g><path clip-rule="evenodd" d="m489.702 136.366-20.147 122.296h21.647l20.147-122.296c4.735-28.765-17.559-31.912-28.029-27.648l-2.588 1.059c6.646 3.677 11.411 11.706 8.97 26.589z" fill="#ffd064" fill-rule="evenodd"/></g><g><path clip-rule="evenodd" d="m466.79 294.369-14.941 193.298c-.529 6.824-3.941 12.912-9.088 16.5 3.088 2.118 6.765 3.382 10.853 3.382 10.941 0 19.029-9 19.882-19.883l14.97-193.298h-21.676z" fill="#f5a96c" fill-rule="evenodd"/></g><g><path clip-rule="evenodd" d="m415.996 258.662 2.765 35.707h69.705l2.736-35.707z" fill="#f9f6f6" fill-rule="evenodd"/></g><g><path clip-rule="evenodd" d="m469.555 258.662-2.118 27.501-.647 8.206h21.676l2.736-35.707z" fill="#dddaec" fill-rule="evenodd"/></g><g><path clip-rule="evenodd" d="m87.587 182.837-43.029 18.383 2.647 38.971 40.382 18.853 36.383-18.853 2.647-38.971z" fill="#f9f6f6" fill-rule="evenodd"/></g><g><path clip-rule="evenodd" d="m107.293 485.843 16.676-245.652h-76.764l16.676 245.652c.824 11.912 9.765 21.706 21.706 21.706s20.883-9.794 21.706-21.706z" fill="#365e7d" fill-rule="evenodd"/></g><g><path clip-rule="evenodd" d="m96.529 201.22-2.647 38.971h30.088l2.647-38.971z" fill="#dddaec" fill-rule="evenodd"/></g><g><path clip-rule="evenodd" d="m93.882 240.191-16.677 245.652c-.412 5.941-2.853 11.353-6.676 15.294 3.853 3.941 9.088 6.412 15.059 6.412 11.941 0 20.882-9.794 21.706-21.706l16.676-245.652z" fill="#2b4d66" fill-rule="evenodd"/></g><g><path clip-rule="evenodd" d="m171.206 100.34c0 30.38-30.854 72.205-44.586 100.875h-82.065c-13.732-28.67-44.555-70.495-44.555-100.875 0-24.941 10.673-50.263 27.691-68.62 2.627-2.843 5.408-5.522 8.334-8.005 3.245-2.751 6.665-5.264 10.23-7.489 9.612-6.047 20.295-10.065 31.606-11.332 2.545-.299 5.12-.443 7.726-.443s5.182.144 7.726.443c11.157 1.246 21.696 5.182 31.204 11.085h.01c3.709 2.287 7.252 4.883 10.621 7.737 2.926 2.483 5.707 5.151 8.334 7.994 17.051 18.357 27.724 43.689 27.724 68.63z" fill="#ffe07d" fill-rule="evenodd"/></g><g><path clip-rule="evenodd" d="m141.087 100.336c0 30.383-30.823 72.207-44.558 100.884h30.088c13.735-28.677 44.588-70.501 44.588-100.884 0-28.795-14.235-58.119-36.059-76.619-14-11.853-31.088-19.265-49.558-19.265-5.118 0-10.147.559-15.059 1.647 5.206 1.147 10.235 2.882 15.059 5.118 6.971 3.206 13.5 7.441 19.441 12.5 12.176 10.324 21.97 24 28.264 39.06 5 11.97 7.794 24.823 7.794 37.559z" fill="#ffd064" fill-rule="evenodd"/></g><g><path d="m47.666 97.229c-.835.288-1.69.422-2.524.422-3.204 0-6.202-2.009-7.304-5.213-8.076-23.477-11.527-44.194-10.147-60.718 2.627-2.843 5.408-5.522 8.334-8.005 3.245-2.751 6.665-5.264 10.23-7.489-.525 3.358-1.442 6.809-1.895 8.643-3.595 14.742-.721 36.952 8.097 62.542 1.38 4.028-.763 8.427-4.791 9.818z" fill="#ffbc85"/></g><g><path d="m323.899 127.135-10.724 46.781c-.814 3.575-3.997 6.006-7.52 6.006-.577 0-1.154-.072-1.741-.196-4.152-.958-6.758-5.099-5.8-9.261l10.971-47.852c.041-.185.093-.361.144-.536 2.503.68 4.976 1.432 7.387 2.256 2.482.855 4.914 1.782 7.283 2.802z" fill="#ffbc85"/></g><g><path d="m280.693 117.39v37.653c0 4.265-3.461 7.726-7.726 7.726s-7.726-3.461-7.726-7.726v-37.653c2.575-.175 5.151-.299 7.726-.35 2.575.051 5.161.174 7.726.35z" fill="#ffbc85"/></g><g><path d="m242.051 179.726c-.587.124-1.164.196-1.741.196-3.513 0-6.696-2.431-7.52-6.006l-10.724-46.781c2.359-1.02 4.801-1.947 7.283-2.802 2.411-.824 4.883-1.576 7.386-2.266.051.175.103.361.144.546l10.972 47.852c.958 4.161-1.648 8.303-5.8 9.261z" fill="#ffbc85"/></g><g><path d="m133.326 92.449c-1.102 3.194-4.09 5.202-7.294 5.202-.845 0-1.69-.134-2.524-.422-4.038-1.401-6.181-5.8-4.78-9.828 8.818-25.538 11.693-47.739 8.087-62.532-.453-1.875-1.576-5.45-2.287-8.891 3.709 2.287 7.252 4.883 10.621 7.737 2.926 2.483 5.707 5.151 8.334 7.994 1.402 16.556-2.05 37.283-10.157 60.74z" fill="#ffbc85"/></g><g><path d="m93.314 4.894v60.235c0 4.265-3.462 7.726-7.726 7.726-4.265 0-7.726-3.461-7.726-7.726v-60.235c2.545-.299 5.12-.443 7.726-.443s5.181.144 7.726.443z" fill="#ffbc85"/></g><g><path d="m440.814 126.023v33.934c0 4.265-3.461 7.726-7.726 7.726-4.275 0-7.726-3.462-7.726-7.726v-27.66l7.726-3.132z" fill="#ffbc85"/></g><g><path d="m478.457 110.693v33.965c0 4.265-3.461 7.726-7.726 7.726s-7.726-3.461-7.726-7.726v-27.681z" fill="#ffbc85"/></g></g></svg>