<svg id="Layer_1" enable-background="new 0 0 512 512" height="512" viewBox="0 0 512 512" width="512" xmlns="http://www.w3.org/2000/svg"><g><g><path clip-rule="evenodd" d="m83.29 373.844c-22.164 0-42.576-18.368-41.933-41.934l2.103-75.663c-18.193 12.674-30.136 33.729-30.136 57.47v198.283h139.933v-198.283c0-23.712-11.943-44.796-30.136-57.441l2.103 75.634c.612 23.04-18.865 41.934-41.934 41.934z" fill="#ffdfcf" fill-rule="evenodd"/></g><g><path clip-rule="evenodd" d="m363.186 408.858c-22.135 0-42.576-18.368-41.904-41.934l2.073-75.634c-18.193 12.674-30.136 33.729-30.136 57.441v163.269h139.933v-163.27c0-23.712-11.943-44.767-30.107-57.441l2.073 75.634c.614 23.041-18.863 41.935-41.932 41.935z" fill="#ffdfcf" fill-rule="evenodd"/></g><g><path clip-rule="evenodd" d="m262.353 171.589c-.058-2.979-2.424-5.402-5.373-5.402h-67.485c-2.949 0-5.285 2.424-5.373 5.402l-.73 26.107-2.073 75.663c-.642 23.537 19.769 41.905 41.933 41.905 23.04 0 42.547-18.865 41.904-41.905-1.401-50.987-.963-34.838-2.803-101.77z" fill="#fe72c5" fill-rule="evenodd"/></g><g><path clip-rule="evenodd" d="m293.219 512v-163.27-93.593c0-23.712-11.943-44.767-30.136-57.441l1.256 46.052.818 29.611c.642 23.041-18.864 41.905-41.904 41.905-4.555 0-9.023-.759-13.228-2.19-16.411-5.548-29.231-20.996-28.705-39.715l2.073-75.663c-18.163 12.674-30.136 33.729-30.136 57.441v58.58 198.283z" fill="#ffdfcf" fill-rule="evenodd"/></g><g><path clip-rule="evenodd" d="m153.256 512v-198.283c0-23.712-11.943-44.796-30.136-57.441l2.103 75.634c.263 9.491-2.891 18.281-8.293 25.318v80.394 74.378z" fill="#ffcebf" fill-rule="evenodd"/></g><g><path clip-rule="evenodd" d="m293.219 512v-163.27-93.593c0-18.076-6.95-34.634-18.339-47.074-.876.088-1.781.117-2.716.117-1.957 0-3.971-.234-6.045-.672-.905-.204-1.84-.467-2.774-.788l.993 37.028.818 29.611c.263 9.286-2.774 17.901-7.972 24.88v50.491 30.224 133.046z" fill="#ffcebf" fill-rule="evenodd"/></g><g><path clip-rule="evenodd" d="m433.152 512v-163.27c0-23.712-11.943-44.767-30.107-57.441l2.073 75.634c.234 8.644-2.365 16.704-6.921 23.391v81.854 39.832z" fill="#ffcebf" fill-rule="evenodd"/></g><g><path clip-rule="evenodd" d="m262.353 171.589c-.058-2.979-2.424-5.402-5.373-5.402h-26.632c2.949 0 5.285 2.424 5.373 5.402l.409 14.776c.788 28.998 1.577 57.996 2.395 86.993.496 18.368-11.797 34.108-28.501 39.715 4.205 1.431 8.673 2.19 13.228 2.19 23.04 0 42.547-18.865 41.904-41.905-.934-33.932-1.869-67.865-2.803-101.769z" fill="#fe4eb7" fill-rule="evenodd"/></g><g><path clip-rule="evenodd" d="m402.316 265.153c-.088-2.949-2.424-5.373-5.373-5.373h-67.485c-2.979 0-5.315 2.424-5.402 5.373l-.701 26.136-2.073 75.634c-.672 23.566 19.769 41.934 41.904 41.934 23.069 0 42.547-18.894 41.933-41.934l-2.073-75.634z" fill="#fe72c5" fill-rule="evenodd"/></g><g><path clip-rule="evenodd" d="m117.017 224.767h-67.455c-2.979 0-5.315 2.424-5.402 5.373l-.701 26.107-2.103 75.663c-.642 23.566 19.769 41.934 41.933 41.934 23.069 0 42.547-18.894 41.933-41.934l-2.103-75.634-.701-26.136c-.086-2.95-2.422-5.373-5.401-5.373z" fill="#fe72c5" fill-rule="evenodd"/></g><g><path d="m83.29 429.133c-13.386 0-26.773-2.178-38.712-6.534-4.009-1.463-6.072-5.898-4.61-9.907 1.463-4.008 5.898-6.073 9.906-4.61 20.612 7.52 46.221 7.52 66.831 0 4.008-1.461 8.444.602 9.907 4.61 1.462 4.009-.602 8.444-4.611 9.907-11.939 4.356-25.325 6.534-38.711 6.534z" fill="#ffcebf"/></g><g><path clip-rule="evenodd" d="m95.642 244.829 2.395 87.081c.496 18.281-11.651 33.962-28.238 39.627 4.322 1.489 8.848 2.307 13.491 2.307 13.579 0 25.902-6.541 33.64-16.616 5.402-7.038 8.556-15.828 8.293-25.318l-2.103-75.634-.701-26.136c-.088-2.949-2.424-5.373-5.402-5.373h-27.157c2.949 0 5.315 2.424 5.373 5.373z" fill="#fe4eb7" fill-rule="evenodd"/></g><g><path clip-rule="evenodd" d="m376.443 280.017 2.395 86.906c.496 18.456-11.885 34.225-28.676 39.803 4.176 1.372 8.556 2.132 13.024 2.132 14.426 0 27.449-7.388 35.013-18.543 4.555-6.687 7.154-14.747 6.921-23.391l-2.073-75.634-.73-26.136c-.088-2.949-2.424-5.373-5.373-5.373h-26.281c2.949 0 5.315 2.424 5.373 5.373z" fill="#fe4eb7" fill-rule="evenodd"/></g><g><path d="m223.237 370.572c-13.384 0-26.769-2.186-38.706-6.557-4.007-1.467-6.066-5.905-4.599-9.911 1.467-4.008 5.905-6.068 9.911-4.599 20.598 7.541 46.188 7.541 66.786 0 4.007-1.466 8.445.591 9.911 4.599 1.467 4.007-.592 8.445-4.599 9.911-11.935 4.372-25.319 6.557-38.704 6.557z" fill="#ffcebf"/></g><g><path d="m363.19 464.148c-13.384 0-26.761-2.179-38.69-6.537-4.008-1.464-6.07-5.9-4.606-9.908s5.901-6.07 9.908-4.606c20.587 7.52 46.183 7.521 66.799-.001 4.005-1.461 8.444.602 9.906 4.611s-.602 8.444-4.61 9.906c-11.94 4.356-25.328 6.535-38.707 6.535z" fill="#ffcebf"/></g><g><path clip-rule="evenodd" d="m414.668 113.506-8.381-22.281-19.828-7.535-69.762 66.056 6.599 21.668 20.295 9.374z" fill="#ffe07d" fill-rule="evenodd"/></g><g><path clip-rule="evenodd" d="m343.591 180.788-26.895-31.042c-6.57 6.22-13.17 12.469-19.74 18.689-11.126 10.542-21.901 22.34-46.985 28.939 24.004 25.348 42.985 23.712 59.688 13.17 6.045-3.825 11.797-8.79 17.375-14.075z" fill="#fe93d3" fill-rule="evenodd"/></g><g><path clip-rule="evenodd" d="m309.659 210.545c11.914-7.505 22.514-18.952 32.735-28.618l1.197-1.139-8.264-9.52-3.767-4.351-3.154 2.979c-12.265 11.593-26.135 27.217-44.445 27.801-8.848.292-14.951.73-22.193-4.176-3.563 1.431-7.476 2.716-11.797 3.855 10.951 11.593 20.879 17.551 30.019 19.565 2.511.555 4.964.818 7.33.847 7.972-.001 15.36-2.833 22.339-7.243z" fill="#fe72c5" fill-rule="evenodd"/></g><g><path clip-rule="evenodd" d="m343.591 180.788 71.077-67.282-12.469-13.491-70.639 66.902 3.767 4.351z" fill="#ffd064" fill-rule="evenodd"/></g><g><path clip-rule="evenodd" d="m487.438 12.817c-8.994-9.491-21.521-13.754-33.698-12.645l-1.927.234c-8.206 1.139-16.119 4.731-22.573 10.805l-50.986 48.271 23.858 37.612 32.764 22.194 50.986-48.271c4.701-4.468 8.118-9.783 10.25-15.506 4.497-12.148 3.095-26.078-4.293-37.204-1.286-1.928-2.746-3.767-4.381-5.49z" fill="#365e7d" fill-rule="evenodd"/></g><g><path clip-rule="evenodd" d="m434.875 119.288 50.986-48.271c4.701-4.468 8.118-9.783 10.25-15.506 4.497-12.148 3.095-26.078-4.293-37.204-1.285-1.927-2.745-3.767-4.38-5.49-2.336-2.482-4.906-4.585-7.68-6.337 6.016 10.63 6.892 23.42 2.745 34.663-2.132 5.724-5.548 11.038-10.25 15.506l-50.986 48.271z" fill="#2b4d66" fill-rule="evenodd"/></g><g><path clip-rule="evenodd" d="m434.875 119.288-56.622-59.806-21.784 20.646c-3.358 3.183-3.504 8.556-.321 11.915l8.381 8.877 28.209 29.786 8.41 8.877c3.183 3.387 8.556 3.533 11.914.321z" fill="#f9f6f6" fill-rule="evenodd"/></g><g><path clip-rule="evenodd" d="m413.062 139.905 21.813-20.617-13.608-14.368-21.784 20.617c-3.358 3.183-8.673 3.066-11.885-.234h.029l5.11 5.402 8.41 8.877c3.183 3.389 8.557 3.535 11.915.323z" fill="#dddaec" fill-rule="evenodd"/></g></g></svg>