<svg id="Layer_1" enable-background="new 0 0 512 512" height="512" viewBox="0 0 512 512" width="512" xmlns="http://www.w3.org/2000/svg"><g><path d="m386.025 63.581h-22.796v-16.74h13.668c4.204 0 7.612-3.408 7.612-7.611s-3.408-7.611-7.612-7.611h-13.668v-24.008c0-4.204-3.408-7.611-7.612-7.611s-7.611 3.408-7.611 7.611v24.006h-13.668c-4.204 0-7.611 3.408-7.611 7.611s3.408 7.611 7.611 7.611h13.668v16.74h-22.796c-4.204 0-7.612 3.408-7.612 7.611s3.408 7.611 7.612 7.611h22.796v16.712h-13.668c-4.204 0-7.611 3.408-7.611 7.612s3.408 7.611 7.611 7.611h13.668v42.303c0 4.204 3.408 7.611 7.611 7.611s7.612-3.408 7.612-7.611v-42.303h13.668c4.204 0 7.612-3.408 7.612-7.611 0-4.204-3.408-7.612-7.612-7.612h-13.668v-16.709h22.796c4.204 0 7.612-3.408 7.612-7.611s-3.408-7.612-7.612-7.612z" fill="#365e7d"/><g><path clip-rule="evenodd" d="m332.984 160.201v138.047l22.633 13.39 22.633-13.39v-138.047c0-32.856-45.266-32.827-45.266 0z" fill="#f9f6f6" fill-rule="evenodd"/></g><g><path clip-rule="evenodd" d="m418.016 395.636-62.399-15.838-62.399 15.838v36.167l62.917 18.257 61.881-18.257z" fill="#ffe07d" fill-rule="evenodd"/></g><g><path clip-rule="evenodd" d="m418.016 431.803h-124.798v50.335c0 16.414 13.447 29.861 29.861 29.861h65.048c16.442 0 29.889-13.448 29.889-29.861z" fill="#d09080" fill-rule="evenodd"/></g><g><path clip-rule="evenodd" d="m378.25 298.248h-45.266-13.131c-7.4 0-13.447 6.422-13.447 14.283v26.636l47.886 18.257 50.507-18.257v-26.636c0-7.861-6.047-14.283-13.419-14.283z" fill="#ffe07d" fill-rule="evenodd"/></g><g><path clip-rule="evenodd" d="m395.354 431.803v50.335c0 16.414-13.447 29.861-29.861 29.861h22.633c16.442 0 29.889-13.448 29.889-29.861v-50.335z" fill="#ce775f" fill-rule="evenodd"/></g><g><path clip-rule="evenodd" d="m395.354 395.636h22.662v36.168h-22.662z" fill="#ffd064" fill-rule="evenodd"/></g><g><path clip-rule="evenodd" d="m382.166 312.531v26.636h8.264 14.369v-26.636c0-7.861-6.047-14.283-13.419-14.283h-13.13-9.531c7.4 0 13.447 6.422 13.447 14.283z" fill="#ffd064" fill-rule="evenodd"/></g><g><path clip-rule="evenodd" d="m359.649 160.201v138.047h9.07 9.531v-138.047c0-21.05-18.602-28.594-31.934-22.691 7.487 3.34 13.333 10.885 13.333 22.691z" fill="#dddaec" fill-rule="evenodd"/></g><g><path clip-rule="evenodd" d="m404.799 339.167h-98.393-8.235c-2.736 0-4.953 2.217-4.953 4.953v51.516h124.798v-51.516c0-2.736-2.217-4.953-4.953-4.953z" fill="#d09080" fill-rule="evenodd"/></g><g><path clip-rule="evenodd" d="m395.354 344.12v51.516h22.662v-51.516c0-2.736-2.217-4.953-4.953-4.953h-8.264-14.369c2.707 0 4.924 2.217 4.924 4.953z" fill="#ce775f" fill-rule="evenodd"/></g><g><path clip-rule="evenodd" d="m170.638 99.096-62.428 34.699v56.469l58.771 11.576 66.055-11.576v-56.469z" fill="#d09080" fill-rule="evenodd"/></g><g><path clip-rule="evenodd" d="m233.036 226.431-62.399-9.531-62.428 9.531.029 255.707c0 16.414 13.419 29.861 29.861 29.861h65.048c16.442 0 29.889-13.448 29.889-29.861z" fill="#d09080" fill-rule="evenodd"/></g><g><path clip-rule="evenodd" d="m247.259 11.143v113.817c0 4.862-3.978 8.84-8.84 8.84h-135.596c-4.862 0-8.84-3.978-8.84-8.84v-113.817c0-1.681 1.363-3.045 3.045-3.045h147.186c1.682.001 3.045 1.364 3.045 3.045z" fill="#ffe07d" fill-rule="evenodd"/></g><g><path clip-rule="evenodd" d="m196.841 133.795v56.469h36.195v-56.469h-24.102-6.623s-.029 0-.058 0z" fill="#ce775f" fill-rule="evenodd"/></g><g><path clip-rule="evenodd" d="m196.841 226.431v255.707c0 16.414-13.447 29.861-29.861 29.861h36.167c16.442 0 29.889-13.448 29.889-29.861v-255.707z" fill="#ce775f" fill-rule="evenodd"/></g><g><path clip-rule="evenodd" d="m108.21 190.264h124.827v36.168h-124.827z" fill="#ffe07d" fill-rule="evenodd"/></g><g><path clip-rule="evenodd" d="m196.841 190.264h36.195v36.168h-36.195z" fill="#ffd064" fill-rule="evenodd"/></g><g><path d="m124.704 8.099h15.223v125.701h-15.223z" fill="#ffbc85"/></g><g><path d="m163.025 8.099h15.223v125.701h-15.223z" fill="#ffbc85"/></g><g><path d="m201.326 8.099h15.223v125.701h-15.223z" fill="#ffbc85"/></g><g><path clip-rule="evenodd" d="m247.261 124.955v-113.809c0-1.681-1.363-3.045-3.045-3.045h-16.996v116.854c0 1.785-.547 3.427-1.44 4.809-1.555 2.419-4.29 4.003-7.343 4.031h14.599 5.385c4.867 0 8.84-3.974 8.84-8.84z" fill="#ffd064" fill-rule="evenodd"/></g></g></svg>