<svg id="Layer_1" enable-background="new 0 0 512 512" height="512" viewBox="0 0 512 512" width="512" xmlns="http://www.w3.org/2000/svg"><g><g><path clip-rule="evenodd" d="m53.263 315.19c0 31.764-.088 22.642.205 27.159 0 22.613 6.834 50.329 20.237 76.667 23.316 45.93 87.194 95.057 126.964 92.916 28.859 1.555 70.389-23.874 99.952-55.491 18.125-82.474 73.175-116.819 30.003-174.657-77.251-148.143-235.215-115.382-277.361 33.406z" fill="#ffeee6" fill-rule="evenodd"/></g><g><path clip-rule="evenodd" d="m282.056 69.174c-8.212-112.42-251.933-93.326-228.91 97.99 49.39-32.995 177.967-90.452 228.91-97.99z" fill="#fe93d3" fill-rule="evenodd"/></g><g><path clip-rule="evenodd" d="m252.522 24.711c-89.863-2.112-160.868 38.07-199.67 96.553-1.701 14.019-1.701 29.329.293 45.901 30.062-64.202 99.571-111.041 190.93-108.871 14.664.323 27.393 4.341 37.981 10.881-1.32-18.008-8.681-32.673-20.031-43.76-3.08-.381-6.247-.616-9.503-.704z" fill="#fe72c5" fill-rule="evenodd"/></g><g><path clip-rule="evenodd" d="m268.507 415.497c-15.72 43.496-44.374 77.987-79.745 95.702 4.165.675 8.153.939 11.907.733 28.859 1.555 70.389-23.874 99.952-55.491-12.992-13.081-24.577-27.277-32.114-40.944z" fill="#ffdfcf" fill-rule="evenodd"/></g><g><path clip-rule="evenodd" d="m290.151 300.643c14.342-3.871 27.1-9.385 40.474-18.859-16.189-31.06-35.928-54.142-57.396-69.921-8.183 3.578-17.216 5.573-26.953 5.807-4.781.117-9.708-.205-14.752-.968-69.715-13.521-147.436 19.298-178.261 98.488 0 31.764-.088 22.642.205 27.159 0 .381 0 .792.029 1.203.235.528.469 1.027.704 1.525 32.262-79.16 113.59-112.009 186.53-98.488 28.949 7.537 42.587 22.231 49.42 54.054z" fill="#ffdfcf" fill-rule="evenodd"/></g><g><path clip-rule="evenodd" d="m317.427 135.342c-49.741 19.24-72.794 64.144-85.904 81.36 38.597 7.479 74.729 29.183 99.102 65.082 10.324-7.303 21.029-16.952 33.141-29.975 2.962-3.226 5.162-3.226 8.153 0 6.248-45.021-10.587-88.252-54.492-116.467z" fill="#fe4eb7" fill-rule="evenodd"/></g><g><path clip-rule="evenodd" d="m317.425 135.345c-.258 52.993-36.479 88.894-85.907 81.353-69.712-13.516-147.429 19.306-178.252 98.496-17.42-38.57-20.47-78.417-11.734-114.886 2.431-10.168 5.79-20.068 10.003-29.597.515-1.185 1.061-2.369 1.607-3.544 30.061-64.2 99.578-111.043 190.934-108.869 14.659.319 27.393 4.337 37.983 10.879 22.52 13.959 35.191 39.507 35.366 66.168z" fill="#fe93d3" fill-rule="evenodd"/></g><g><path clip-rule="evenodd" d="m201.755 184.879c-60.828-11.79-127.756 11.702-164.329 70.479 1.73 19.856 6.892 40.005 15.837 59.832 30.824-79.19 108.545-112.009 178.26-98.488 49.419 7.538 85.64-28.362 85.904-81.36-.147-23.082-9.678-45.343-26.836-59.949 4.81 59.949-18.33 120.25-88.836 109.486z" fill="#fe72c5" fill-rule="evenodd"/></g><g><path clip-rule="evenodd" d="m363.766 251.809c-12.113 13.022-22.818 22.672-33.141 29.975-19.65 13.902-37.922 19.299-61.854 23.405-10.676 1.818-7.889 3.461-8.212 16.864v65.463c0 5.367-.352 7.714 1.349 13.022 5.719 17.95 20.911 37.952 38.714 55.902 17.89 18.067 38.421 34.022 54.61 43.701 4.341 2.581 8.476 3.901 12.611 3.901 4.106 0 8.241-1.32 12.582-3.901 32.291-19.299 81.827-63.616 93.324-99.603 1.701-5.309 1.349-7.655 1.349-13.022v-65.463c-.323-13.404 2.464-15.046-8.212-16.864-36.485-6.276-59.86-15.545-94.966-53.38-2.992-3.226-5.192-3.226-8.154 0z" fill="#a7e9a6" fill-rule="evenodd"/></g><g><path clip-rule="evenodd" d="m363.766 251.809c-4.458 4.781-8.74 9.121-12.846 13.052 30.384 32.673 48.627 74.38 48.627 119.87 0 43.378-16.6 83.354-44.521 115.294l.205.117c4.341 2.581 8.476 3.901 12.611 3.901 4.106 0 8.241-1.32 12.582-3.901 32.291-19.299 81.827-63.616 93.324-99.603 1.701-5.309 1.349-7.655 1.349-13.022v-65.463c-.323-13.404 2.464-15.046-8.212-16.864-36.485-6.276-59.86-15.545-94.966-53.38-2.991-3.227-5.191-3.227-8.153-.001z" fill="#7fdbae" fill-rule="evenodd"/></g><g><path d="m214.098 139.693c-.783 4.193-4.811 6.964-9.014 6.181-49.315-9.22-118.45 11.291-154.105 45.709-.824.793-5.285 5.048-9.447 8.726 2.431-10.168 5.79-20.068 10.003-29.597 41.114-31.987 106.686-49.315 156.392-40.033 4.193.782 6.954 4.821 6.171 9.014z" fill="#fe4eb7"/></g><g><path d="m414.241 419.381c-4.268 0-7.726-3.459-7.726-7.726v-14.798h-30.489c-2.733 0-5.264-1.445-6.654-3.799-1.389-2.354-1.432-5.268-.111-7.661 4.296-7.783 25.947-46.884 30.315-52.298 3.808-4.649 8.9-6.512 13.662-5.033 4.81 1.496 8.226 6.16 8.702 11.882.018.214.027.428.027.642v40.814h2.011c4.268 0 7.726 3.459 7.726 7.726s-3.459 7.726-7.726 7.726h-2.011v14.798c0 4.268-3.459 7.727-7.726 7.727zm-25.089-37.978h17.362v-30.459c-4.342 7.355-10.786 18.685-17.362 30.459z" fill="#365e7d"/></g><g><path d="m331.862 422.008c-14.852 0-15.956-.369-16.967-.706-2.566-.856-4.484-2.796-5.262-5.324-1.336-4.343.49-6.736 5.372-13.133 3.883-5.088 11.111-14.559 23.191-31.813 3.535-5.041 5.832-9.585 6.836-13.519l.235-1.984c-.212-6.325-5.424-11.406-11.799-11.406-5.623 0-10.503 4.01-11.604 9.533-.834 4.185-4.903 6.899-9.088 6.067-4.185-.834-6.901-4.903-6.067-9.088 2.537-12.728 13.791-21.966 26.759-21.966 15.03 0 27.259 12.228 27.259 27.26 0 .305-.018.609-.054.912l-.352 2.962c-.034.289-.085.576-.152.859-1.399 5.945-4.535 12.417-9.318 19.237-8.719 12.455-14.958 20.926-19.254 26.641 7.106-.004 16.107-.07 24.561-.177.033-.001.066-.001.1-.001 4.221 0 7.67 3.395 7.723 7.629.054 4.267-3.361 7.77-7.628 7.823-10.796.137-18.692.194-24.491.194z" fill="#365e7d"/></g></g></svg>