<svg id="Layer_1" enable-background="new 0 0 512 512" height="512" viewBox="0 0 512 512" width="512" xmlns="http://www.w3.org/2000/svg"><g><g><path clip-rule="evenodd" d="m256.009 52.827c-50.869 50.198-95.868 75.487-167.353 90.03v122.999c0 4.41-.613 8.907.759 13.17 19.156 60.039 108.57 159.706 162.418 191.887 4.03 2.395 4.293 2.395 8.322 0 53.847-32.181 143.291-131.847 162.447-191.887 1.343-4.263.73-8.761.73-13.17v-122.999c-71.484-14.543-116.483-39.832-167.323-90.03zm0 238.172c17.521 0 31.742 14.221 31.742 31.743 0 17.55-14.221 31.772-31.742 31.772-17.55 0-31.771-14.221-31.771-31.772 0-17.522 14.221-31.743 31.771-31.743z" fill="#f9f6f6" fill-rule="evenodd"/></g><g><path clip-rule="evenodd" d="m256.009 52.827c50.839 50.198 95.839 75.487 167.323 90.03v122.999c0 4.41.613 8.907-.73 13.17-19.156 60.039-108.6 159.706-162.447 191.887-4.03 2.395-4.293 2.395-8.322 0-53.847-32.181-143.261-131.847-162.418-191.887-1.372-4.263-.759-8.761-.759-13.17v-122.999c71.486-14.543 116.485-39.832 167.353-90.03zm-7.855-48.184c-67.601 72.83-112.629 90.702-182.8 102.733-20.558 3.533-15.243 6.687-15.827 32.473v126.007c0 10.338-.672 14.864 2.57 25.085 22.135 69.297 117.506 176.439 179.676 213.555 8.322 4.994 16.265 7.476 24.237 7.505 7.943-.029 15.885-2.511 24.208-7.505 62.17-37.116 157.541-144.258 179.675-213.555 3.241-10.221 2.599-14.747 2.599-25.085v-126.007c-.613-25.785 4.701-28.939-15.827-32.473-70.2-12.031-115.228-29.903-182.829-102.733-5.753-6.191-9.929-6.191-15.682 0z" fill="#fe93d3" fill-rule="evenodd"/></g><g><path d="m301.476 224.23c-.008 0-.015 0-.023 0-3.291-.01-6.214-2.104-7.284-5.216l-22.427-65.267c-1.387-4.035.761-8.431 4.796-9.817s8.432.76 9.818 4.796l15.191 44.211 15.53-44.314c1.411-4.027 5.822-6.147 9.847-4.736 4.027 1.411 6.148 5.82 4.736 9.847l-22.893 65.325c-1.085 3.098-4.009 5.171-7.291 5.171z" fill="#365e7d"/></g><g><path d="m211.389 224.23h-1.314c-16.908 0-30.153-12.809-30.153-29.16v-43.891c0-4.267 3.459-7.726 7.726-7.726s7.726 3.459 7.726 7.726v43.891c0 7.815 6.32 13.708 14.7 13.708h1.314c8.397 0 14.73-5.893 14.73-13.708v-43.891c0-4.267 3.459-7.726 7.726-7.726 4.268 0 7.726 3.459 7.726 7.726v43.891c.002 16.352-13.255 29.16-30.181 29.16z" fill="#365e7d"/></g><g><path clip-rule="evenodd" d="m422.603 279.026c-19.156 60.039-108.6 159.706-162.447 191.887-3.942 2.336-4.293 2.395-8.089.117-15.36 7.242-31.625 11.914-48.533 13.696 9.87 7.797 19.39 14.513 28.238 19.77 8.322 4.994 16.265 7.476 24.237 7.505 7.943-.029 15.885-2.511 24.208-7.505 62.17-37.116 157.541-144.258 179.675-213.555 3.241-10.221 2.599-14.747 2.599-25.085v-126.007c-.613-25.785 4.701-28.939-15.827-32.473-42.283-7.242-75.398-16.616-109.855-38.81 10.629 17.288 19.565 36.503 26.486 57.148 18.105 7.038 37.786 12.615 60.038 17.142v122.999c0 4.41.613 8.907-.73 13.171z" fill="#fe72c5" fill-rule="evenodd"/></g><g><path clip-rule="evenodd" d="m378.421 221.118c0 61.354-26.223 116.721-68.214 155.822-29.464 27.45-66.696 46.899-108.103 54.842 17.784 16.616 35.1 30.37 49.73 39.131.088.029.175.088.234.117 3.796 2.278 4.147 2.219 8.089-.117 53.847-32.181 143.291-131.847 162.447-191.887 1.343-4.263.73-8.761.73-13.17v-122.999c-22.251-4.526-41.933-10.104-60.038-17.142-3.241-1.256-6.453-2.599-9.636-3.942 15.796 29.698 24.761 63.485 24.761 99.345z" fill="#dddaec" fill-rule="evenodd"/></g><g><path clip-rule="evenodd" d="m256.009 290.999c-17.55 0-31.771 14.221-31.771 31.743 0 17.55 14.221 31.772 31.771 31.772 17.521 0 31.742-14.221 31.742-31.772 0-17.522-14.221-31.743-31.742-31.743z" fill="#ffe07d" fill-rule="evenodd"/></g><g><path d="m339.292 330.468h-18.222c-4.268 0-7.726-3.459-7.726-7.726s3.459-7.726 7.726-7.726h18.222c4.268 0 7.726 3.459 7.726 7.726s-3.459 7.726-7.726 7.726z" fill="#ffbc85"/></g><g><path d="m190.92 330.468h-18.221c-4.268 0-7.726-3.459-7.726-7.726s3.459-7.726 7.726-7.726h18.221c4.268 0 7.726 3.459 7.726 7.726s-3.459 7.726-7.726 7.726z" fill="#ffbc85"/></g><g><path d="m197.081 389.368c-1.98 0-3.96-.757-5.47-2.269-3.013-3.021-3.008-7.912.012-10.927l12.906-12.878c3.02-3.014 7.912-3.01 10.927.012 3.014 3.021 3.009 7.912-.011 10.927l-12.906 12.878c-1.508 1.505-3.483 2.257-5.458 2.257zm104.949-104.923c-1.977 0-3.955-.755-5.464-2.263-3.017-3.017-3.017-7.909 0-10.927l12.878-12.878c3.018-3.017 7.909-3.017 10.928 0 3.017 3.017 3.017 7.909 0 10.927l-12.878 12.878c-1.509 1.509-3.487 2.263-5.464 2.263z" fill="#ffbc85"/></g><g><path d="m314.908 389.368c-1.977 0-3.955-.755-5.464-2.263l-12.878-12.878c-3.017-3.017-3.017-7.909 0-10.927 3.018-3.017 7.909-3.017 10.928 0l12.878 12.878c3.017 3.017 3.017 7.909 0 10.927-1.509 1.509-3.487 2.263-5.464 2.263zm-104.92-104.923c-1.975 0-3.949-.752-5.458-2.257l-12.906-12.878c-3.02-3.014-3.025-7.906-.012-10.927 3.014-3.022 7.905-3.026 10.928-.012l12.906 12.878c3.02 3.014 3.025 7.906.011 10.927-1.508 1.513-3.489 2.269-5.469 2.269z" fill="#ffbc85"/></g><g><path d="m256.009 413.781c-4.268 0-7.726-3.459-7.726-7.726v-18.222c0-4.267 3.459-7.726 7.726-7.726s7.726 3.459 7.726 7.726v18.222c0 4.267-3.458 7.726-7.726 7.726zm0-148.376c-4.268 0-7.726-3.459-7.726-7.726v-18.251c0-4.267 3.459-7.726 7.726-7.726s7.726 3.459 7.726 7.726v18.251c0 4.267-3.458 7.726-7.726 7.726z" fill="#ffbc85"/></g></g></svg>