<svg id="Layer_1" enable-background="new 0 0 512 512" height="512" viewBox="0 0 512 512" width="512" xmlns="http://www.w3.org/2000/svg"><g><g><path clip-rule="evenodd" d="m248.495 0h-84.187c-21.872.526-39.597 18.543-39.597 40.532v47.716l43.977 19.624 43.948-19.624v-47.131h35.158c11.301 0 20.558-9.257 20.558-20.558 0-11.098-8.877-20.179-19.857-20.559z" fill="#f9f6f6" fill-rule="evenodd"/></g><g><path clip-rule="evenodd" d="m193.305 50.578v37.671h12.498 6.833v-47.132h-8.965c-3.825 0-10.103 3.358-10.366 9.461z" fill="#dddaec" fill-rule="evenodd"/></g><g><path clip-rule="evenodd" d="m247.853 20.558c0 11.301-9.257 20.558-20.558 20.558h20.499c11.301 0 20.558-9.257 20.558-20.558 0-11.097-8.877-20.179-19.857-20.558h-20.499c10.98.38 19.857 9.461 19.857 20.558z" fill="#dddaec" fill-rule="evenodd"/></g><g><path clip-rule="evenodd" d="m103.657 88.249c-5.928 0-10.804 4.877-10.804 10.805v28.472l79.574 10.396 72.069-10.396v-28.473c0-5.928-4.847-10.805-10.804-10.805h-130.035z" fill="#fe93d3" fill-rule="evenodd"/></g><g><path clip-rule="evenodd" d="m211.935 99.053v28.472h12.294 20.266v-28.472c0-5.928-4.847-10.805-10.804-10.805h-21.054-11.505c5.956.001 10.803 4.877 10.803 10.805z" fill="#fe72c5" fill-rule="evenodd"/></g><g><path clip-rule="evenodd" d="m244.495 127.525h-151.643-12.264c-6.658 0-12.119 5.432-12.119 12.09v31.859l104.949 25.844 95.488-25.844v-31.859c0-6.658-5.461-12.09-12.119-12.09z" fill="#ffe07d" fill-rule="evenodd"/></g><g><path clip-rule="evenodd" d="m236.318 139.615v31.859h32.589v-31.859c0-6.658-5.461-12.09-12.119-12.09h-12.294-20.266c6.659 0 12.09 5.432 12.09 12.09z" fill="#ffd064" fill-rule="evenodd"/></g><g><path clip-rule="evenodd" d="m268.907 171.475h-200.438c-8.41 0-15.301 6.892-15.301 15.302v154.421c79.135 13.316 192.641-49.439 231.041-128.548v-25.873c-.001-8.411-6.892-15.302-15.302-15.302z" fill="#9dc6fb" fill-rule="evenodd"/></g><g><path clip-rule="evenodd" d="m284.208 307.556c-72.77 26.311-167.002 84.336-231.041 115.319v48.096h173.894c25.843-14.046 65.265-16.47 57.147-97.009z" fill="#9dc6fb" fill-rule="evenodd"/></g><g><path clip-rule="evenodd" d="m227.062 470.971h-173.894v25.727c0 8.41 6.892 15.302 15.301 15.302h179.237c4.381 0 14.28-29.932-20.644-41.029z" fill="#fe93d3" fill-rule="evenodd"/></g><g><path clip-rule="evenodd" d="m251.649 186.776v25.873 29.144c12.644-9.87 23.741-19.682 32.559-29.144v-25.873c0-8.41-6.892-15.302-15.301-15.302h-32.589c8.439.001 15.331 6.892 15.331 15.302z" fill="#80b4fb" fill-rule="evenodd"/></g><g><path clip-rule="evenodd" d="m251.649 332.349v74.495c5.431-3.679 12.849-6.278 22.514-7.096-3.241-11.476 1.927-20.033 10.045-25.785v-66.406c-10.103 8.322-21.024 16.644-32.559 24.792z" fill="#80b4fb" fill-rule="evenodd"/></g><g><path clip-rule="evenodd" d="m284.208 212.65c-47.452 50.87-161.133 113.129-231.041 128.548v81.678c71.251-11.36 167.791-63.164 231.041-115.319z" fill="#fe93d3" fill-rule="evenodd"/></g><g><path clip-rule="evenodd" d="m251.649 241.793v65.763 24.793c11.535-8.147 22.456-16.47 32.559-24.793v-94.906c-8.818 9.461-19.915 19.273-32.559 29.143z" fill="#fe72c5" fill-rule="evenodd"/></g><g><path clip-rule="evenodd" d="m418.096 402.171c-32.297-17.755-75.047-1.665-98.934-20.179-7.038-5.461-9.753-11.214-9.403-16.966-8.176.672-18.105 3.621-25.551 8.936-8.118 5.753-13.287 14.309-10.045 25.785-52.3 4.38-38.137 60.828-9.023 60.828h-17.433c-8.439 0-15.944 4.088-20.645 10.396-3.183 4.293-5.081 9.578-5.081 15.302 0 14.163 11.564 25.727 25.726 25.727h21.2 164.228c14.133 0 25.697-11.564 25.697-25.727 0-14.134-11.564-25.698-25.697-25.698h-13.725c35.422 0 23.887-44.533-1.314-58.404z" fill="#a7e9a6" fill-rule="evenodd"/></g><g><path clip-rule="evenodd" d="m394.531 394.462c21.609-44.154-64.301-22.865-38.02-73.735-19.944 11.097-45.758 27.83-46.751 44.3-.35 5.753 2.365 11.506 9.403 16.966 18.396 14.25 47.977 8.001 75.368 12.469z" fill="#a7e9a6" fill-rule="evenodd"/></g><g><path d="m304.389 428.735c-.745 0-1.503-.109-2.254-.337-20.107-6.123-32.011-15.028-35.383-26.466-1.207-4.093 1.133-8.389 5.226-9.596 4.095-1.208 8.389 1.133 9.596 5.226 1.733 5.879 10.869 11.73 25.063 16.053 4.082 1.243 6.383 5.56 5.14 9.642-1.014 3.333-4.077 5.478-7.388 5.478z" fill="#4fc9af"/></g><g><path clip-rule="evenodd" d="m356.511 320.726c-6.124 3.389-12.789 7.321-19.117 11.605-1.85 1.252-6.705 18.703 3.524 28.986 12.507 12.573 41.991 19.77 37.553 31.538 5.373.321 10.746.73 16.061 1.606 21.608-44.153-64.302-22.865-38.021-73.735z" fill="#7fdbae" fill-rule="evenodd"/></g><path clip-rule="evenodd" d="m433.135 460.575h-13.725c35.421 0 23.887-44.533-1.314-58.404-7.417-4.059-15.389-6.366-23.565-7.709-10.483-1.723-21.288-1.869-31.654-2.161 17.432 5.349 15.155 5.811 22.573 9.87 25.201 13.871 36.735 58.404 1.314 58.404h13.725c14.133 0 25.726 11.564 25.726 25.698 0 14.163-11.593 25.727-25.726 25.727h32.647c14.133 0 25.697-11.564 25.697-25.727-.001-14.134-11.565-25.698-25.698-25.698z" fill="#7fdbae" fill-rule="evenodd"/><g><path d="m433.135 468.301h-70.667c-4.267 0-7.726-3.459-7.726-7.726s3.459-7.726 7.726-7.726h70.667c4.267 0 7.726 3.459 7.726 7.726s-3.459 7.726-7.726 7.726zm-151.555 0h-33.874c-4.267 0-7.726-3.459-7.726-7.726s3.459-7.726 7.726-7.726h33.874c4.267 0 7.726 3.459 7.726 7.726s-3.458 7.726-7.726 7.726z" fill="#4fc9af"/></g><g><path d="m394.015 402.102c-.403 0-.811-.031-1.221-.097-8.693-1.381-17.891-1.645-26.787-1.901-18.424-.53-37.474-1.078-51.576-12.004-11.616-8.96-13.057-18.663-12.218-25.223.542-4.232 4.408-7.222 8.644-6.684 4.232.542 7.225 4.411 6.684 8.644-.307 2.401.016 6.158 6.341 11.037 10.132 7.85 25.888 8.303 42.569 8.783 9.385.27 19.089.549 28.766 2.086 4.214.669 7.088 4.628 6.419 8.843-.604 3.804-3.889 6.516-7.621 6.516z" fill="#4fc9af"/></g></g></svg>