<svg id="Layer_1" enable-background="new 0 0 512 512" height="512" viewBox="0 0 512 512" width="512" xmlns="http://www.w3.org/2000/svg"><g><g><g><path clip-rule="evenodd" d="m326.861 35.541h-141.751v100.548h55.427 86.324z" fill="#dddaec" fill-rule="evenodd"/></g><g><path clip-rule="evenodd" d="m295.701 41.352v82.443h20.18 10.98v-82.443h-24.18z" fill="#d0cee7" fill-rule="evenodd"/></g><g><path clip-rule="evenodd" d="m253.649 172.477-130.333 13.113v303.602c0 12.558 10.25 22.808 22.808 22.808h219.723c12.557 0 22.837-10.251 22.837-22.808v-303.602z" fill="#f9f6f6" fill-rule="evenodd"/></g><g><path clip-rule="evenodd" d="m326.861 123.795h-86.324-55.427-20.179c-22.457 0-23.859 8.527-32.444 34.256l-9.17 27.539h117.221 148.147l-9.199-27.539c-8.556-25.729-9.958-34.256-32.444-34.256z" fill="#ffbc85" fill-rule="evenodd"/></g><g><path clip-rule="evenodd" d="m333.87 0h-155.74c-7.505 0-13.609 7.155-13.609 15.887v9.579c0 8.732 6.103 15.887 13.609 15.887h6.98 141.751 7.009c7.476 0 13.609-7.155 13.609-15.887v-9.579c-.001-8.732-6.133-15.887-13.609-15.887z" fill="#ffbc85" fill-rule="evenodd"/></g><g><path clip-rule="evenodd" d="m302.681 0c7.505 0 13.609 7.155 13.609 15.887v9.579c0 8.732-6.103 15.887-13.609 15.887h24.18 7.009c7.476 0 13.609-7.155 13.609-15.887v-9.579c-.001-8.732-6.133-15.887-13.609-15.887z" fill="#f5a96c" fill-rule="evenodd"/></g><g><path clip-rule="evenodd" d="m315.881 123.795c22.457 0 23.859 8.527 32.444 34.256l9.17 27.539h31.189l-9.199-27.539c-8.556-25.729-9.958-34.256-32.444-34.256h-20.179z" fill="#f5a96c" fill-rule="evenodd"/></g><g><path clip-rule="evenodd" d="m357.495 185.59v303.602c0 12.558-10.25 22.808-22.807 22.808h31.16c12.557 0 22.837-10.251 22.837-22.808v-303.602z" fill="#dddaec" fill-rule="evenodd"/></g><g><path clip-rule="evenodd" d="m322.743 265.608c-15.361 1.46-31.014 8.615-43.571 21.143-.701.701-1.372 1.402-2.044 2.132.058 1.197.088 2.395.088 3.621 0 16.237-5.052 31.131-13.433 42.637 15.069-1.635 30.4-8.732 42.724-21.056 12.557-12.558 19.683-28.211 21.143-43.572.234-2.366.204-3.709-.496-4.41-.673-.67-2.016-.699-4.411-.495z" fill="#4fc9af" fill-rule="evenodd"/></g><g><path clip-rule="evenodd" d="m329.372 371.034h-146.774c-8.819 0-16.032 7.213-16.032 16.033v70.965c0 8.82 7.213 16.033 16.032 16.033h146.774c8.819 0 16.032-7.213 16.032-16.033v-70.965c.001-8.82-7.212-16.033-16.032-16.033z" fill="#ffbc85" fill-rule="evenodd"/></g><g><path clip-rule="evenodd" d="m314.888 387.066v70.965c0 8.82-7.213 16.033-16.032 16.033h30.517c8.819 0 16.032-7.213 16.032-16.033v-70.965c0-8.819-7.213-16.033-16.032-16.033h-30.517c8.819.001 16.032 7.214 16.032 16.033z" fill="#f5a96c" fill-rule="evenodd"/></g><g><path d="m314.683 413.104h-61.034c-4.267 0-7.726-3.459-7.726-7.726s3.459-7.726 7.726-7.726h61.034c4.267 0 7.726 3.459 7.726 7.726 0 4.266-3.459 7.726-7.726 7.726zm-102.239 0h-15.156c-4.267 0-7.726-3.459-7.726-7.726s3.459-7.726 7.726-7.726h15.156c4.267 0 7.726 3.459 7.726 7.726 0 4.266-3.459 7.726-7.726 7.726z" fill="#365e7d"/></g><g><path d="m293.044 447.447h-74.117c-4.267 0-7.726-3.459-7.726-7.726s3.459-7.726 7.726-7.726h74.117c4.267 0 7.726 3.459 7.726 7.726s-3.459 7.726-7.726 7.726z" fill="#365e7d"/></g><g><path clip-rule="evenodd" d="m189.812 264.907c15.361 1.489 31.043 8.615 43.571 21.173.701.672 1.373 1.373 2.044 2.103-.058 1.197-.088 2.395-.088 3.621 0 16.237 5.052 31.131 13.463 42.637-15.098-1.635-30.4-8.732-42.724-21.056-12.557-12.558-19.683-28.211-21.143-43.572-.234-2.365-.204-3.709.467-4.41.701-.671 2.044-.7 4.41-.496z" fill="#4fc9af" fill-rule="evenodd"/></g></g><g><path clip-rule="evenodd" d="m280.837 276.121c-.993-20.822-8.469-39.629-20.121-53.735-1.957-2.365-3.183-3.534-4.439-3.534-1.227 0-2.482 1.168-4.41 3.534-11.389 13.755-18.777 31.978-20.033 52.158-.146 2.044-.204 4.118-.204 6.191 0 20.647 6.395 39.542 16.996 54.202 1.051 1.431 2.132 2.833 3.242 4.176 1.927 2.366 3.183 3.534 4.41 3.534 1.256 0 2.482-1.168 4.439-3.534 1.051-1.285 2.073-2.599 3.066-3.972 10.688-14.689 17.142-33.672 17.142-54.407 0-1.546-.029-3.094-.088-4.613z" fill="#a7e9a6" fill-rule="evenodd"/></g><g><path clip-rule="evenodd" d="m248.247 227.059c16.646 31.131 16.47 76.631 1.577 108.025-.175.263-.35.496-.526.759.818 1.11 1.694 2.19 2.57 3.271 1.927 2.366 3.183 3.534 4.41 3.534 1.256 0 2.482-1.168 4.439-3.534 1.051-1.285 2.073-2.599 3.066-3.972 10.688-14.689 17.142-33.672 17.142-54.407 0-1.548-.029-3.096-.088-4.614-.993-20.822-8.469-39.629-20.121-53.735-1.957-2.365-3.183-3.534-4.439-3.534-1.227 0-2.482 1.168-4.41 3.534-1.255 1.49-2.452 3.067-3.62 4.673z" fill="#7fdbae" fill-rule="evenodd"/></g></g></svg>