<svg id="Layer_1" enable-background="new 0 0 512 512" height="512" viewBox="0 0 512 512" width="512" xmlns="http://www.w3.org/2000/svg"><g><g><path clip-rule="evenodd" d="m126.545 24.802h-20.821c-11.447 0-20.821 9.345-20.821 20.822v105.336c0 11.448 9.374 20.822 20.821 20.822h20.821l24.851-68.452z" fill="#fe93d3" fill-rule="evenodd"/></g><g><path clip-rule="evenodd" d="m105.724 24.802v146.98h-.584.584 20.821v-146.98z" fill="#fe72c5" fill-rule="evenodd"/></g><g><path clip-rule="evenodd" d="m427.095 28.251v150.192c0 15.443-12.352 23.066-27.187 16.524l-51.654-22.685-18.544-68.951 18.544-68.92 51.654-22.726c14.835-6.51 27.187 1.113 27.187 16.566z" fill="#ffe07d" fill-rule="evenodd"/></g><g><path clip-rule="evenodd" d="m348.251 152.946v19.333l51.659 22.691c14.835 6.542 27.188-1.081 27.188-16.529v-19.245.029c-.058 15.361-12.411 22.925-27.188 16.412z" fill="#ffd064" fill-rule="evenodd"/></g><g><path clip-rule="evenodd" d="m298.49 5.995-18.544 99.057 18.544 95.612c9.549-2.307 19.478-4.935 29.816-8.44 10.396-3.504 19.945-8.965 19.945-19.946v-68.949-68.919c0-10.98-9.549-16.441-19.945-19.975-10.338-3.475-20.238-6.279-29.816-8.44z" fill="#f9f6f6" fill-rule="evenodd"/></g><g><path clip-rule="evenodd" d="m303.425 169.942c-1.665.555-3.3 1.11-4.935 1.606v29.116c9.549-2.307 19.478-4.935 29.816-8.44 10.396-3.504 19.945-8.965 19.945-19.946v-68.949-68.919c0-10.98-9.549-16.441-19.945-19.975-1.665-.555-3.3-1.081-4.935-1.606v68.219 68.949c-.001 10.98-9.55 16.441-19.946 19.945z" fill="#dddaec" fill-rule="evenodd"/></g><g><path clip-rule="evenodd" d="m279.508 390.252-59.339-13.609-51.98 13.609v66.116c0 30.605 25.027 55.632 55.66 55.632 30.604 0 55.66-25.027 55.66-55.632v-66.116z" fill="#365e7d" fill-rule="evenodd"/></g><g><path clip-rule="evenodd" d="m298.49 5.995c-59.923-13.58-107.816-2.716-171.944 18.807v146.98l21.23 6.892c12.761 4.147 20.413 15.215 20.413 32.27v120.201l56.507 10.601 54.813-10.601v-101.249c-.759-17.055 2.891-25.348 18.193-29.028.263-.058.526-.117.788-.204z" fill="#365e7d" fill-rule="evenodd"/></g><g><path clip-rule="evenodd" d="m272.821 178.586c-15.302 3.68-18.952 11.973-18.193 29.028v101.248 22.282h24.881v-101.248c-.759-17.055 2.891-25.348 18.193-29.028l.788-.204v-29.116c-8.556 2.716-16.85 4.906-24.88 6.834z" fill="#2b4d66" fill-rule="evenodd"/></g><g><path clip-rule="evenodd" d="m254.627 390.252v43.834c0 30.605-25.056 55.632-55.66 55.632-8.177 0-15.945-1.781-22.953-4.965 9.754 16.296 27.568 27.247 47.834 27.247 30.604 0 55.66-25.027 55.66-55.632v-66.116z" fill="#2b4d66" fill-rule="evenodd"/></g><g><path clip-rule="evenodd" d="m168.188 331.144h111.32v59.107h-111.32z" fill="#fe93d3" fill-rule="evenodd"/></g><g><path clip-rule="evenodd" d="m254.627 331.144v36.825 22.283h24.881v-59.108z" fill="#fe72c5" fill-rule="evenodd"/></g><g><path d="m427.095 47.052v16.257l-28.021 9.179c-.804.278-1.628.402-2.431.402-3.245 0-6.253-2.05-7.335-5.285-1.349-4.049.845-8.427 4.893-9.777z" fill="#ffbc85"/></g><g><path d="m427.095 143.551v16.277l-32.894-10.972c-4.049-1.339-6.243-5.718-4.893-9.766s5.728-6.243 9.766-4.893z" fill="#ffbc85"/></g><g><path d="m427.095 95.605v15.453h-39.426c-4.265 0-7.726-3.461-7.726-7.726s3.461-7.726 7.726-7.726h39.426z" fill="#ffbc85"/></g></g></svg>