<svg id="Layer_1" enable-background="new 0 0 512 512" height="512" viewBox="0 0 512 512" width="512" xmlns="http://www.w3.org/2000/svg"><g><g><g><path clip-rule="evenodd" d="m204.009 25.537v175.558l56.766 20.353 47.334-20.353v-120.309c-.234 6.745 1.051-4.585-8.03 4.526-9.111 9.082-39.421-8.381-60.357-29.318-20.967-20.937-35.363-15.038-35.713-30.457z" fill="#fe72c5" fill-rule="evenodd"/></g><g><path clip-rule="evenodd" d="m204.009 25.537c.964 40.911 69.526 99.985 97.529 72.01 4.205-4.205 6.336-10.016 6.57-16.761.526-15.681-9.169-36.472-26.718-54.051-25.113-25.113-56.824-34.137-70.811-20.149-4.292 4.293-6.424 10.279-6.599 17.2z" fill="#fe93d3" fill-rule="evenodd"/></g><g><path clip-rule="evenodd" d="m204.009 201.095h103.953 10.629c6.687 0 12.147 5.461 12.147 12.177v7.329 32.968h-34.398l-35.566 17.258-79.571-17.258v-40.298c0-6.716 5.49-12.177 12.177-12.177h10.629z" fill="#f9f6f6" fill-rule="evenodd"/></g><g><path clip-rule="evenodd" d="m307.962 201.095h-23.711.029zm-11.622 19.506v32.968h7.767 26.631v-32.968-7.329c0-6.716-5.46-12.177-12.147-12.177h-10.483-.146-23.682c6.628.058 12.06 5.519 12.06 12.177z" fill="#dddaec" fill-rule="evenodd"/></g><g><path clip-rule="evenodd" d="m167.917 334.544h177.947v67.864h-95.485-84.243v-67.864z" fill="#ffe07d" fill-rule="evenodd"/></g><g><path clip-rule="evenodd" d="m250.379 402.408h95.485v68.272c0 8.936-2.891 17.229-7.767 24.033-7.505 10.454-19.769 17.287-33.551 17.287h-97.121c-22.192 0-40.413-17.725-41.289-39.684v-69.908z" fill="#365e7d" fill-rule="evenodd"/></g><g><path clip-rule="evenodd" d="m296.34 253.569h34.398 7.797c4.03 0 7.329 3.3 7.329 7.329v73.645h-179.728v-74.317c.35-3.738 3.504-6.658 7.3-6.658h7.767 115.137z" fill="#365e7d" fill-rule="evenodd"/></g><g><path clip-rule="evenodd" d="m311.466 260.899v69.966.438 3.241h34.398v-3.679-36.706-33.26c0-4.03-3.3-7.329-7.329-7.329h-7.797-26.631c4.06-.001 7.359 3.299 7.359 7.329z" fill="#2b4d66" fill-rule="evenodd"/></g><g><path clip-rule="evenodd" d="m311.466 402.408v68.272c0 2.949-.321 5.869-.934 8.673-1.197 5.607-3.562 10.834-6.833 15.36-7.475 10.396-19.681 17.229-33.376 17.287h34.223c13.783 0 26.047-6.833 33.551-17.287 4.876-6.804 7.767-15.097 7.767-24.033v-68.272z" fill="#2b4d66" fill-rule="evenodd"/></g><g><path clip-rule="evenodd" d="m311.466 334.544h34.398v67.864h-34.398z" fill="#ffd064" fill-rule="evenodd"/></g></g><path clip-rule="evenodd" d="m273.681 103.664v97.431h34.427l-.035-119.551c-.227 6.548-3.27 12.739-7.352 16.82-6.207 6.179-15.929 7.738-27.04 5.3z" fill="#fe4eb7" fill-rule="evenodd"/></g></svg>