<svg id="Layer_1" enable-background="new 0 0 512 512" height="512" viewBox="0 0 512 512" width="512" xmlns="http://www.w3.org/2000/svg"><g><g><path clip-rule="evenodd" d="m418.384 172.73-35.655 7.542-8.877 36.991 23.361 28.502 44.225-6.771 5.446-42.902z" fill="#ffbc85" fill-rule="evenodd"/></g><g><path clip-rule="evenodd" d="m292.497 475.351-97.966-17.094-89.564 17.094v32.21c0 2.453 1.986 4.439 4.439 4.439h178.653c2.453 0 4.439-1.986 4.439-4.439v-32.21z" fill="#ffe07d" fill-rule="evenodd"/></g><g><path clip-rule="evenodd" d="m22.239 309.338c-1.986 0-3.621 1.635-3.621 3.621v8.761c0 14.864 1.81 29.319 5.256 43.19l174.857 10.245 174.857-10.245c3.446-13.871 5.256-28.326 5.256-43.19v-8.761c0-2.015-1.635-3.621-3.621-3.621h-45.671c-102.437 0-204.875 0-307.313 0z" fill="#365e7d" fill-rule="evenodd"/></g><g><path clip-rule="evenodd" d="m358.93 403.806-160.198-14.316-160.198 14.316c15.214 29.465 38.283 54.257 66.433 71.545h187.531c28.149-17.287 51.218-42.08 66.432-71.545z" fill="#365e7d" fill-rule="evenodd"/></g><g><path clip-rule="evenodd" d="m373.589 364.909h-349.715c3.387 13.637 8.352 26.661 14.659 38.897h320.397c6.308-12.235 11.272-25.259 14.659-38.897z" fill="#f9f6f6" fill-rule="evenodd"/></g><g><path clip-rule="evenodd" d="m333.116 364.909h40.473c3.446-13.871 5.256-28.326 5.256-43.19v-8.761c0-2.015-1.635-3.621-3.621-3.621h-40.473c1.986 0 3.621 1.606 3.621 3.621v8.761c0 14.864-1.81 29.319-5.256 43.19z" fill="#2b4d66" fill-rule="evenodd"/></g><g><path clip-rule="evenodd" d="m318.457 403.806h40.473c6.307-12.236 11.272-25.26 14.659-38.897h-40.473c-3.387 13.638-8.352 26.662-14.659 38.897z" fill="#dddaec" fill-rule="evenodd"/></g><g><path clip-rule="evenodd" d="m292.497 475.351c28.15-17.288 51.219-42.08 66.433-71.545h-40.473c-15.214 29.465-38.283 54.257-66.433 71.545z" fill="#2b4d66" fill-rule="evenodd"/></g><g><path clip-rule="evenodd" d="m247.586 512h40.473c2.453 0 4.439-1.986 4.439-4.439v-32.21h-40.473v18.397 13.813c-.001 2.453-1.987 4.439-4.439 4.439z" fill="#ffd064" fill-rule="evenodd"/></g><g><path clip-rule="evenodd" d="m215.756 111.318v139.148c0 10.25 8.41 18.66 18.66 18.66 10.279 0 18.66-8.41 18.66-18.66v-14.251c0-10.25 8.41-18.66 18.689-18.66 10.25 0 18.66 8.41 18.66 18.66v6.045 67.077h39.13v-146.156c-.701-43.131-61.089-107.172-88.159-57.002-2.658 4.964-25.64 10.425-25.64 5.139z" fill="#f5a96c" fill-rule="evenodd"/></g><g><path clip-rule="evenodd" d="m341.614 93.067-47.423 47.424c-8.001 7.972-8.001 21.055 0 29.027 7.972 8.001 21.054 8.001 29.026 0l41.086-41.087 6.337-6.337c7.972-7.972 7.972-21.025 0-29.027-7.972-7.972-21.084-7.943-29.026 0z" fill="#ffe07d" fill-rule="evenodd"/></g><g><path clip-rule="evenodd" d="m326.955 49.644-76.186 76.188c-7.972 8.001-7.972 21.055 0 29.056 7.972 7.972 21.054 7.972 29.026 0l14.396-14.397 31.187-16.674 16.265-30.779 14.338-14.338c8.001-8.001 8.001-21.055 0-29.056-7.972-7.973-21.054-7.973-29.026 0z" fill="#ffe07d" fill-rule="evenodd"/></g><g><path clip-rule="evenodd" d="m254.506 5.986-47.423 47.395c-7.972 8.001-7.972 21.055 0 29.056 7.972 7.972 21.025 7.972 29.026.029l33.173-12.645 14.25-34.809c8.001-7.972 8.001-21.055 0-29.027-3.825-3.825-8.79-5.811-13.812-5.986h-1.372c-5.052.176-10.016 2.162-13.842 5.987z" fill="#ffe07d" fill-rule="evenodd"/></g><g><path clip-rule="evenodd" d="m221.742 96.805c-4.001 4.001-5.986 9.257-5.986 14.513 0 5.286 1.986 10.542 5.986 14.513 7.972 8.001 19.36 5.84 29.026 0l49.525-29.815 26.661-46.373c7.972-7.972 7.972-21.026 0-29.027-7.972-7.972-21.054-7.972-29.026 0l-14.338 14.338c-15.827 15.827-31.654 31.655-47.452 47.483z" fill="#ffe07d" fill-rule="evenodd"/></g><g><path clip-rule="evenodd" d="m364.303 128.431-26.865 9.49-7.884 25.26 44.298 54.082 44.532-44.533z" fill="#d09080" fill-rule="evenodd"/></g><g><path clip-rule="evenodd" d="m311.945 43.774-76.186 76.188c-3.825 3.825-8.848 5.84-13.929 5.986 8.001 7.885 20.996 7.855 28.938-.117l76.186-76.188c7.972-7.972 7.972-21.026 0-29.027-4.147-4.118-9.636-6.132-15.097-5.986.029.058.058.088.088.117 8.001 7.972 8.001 21.026 0 29.027z" fill="#ffd064" fill-rule="evenodd"/></g><g><path clip-rule="evenodd" d="m341.614 93.067.029-.029c-.029.029-.029.029-.029.029zm-19.01-6.162-47.423 47.424-14.396 14.397c-2.979 2.979-6.658 4.848-10.542 5.607.175.175.35.35.526.555 7.972 7.972 21.054 7.972 29.026 0l14.396-14.397 47.423-47.424.029-.029 14.338-14.338c8.001-8.001 8.001-21.055 0-29.056-4.993-4.994-11.973-6.862-18.484-5.607 7.476 8.031 7.3 20.704-.526 28.501l-14.338 14.338v.029z" fill="#ffd064" fill-rule="evenodd"/></g><g><path clip-rule="evenodd" d="m346.578 121.247-34.75 34.75-6.337 6.337c-3.475 3.475-7.914 5.461-12.498 5.899.38.438.788.876 1.197 1.285 7.972 8.001 21.054 8.001 29.026 0l6.337-6.337 34.75-34.75 6.337-6.337c7.972-7.972 7.972-21.025 0-29.027-4.497-4.497-10.629-6.454-16.528-5.87 6.746 8.031 6.366 20.149-1.197 27.713z" fill="#ffd064" fill-rule="evenodd"/></g><g><path clip-rule="evenodd" d="m263.997 29.202-47.423 47.395c-2.803 2.803-6.22 4.643-9.841 5.461.117.117.234.263.35.38 8.001 7.972 21.054 7.972 29.055 0 15.798-15.828 31.625-31.655 47.452-47.483 3.446-3.475 5.373-7.855 5.84-12.353.584-5.957-1.372-12.09-5.899-16.616-3.855-3.884-8.936-5.87-14.046-5.986h-.905c-1.431.029-2.833.204-4.234.526 7.623 8.001 7.535 20.792-.349 28.676z" fill="#ffd064" fill-rule="evenodd"/></g><g><path clip-rule="evenodd" d="m446.884 196.092-49.671 49.673 28.442 34.721c14.601 16.09 40.531 15.36 55.92 0 15.36-15.389 16.119-41.321 0-55.922z" fill="#d09080" fill-rule="evenodd"/></g><g><path clip-rule="evenodd" d="m364.303 128.431-17.229 17.229 54.052 44.329 17.258-17.259z" fill="#ce775f" fill-rule="evenodd"/></g><g><path clip-rule="evenodd" d="m418.384 172.73-17.258 17.259 28.5 23.361 17.258-17.258z" fill="#f5a96c" fill-rule="evenodd"/></g><g><path clip-rule="evenodd" d="m446.884 196.092-17.258 17.258 34.72 28.443c12.965 11.768 15.009 30.925 7.242 45.964 3.621-1.869 7.008-4.293 9.987-7.271 15.36-15.389 16.119-41.321 0-55.922z" fill="#ce775f" fill-rule="evenodd"/></g></g></svg>