<svg id="Layer_1" enable-background="new 0 0 512 512" height="512" viewBox="0 0 512 512" width="512" xmlns="http://www.w3.org/2000/svg"><g><g><path clip-rule="evenodd" d="m392.299 41.292-52.679-15.769-52.709 15.769v64.945l55.015 19.916 50.373-19.916z" fill="#ffe07d" fill-rule="evenodd"/></g><g><path clip-rule="evenodd" d="m435.896 119.787c-13.958-13.959-12.907-13.55-30.953-13.55h-63.016-67.659c-18.046 0-16.966-.409-30.953 13.55l-19.594 19.595c2.336 4.059-11.184 91.461-11.184 99.812h24.062c4.672 0 8.498 3.826 8.498 8.498v30.107h4.088c5.256 0 8.264 2.219 10.454 6.162 4.147 7.417 8.264 15.243 12.352 23.332l216.527-49.03v-69.443c0-13.754-.642-17.054-11.272-27.684z" fill="#f9f6f6" fill-rule="evenodd"/></g><g><path clip-rule="evenodd" d="m488.517 258.263c-41.115-12.528-107.782-12.528-148.897 0-15.681 4.789-35.1 7.768-55.366 8.877 6.629 13.112 13.228 26.895 19.798 40.795 13.929 29.377 27.829 59.368 42.167 84.744 3.621 6.424 4.001 10.104-.438 15.857l-74.142 96.542c-3.504 4.555-6.015 6.892-16.586 6.921h86.874 63.016c18.046 0 16.995.409 30.953-13.55l41.349-41.35c10.629-10.63 11.272-13.929 11.272-27.684v-109.887z" fill="#9dc6fb" fill-rule="evenodd"/></g><g><path clip-rule="evenodd" d="m407.921 0h-136.632c-4.731 0-8.585 3.855-8.585 8.585v24.092c0 4.731 3.855 8.615 8.585 8.615h15.623 105.387 15.623c4.731 0 8.614-3.884 8.614-8.615v-24.092c0-4.73-3.884-8.585-8.615-8.585z" fill="#dddaec" fill-rule="evenodd"/></g><g><path clip-rule="evenodd" d="m391.335 8.585v24.092c0 4.731-3.855 8.615-8.585 8.615h9.549 15.623c4.731 0 8.614-3.884 8.614-8.615v-24.092c0-4.731-3.884-8.585-8.614-8.585h-25.172c4.73 0 8.585 3.855 8.585 8.585z" fill="#d0cee7" fill-rule="evenodd"/></g><g><path clip-rule="evenodd" d="m224.796 143.442v55.599l-38.776 14.948-38.807-14.948v-55.599c0-4.502 3.678-8.149 8.149-8.149h61.296c3.008 0 5.666 1.638 7.067 4.09.7 1.196 1.071 2.566 1.071 4.059z" fill="#dddaec" fill-rule="evenodd"/></g><g><path clip-rule="evenodd" d="m198.198 143.44v55.601h24.033 2.57v-55.601c0-1.489-.38-2.862-1.08-4.059-1.402-2.453-4.059-4.088-7.067-4.088h-26.602c3.008 0 5.665 1.635 7.067 4.088.699 1.197 1.079 2.57 1.079 4.059z" fill="#d0cee7" fill-rule="evenodd"/></g><g><path clip-rule="evenodd" d="m224.8 199.041h-34.107-43.481-24.032c-4.672 0-8.498 3.825-8.498 8.527v30.078l71.514 25.727 71.134-25.727v-30.078c0-4.702-3.825-8.527-8.498-8.527z" fill="#ffe07d" fill-rule="evenodd"/></g><g><path clip-rule="evenodd" d="m248.833 199.041h-24.033-2.57c4.672 0 8.498 3.825 8.498 8.527v30.078h4.117 22.485v-30.078c.001-4.702-3.825-8.527-8.497-8.527z" fill="#ffd064" fill-rule="evenodd"/></g><g><path clip-rule="evenodd" d="m304.048 307.931c-30.102 12.362-77.542 29.226-110.229 19.718-1.061-.299-2.102-.639-3.121-.999-4.038-1.432-8.149-2.957-12.321-4.492-35.572-13.186-75.265-28.443-109.951-14.227 10.662-22.509 21.325-44.648 32.152-64.129 2.225-3.935 5.233-6.16 10.456-6.16h150.416c5.254 0 8.262 2.225 10.456 6.16 4.141 7.448 8.262 15.278 12.352 23.334 6.624 13.114 13.227 26.898 19.79 40.795z" fill="#f9f6f6" fill-rule="evenodd"/></g><g><path clip-rule="evenodd" d="m233.006 329.165c25.084-3.475 51.54-13.228 70.871-21.142.058-.029.117-.058.175-.088-1.11-2.395-2.249-4.76-3.387-7.125-5.461-11.476-10.921-22.807-16.411-33.67-4.088-8.06-8.206-15.886-12.352-23.332-2.19-3.942-5.198-6.162-10.454-6.162h-4.117-22.485-4.117-16.469c.204.526.38 1.022.555 1.548 1.372 4.03 2.687 8.147 3.942 12.411 5.84 19.741 10.308 41.992 13.053 65.909.466 3.825.846 7.709 1.196 11.651z" fill="#dddaec" fill-rule="evenodd"/></g><g><path clip-rule="evenodd" d="m488.517 258.263v-69.443c0-13.754-.642-17.054-11.272-27.684l-41.349-41.35c-13.958-13.959-12.907-13.55-30.953-13.55-16.061 0-32.151 0-48.24 0 3.125 3.387 6.132 6.862 9.082 10.484 28.384 34.867 48.737 80.656 57.118 132.256 23.943.614 47.304 3.709 65.614 9.287z" fill="#dddaec" fill-rule="evenodd"/></g><g><path clip-rule="evenodd" d="m488.517 429.415v-109.887-61.266c-18.309-5.578-41.67-8.673-65.615-9.286 1.256 7.709 2.248 15.535 2.949 23.478.847 9.724 1.314 19.595 1.314 29.582 0 87.168-33.581 164.086-84.8 209.962h62.578c18.046 0 16.995.409 30.953-13.55l41.349-41.35c10.629-10.629 11.272-13.928 11.272-27.683z" fill="#80b4fb" fill-rule="evenodd"/></g><g><path d="m174.42 167.157c0 4.265-3.461 7.726-7.726 7.726h-19.481v-15.453h19.481c4.265.001 7.726 3.452 7.726 7.727z" fill="#365e7d"/></g><g><path d="m193.983 237.642v.021l-.165 89.986-.072 37.014c-.01 4.255-3.461 7.706-7.726 7.706h-.01c-4.265-.01-7.726-3.472-7.716-7.737l.082-42.474.154-84.516z" fill="#dddaec"/></g><g><path clip-rule="evenodd" d="m346.219 392.679c-14.338-25.377-28.238-55.367-42.167-84.744-31.07 12.761-80.625 13.316-113.359 1.694-38.516-13.667-83.545-17.58-122.265-1.694-13.9 29.377-27.829 59.368-42.167 84.744-3.592 6.424-3.971 10.104.467 15.857l74.142 96.542c3.504 4.555 6.015 6.921 16.703 6.921h137.333.146c10.571-.029 13.082-2.365 16.586-6.921l74.142-96.542c4.44-5.753 4.06-9.432.439-15.857z" fill="#fe93d3" fill-rule="evenodd"/></g><g><path clip-rule="evenodd" d="m271.639 505.078 74.142-96.542c4.439-5.753 4.059-9.432.438-15.857-14.338-25.377-28.238-55.367-42.167-84.744-19.652 8.06-46.722 11.243-72.244 9.578 1.752 15.097 2.833 30.896 3.125 47.132h17.229c5.052 0 9.198 4.147 9.198 9.228v76.042c0 5.081-4.147 9.228-9.198 9.228h-24.529c-3.504 19.273-8.206 37.057-13.812 52.856h41.086.146c10.571-.029 13.082-2.366 16.586-6.921z" fill="#fe4eb7" fill-rule="evenodd"/></g><g><path clip-rule="evenodd" d="m261.36 373.873c0-5.081-4.147-9.228-9.198-9.228h-66.141-65.674c-5.081 0-9.228 4.147-9.228 9.228v76.042c0 5.081 4.147 9.228 9.228 9.228h131.814c5.052 0 9.198-4.147 9.198-9.228v-76.042z" fill="#ffe07d" fill-rule="evenodd"/></g><g><path clip-rule="evenodd" d="m261.36 449.915v-76.042c0-5.081-4.147-9.228-9.198-9.228h-17.229-48.912-4.643c8.118 9.228 14.046 19.916 17.2 31.509 1.664 6.132 2.541 12.498 2.541 19.069 0 4.205-.35 8.352-1.08 12.411-1.956 11.418-6.599 22.048-13.374 31.509h40.969 24.529c5.051 0 9.197-4.147 9.197-9.228z" fill="#ffd064" fill-rule="evenodd"/></g><g><path d="m216.712 403.881h-60.943c-4.267 0-7.726-3.459-7.726-7.726s3.459-7.726 7.726-7.726h60.943c4.267 0 7.726 3.459 7.726 7.726s-3.459 7.726-7.726 7.726z" fill="#365e7d"/></g><g><path d="m216.712 435.361h-60.943c-4.267 0-7.726-3.459-7.726-7.726s3.459-7.726 7.726-7.726h60.943c4.267 0 7.726 3.459 7.726 7.726s-3.459 7.726-7.726 7.726z" fill="#365e7d"/></g><g><path clip-rule="evenodd" d="m367.098 71.37v34.867h12.673 4.264 8.264v-64.945h-9.549-7.534-8.118-80.187v30.078z" fill="#ffd064" fill-rule="evenodd"/></g></g></svg>