<svg id="Layer_1" enable-background="new 0 0 512 512" height="512" viewBox="0 0 512 512" width="512" xmlns="http://www.w3.org/2000/svg"><g><g><path clip-rule="evenodd" d="m263.292 473.22-88.976-33.847-85.063 33.847c3.008 9.082 6.132 18.28 9.374 27.625 2.015 5.811 5.023 11.155 11.155 11.155h132.983c6.132 0 9.14-5.344 11.155-11.155 3.24-9.345 6.365-18.544 9.372-27.625z" fill="#d09080" fill-rule="evenodd"/></g><g><path clip-rule="evenodd" d="m224.805 0h-97.036c-10.045.35-18.163 8.673-18.163 18.806v69.764l68.141 31.79 65.221-31.79v-69.764c0-10.133-8.118-18.456-18.163-18.806z" fill="#f9f6f6" fill-rule="evenodd"/></g><g><path clip-rule="evenodd" d="m242.968 88.57h-76.975-56.388c-35.48 0-59.425 29.377-64.506 64.507-1.139 7.885-7.968 17.634-2.803 23.712 67.309 79.211 240.488 43.154 267.922-.526-.73-7.739-1.635-15.477-2.774-23.186-5.051-35.13-28.996-64.507-64.476-64.507z" fill="#d09080" fill-rule="evenodd"/></g><g><path clip-rule="evenodd" d="m97.283 183.214c-19.915-1.518-38.575-3.65-54.986-6.424-8.322 90.526 9.724 183.798 46.956 296.43h174.04c1.431-4.322 2.833-8.585 4.205-12.849 11.167-50.404 30.74-116.805 38.137-154.713 6.716-44.825 8.498-87.402 4.585-129.394-15.593 2.628-33.202 4.76-52.007 6.308z" fill="#ffe07d" fill-rule="evenodd"/></g><g><path clip-rule="evenodd" d="m361.088 290.765c-20.207 0-39.159 5.432-55.453 14.893-32.997 19.157-55.161 54.842-55.161 95.724 0 21.697 6.249 41.905 17.024 58.988 19.593 31.013 54.197 51.63 93.59 51.63 61.089 0 110.614-49.527 110.614-110.617s-49.525-110.618-110.614-110.618z" fill="#d09080" fill-rule="evenodd"/></g><g><path clip-rule="evenodd" d="m361.088 329.75c-39.568 0-71.631 32.064-71.631 71.633s32.063 71.633 71.631 71.633 71.66-32.064 71.66-71.633-32.093-71.633-71.66-71.633z" fill="#ffe07d" fill-rule="evenodd"/></g><g><path clip-rule="evenodd" d="m248.517 171.796h-141.539c-5.344 0-9.695 4.351-9.695 9.695v45.497c0 5.344 4.351 9.695 9.695 9.695h141.539c5.344 0 9.695-4.351 9.695-9.695v-44.416c-.001-5.87-3.417-10.776-9.695-10.776z" fill="#f9f6f6" fill-rule="evenodd"/></g><g><path clip-rule="evenodd" d="m258.211 182.571c18.806-1.548 36.414-3.679 52.007-6.308-.73-7.739-1.635-15.477-2.774-23.186-5.052-35.13-28.997-64.507-64.476-64.507h-31.683c9.052 24.822 16.265 52.856 21.142 83.226h16.09c3.329 0 5.84 1.372 7.476 3.533 1.459 1.928 2.218 4.497 2.218 7.242z" fill="#ce775f" fill-rule="evenodd"/></g><g><path clip-rule="evenodd" d="m305.634 305.658c6.716-44.825 8.498-87.402 4.585-129.394-15.593 2.628-33.202 4.76-52.007 6.308v1.723 42.693c0 5.344-4.351 9.695-9.695 9.695h-9.461c.438 9.403.642 18.952.642 28.589 0 10.396-.263 20.675-.759 30.779-3.446 69.384-18.484 131.439-40.882 177.169h65.236c1.431-4.322 2.833-8.585 4.205-12.849-10.775-17.083-17.024-37.291-17.024-58.988-.001-40.883 22.163-76.568 55.16-95.725z" fill="#ffd064" fill-rule="evenodd"/></g><g><path clip-rule="evenodd" d="m253.919 500.845c3.241-9.345 6.366-18.543 9.374-27.625h-65.236c-7.184 14.718-15.155 27.742-23.741 38.78h68.448c6.132 0 9.14-5.344 11.155-11.155z" fill="#ce775f" fill-rule="evenodd"/></g><g><path clip-rule="evenodd" d="m222.002 226.988c0 5.344-4.38 9.695-9.695 9.695h26.748 9.461c5.344 0 9.695-4.351 9.695-9.695v-42.693-1.723c0-2.745-.759-5.315-2.219-7.242-1.635-2.161-4.147-3.533-7.476-3.533h-16.09-20.12c6.278 0 9.695 4.906 9.695 10.776v44.415z" fill="#dddaec" fill-rule="evenodd"/></g><g><path clip-rule="evenodd" d="m194.436 18.777v69.793h-76.975-7.855 56.388 45.291 31.683v-69.764c0-10.133-8.118-18.456-18.163-18.806h-48.241c9.9.496 17.872 8.761 17.872 18.777z" fill="#dddaec" fill-rule="evenodd"/></g><g><path d="m324.455 409.124c-1.972 0-3.94-.756-5.444-2.272l-.058-.059c-3.004-3.03-2.983-7.922.047-10.927 3.029-3.004 7.921-2.984 10.927.047 3.004 3.03 3.013 7.952-.018 10.956-1.514 1.501-3.485 2.255-5.454 2.255z" fill="#d09080"/></g><g><path d="m342.784 376.576c-1.154 0-2.326-.262-3.432-.814l-.058-.029c-3.817-1.908-5.364-6.549-3.455-10.366 1.908-3.816 6.55-5.364 10.366-3.455 3.817 1.908 5.393 6.564 3.484 10.38-1.356 2.712-4.075 4.284-6.905 4.284z" fill="#d09080"/></g><g><path d="m379.404 376.571c-1.969 0-3.937-.751-5.442-2.256l-.029-.029c-3.018-3.017-3.018-7.909 0-10.927 3.017-3.017 7.909-3.017 10.927 0s3.032 7.924.015 10.941c-1.512 1.512-3.492 2.271-5.471 2.271z" fill="#d09080"/></g><g><path d="m342.755 441.671c-2.835 0-5.563-1.565-6.917-4.273-1.908-3.816-.362-8.458 3.455-10.366 3.815-1.909 8.486-.377 10.395 3.441 1.908 3.816.391 8.443-3.426 10.351l-.058.029c-1.109.555-2.288.818-3.449.818z" fill="#d09080"/></g><g><path d="m379.397 441.669c-1.977 0-3.955-.755-5.463-2.263-3.018-3.017-3.018-7.909 0-10.927 3.017-3.018 7.924-3.032 10.941-.015 3.018 3.017 3.032 7.895.015 10.912l-.029.029c-1.509 1.509-3.487 2.264-5.464 2.264z" fill="#d09080"/></g><g><path d="m250.473 303.777h-145.451c-4.267 0-7.726-3.459-7.726-7.726s3.459-7.726 7.726-7.726h145.452c4.267 0 7.726 3.459 7.726 7.726s-3.46 7.726-7.727 7.726z" fill="#365e7d"/></g><g><path d="m222.498 339.842h-89.502c-4.267 0-7.726-3.459-7.726-7.726s3.459-7.726 7.726-7.726h89.502c4.267 0 7.726 3.459 7.726 7.726.001 4.266-3.458 7.726-7.726 7.726z" fill="#365e7d"/></g><g><path clip-rule="evenodd" d="m432.748 401.383c0-30.37-18.922-56.331-45.612-66.756 3.563 15.302 5.49 31.626 5.49 48.563 0 32.969-7.271 63.573-19.74 88.862 33.96-5.607 59.862-35.101 59.862-70.669z" fill="#ffd064" fill-rule="evenodd"/></g><g><path clip-rule="evenodd" d="m471.702 401.383c0-57.645-44.094-104.981-100.394-110.15 6.804 13.112 12.177 27.713 15.827 43.394 26.69 10.425 45.612 36.386 45.612 66.756 0 35.568-25.902 65.062-59.863 70.669-7.388 15.039-16.616 28.209-27.216 38.897 5.052.701 10.191 1.051 15.418 1.051 61.091 0 110.616-49.527 110.616-110.617z" fill="#ce775f" fill-rule="evenodd"/></g><g><path d="m361.073 409.124c-1.972 0-3.94-.756-5.444-2.272l-.058-.059c-3.004-3.03-2.983-7.922.047-10.927 3.029-3.004 7.922-2.984 10.927.047 3.004 3.03 3.013 7.952-.018 10.956-1.513 1.501-3.485 2.255-5.454 2.255z" fill="#d09080"/></g><g><path d="m397.706 409.117c-2.831 0-5.548-1.56-6.893-4.273l-.029-.059c-1.895-3.823-.332-8.459 3.491-10.354 3.822-1.895 8.459-.333 10.354 3.491 1.895 3.823.347 8.488-3.476 10.383-1.111.55-2.288.812-3.447.812z" fill="#d09080"/></g></g></svg>