<svg id="Layer_1" enable-background="new 0 0 512 512" height="512" viewBox="0 0 512 512" width="512" xmlns="http://www.w3.org/2000/svg"><g><g><path clip-rule="evenodd" d="m104.188 315.071c.029 40.231.76 65.124 20.451 103.894 12.972 25.535 38.448 52.064 65.385 70.207 21.532 14.521 43.97 23.695 61.674 22.76 17.471.935 39.617-8.035 60.944-22.292 27.171-18.143 52.997-44.906 66.086-70.675 7.246-14.228 11.92-26.616 14.929-38.566 5.2-20.568 5.522-39.881 5.522-65.328 6.135-71.434-67.225-135.243-116.629-144.826-20.1-3.886-40.844-3.944-60.944-.146-49.696 9.378-119.054 73.537-117.418 144.972z" fill="#a7e9a6" fill-rule="evenodd"/></g><g><path clip-rule="evenodd" d="m237.119 225.902c49.404 9.583 94.776 42.422 116.629 98.518 0 42.189-1.402 66.438-20.451 103.923-16.974 33.453-54.546 67.49-88.494 83.472 2.366.204 4.645.234 6.895.117 17.471.935 39.617-8.035 60.944-22.292 27.171-18.143 52.997-44.906 66.086-70.675 7.246-14.228 11.92-26.616 14.929-38.566 5.2-20.568 5.522-39.881 5.522-65.328-21.853-56.096-67.225-88.935-116.629-98.518-20.1-3.915-40.844-3.944-60.944-.146-8.443 1.578-16.77 3.857-24.921 6.807 13.526-.789 27.141.117 40.434 2.688z" fill="#7fdbae" fill-rule="evenodd"/></g><g><path clip-rule="evenodd" d="m233.204 0c-67.605 4.003-142.339 57.089-129.133 167.002 39.354-45.811 166.763-98.284 229.022-98.051-3.097-42.598-39.997-66.321-83.411-68.951z" fill="#fe93d3" fill-rule="evenodd"/></g><g><path clip-rule="evenodd" d="m368.502 135.156c-57.38-20.715-76.983 36.725-85.953 81.397 49.404 9.583 94.776 42.422 116.629 98.518 39.968-64.364 33.949-138.399-30.676-179.915z" fill="#fe4eb7" fill-rule="evenodd"/></g><g><path clip-rule="evenodd" d="m104.071 167.002c30.092-64.247 99.626-111.11 191.042-108.948 7.187.175 13.907 1.227 20.13 3.009 6.486 1.87 12.475 4.529 17.851 7.888-.876-12.125-4.499-22.73-10.226-31.729-8.648-3.068-18.289-4.85-28.807-5.084-82.827-1.782-149.263 29.947-188.441 77.278-3.361 17.091-4.12 36.287-1.549 57.586z" fill="#fe72c5" fill-rule="evenodd"/></g><g><path clip-rule="evenodd" d="m368.506 135.156c-.268 53.029-36.497 88.939-85.96 81.394-69.737-13.523-147.503 19.315-178.362 98.524-17.934-39.723-20.635-80.796-10.915-118.149 2.67-10.286 6.298-20.305 10.802-29.921.309-.67.629-1.33.959-2 30.59-63.222 99.615-109.088 190.08-106.954 14.667.35 27.406 4.36 37.981 10.905 22.552 13.966 35.24 39.527 35.415 66.201z" fill="#fe93d3" fill-rule="evenodd"/></g><g><path clip-rule="evenodd" d="m104.188 315.071c21.97-56.388 67.722-89.286 117.418-98.664 20.1-3.798 40.844-3.769 60.944.146 49.462 7.538 85.69-28.369 85.953-81.397-.146-21.562-8.443-42.393-23.519-56.943 1.081 5.288 1.636 10.752 1.665 16.244-.263 52.999-36.49 88.935-85.953 81.397-65.297-12.68-137.606 15.309-171.876 83.91 2.074 18.406 7.1 36.988 15.368 55.307z" fill="#fe72c5" fill-rule="evenodd"/></g><g><path d="m284.72 146.721c-1.443 4.03-5.865 6.122-9.884 4.679-54.843-19.594-131.661-3.762-171.24 35.301-1.113 1.093-6.236 6.215-10.328 10.225 2.67-10.286 6.298-20.305 10.802-29.921.309-.67.629-1.33.959-2 19.841-15.285 45.505-26.767 73.891-32.879 35.384-7.607 71.293-5.937 101.122 4.721 4.019 1.432 6.111 5.854 4.678 9.874z" fill="#fe4eb7"/></g><g><path clip-rule="evenodd" d="m190.023 286.088c-23.928 0-43.298 16.011-43.298 35.761 0 19.78 19.37 35.79 43.298 35.79s43.327-16.011 43.327-35.79c0-19.75-19.399-35.761-43.327-35.761z" fill="#ffeee6" fill-rule="evenodd"/></g><g><path clip-rule="evenodd" d="m314.599 286.088c-23.928 0-43.327 16.011-43.327 35.761 0 19.78 19.399 35.79 43.327 35.79s43.298-16.011 43.298-35.79c0-19.75-19.37-35.761-43.298-35.761z" fill="#ffeee6" fill-rule="evenodd"/></g><g><path clip-rule="evenodd" d="m307.471 431.966c0-18.056-25.33-32.693-56.562-32.693s-56.562 14.637-56.562 32.693 25.33 32.722 56.562 32.722 56.562-14.666 56.562-32.722z" fill="#ffeee6" fill-rule="evenodd"/></g><g><path clip-rule="evenodd" d="m174.276 288.513c20.772 2.63 36.695 17.471 36.695 35.381 0 15.163-11.423 28.135-27.55 33.336 2.133.263 4.353.409 6.603.409 23.928 0 43.327-16.011 43.327-35.79 0-19.75-19.399-35.761-43.327-35.761-5.552 0-10.869.847-15.748 2.425z" fill="#ffdfcf" fill-rule="evenodd"/></g><g><path clip-rule="evenodd" d="m298.823 288.513c20.802 2.63 36.695 17.471 36.695 35.381 0 15.163-11.423 28.135-27.55 33.336 2.162.263 4.382.409 6.632.409 23.928 0 43.298-16.011 43.298-35.79 0-2.454-.292-4.879-.876-7.216-1.782-7.158-6.135-13.556-12.271-18.465-7.801-6.252-18.435-10.08-30.151-10.08-5.581 0-10.869.847-15.777 2.425z" fill="#ffdfcf" fill-rule="evenodd"/></g><g><path clip-rule="evenodd" d="m241.297 399.74c26.236 2.834 46.102 16.157 46.102 32.138 0 16.186-20.305 29.596-46.95 32.255 3.389.351 6.895.555 10.459.555 31.232 0 56.562-14.667 56.562-32.722s-25.33-32.693-56.562-32.693c-3.271 0-6.485.146-9.611.467z" fill="#ffdfcf" fill-rule="evenodd"/></g><g><path d="m314.599 331.294c-5.922 0-11.845-1.627-16.461-4.88-3.49-2.46-4.324-7.283-1.864-10.772 2.458-3.489 7.282-4.324 10.772-1.865 3.955 2.788 11.154 2.787 15.107 0 3.491-2.458 8.313-1.625 10.772 1.865 2.46 3.49 1.626 8.313-1.864 10.772-4.616 3.254-10.539 4.88-16.462 4.88z" fill="#365e7d"/></g><g><path d="m190.023 331.294c-5.923 0-11.846-1.627-16.461-4.88-3.489-2.46-4.324-7.283-1.865-10.772 2.46-3.489 7.283-4.324 10.772-1.865 3.953 2.787 11.154 2.787 15.108 0 3.49-2.458 8.313-1.625 10.772 1.865s1.625 8.313-1.865 10.772c-4.614 3.254-10.537 4.88-16.461 4.88z" fill="#365e7d"/></g><g><path d="m250.909 441.763c-8.742 0-17.48-1.634-24.292-4.902-3.849-1.847-5.472-6.465-3.625-10.314 1.846-3.848 6.465-5.473 10.314-3.625 9.377 4.5 25.83 4.499 35.208 0 3.848-1.845 8.466-.223 10.313 3.625 1.847 3.85.223 8.467-3.626 10.314-6.811 3.267-15.552 4.902-24.292 4.902z" fill="#fe93d3"/></g></g></svg>