<svg id="Layer_1" enable-background="new 0 0 512 512" height="512" viewBox="0 0 512 512" width="512" xmlns="http://www.w3.org/2000/svg"><g><g><path clip-rule="evenodd" d="m476.69 206.895v15.763 112.498c0 53.321-22.949 99.486-68.935 119.921h-291.5c-45.986-20.406-68.935-66.57-68.935-119.921v-112.498-15.763c0-11.061 9.05-20.11 20.11-20.11h389.15c11.061 0 20.11 9.049 20.11 20.11z" fill="#f9f6f6" fill-rule="evenodd"/></g><g><path clip-rule="evenodd" d="m77.988 152.45h368.035.207c12.101 0 22.002-9.901 22.002-22.002v-60.716c0-12.184-9.996-22.18-22.209-22.18h-368.035c-12.214 0-22.209 9.996-22.209 22.18v60.508c0 12.125 9.877 22.092 22.002 22.21z" fill="#f9f6f6" fill-rule="evenodd"/></g><g><path clip-rule="evenodd" d="m77.988 152.45h-.207zm-.207 34.335h368.449v-34.335h-.207-368.035-.207z" fill="#dddaec" fill-rule="evenodd"/></g><g><path clip-rule="evenodd" d="m47.321 222.658h429.369v-15.763c0-11.061-9.05-20.11-20.11-20.11h-10.35-368.449-10.351c-11.06 0-20.11 9.049-20.11 20.11v15.763z" fill="#ffe07d" fill-rule="evenodd"/></g><g><path clip-rule="evenodd" d="m333.143 279.232c0-9.966-8.133-18.099-18.069-18.099h-104.819c-10.078 0-18.712 8.245-18.588 18.322.121 9.835 8.206 17.846 18.097 17.846h105.309c9.937.001 18.07-8.132 18.07-18.069z" fill="#a7e9a6" fill-rule="evenodd"/></g><g><path clip-rule="evenodd" d="m418.402 69.732v60.508c0 12.125-9.907 22.092-22.032 22.21h49.653.207c12.125-.118 22.002-10.085 22.002-22.21v-60.508c0-12.184-9.996-22.18-22.209-22.18h-49.83c12.213 0 22.209 9.996 22.209 22.18z" fill="#dddaec" fill-rule="evenodd"/></g><g><path clip-rule="evenodd" d="m446.023 152.45h-49.653v34.335h10.38 39.48v-34.335z" fill="#d0cee7" fill-rule="evenodd"/></g><g><path clip-rule="evenodd" d="m446.23 186.785h-39.48c11.06 0 20.11 9.05 20.11 20.11v15.763h49.83v-15.763c0-11.061-9.05-20.11-20.11-20.11z" fill="#ffd064" fill-rule="evenodd"/></g><g><path clip-rule="evenodd" d="m426.86 222.658v112.498c0 18.809-2.869 36.731-8.576 52.967 12.687-23.511 33.595-40.368 58.347-48.649.03-1.42.059-2.869.059-4.318v-112.498z" fill="#dddaec" fill-rule="evenodd"/></g><g><path clip-rule="evenodd" d="m160.614 455.078c28.275-12.147 51.555-35.505 62.796-66.5.597-1.646-.264-3.464-1.926-4.015l-29.642-9.836c-40.278 76.271-126.661 38.032-153.336-50.896l-29.643-9.837c-1.664-.552-3.438.394-3.944 2.072-17.941 59.486 14.644 122.79 73.984 142.502 27.859 9.226 56.722 7.245 81.711-3.49z" fill="#ffbc85" fill-rule="evenodd"/></g><g><path clip-rule="evenodd" d="m160.614 455.078c28.275-12.147 51.555-35.505 62.796-66.5.597-1.646-.264-3.464-1.926-4.015l-29.642-9.836c-7.009 21.175-21.973 37.499-40.456 46.756-4.288 2.159-8.783 3.933-13.426 5.294-11.563 7.778-24.693 14.166-38.948 18.75-10.824 3.49-22.268 5.974-34.186 7.305 4.495 2.188 9.197 4.111 14.077 5.737 27.859 9.225 56.722 7.244 81.711-3.491z" fill="#f5a96c" fill-rule="evenodd"/></g><g><path clip-rule="evenodd" d="m191.845 374.725c-6.14 18.523-18.358 33.337-33.688 42.96-2.194 1.37-4.451 2.648-6.769 3.801-2.297 1.154-4.657 2.194-7.057 3.121-14.629 5.676-30.999 7.15-47.163 3.42-2.483-.567-4.966-1.257-7.438-2.081-2.473-.824-4.883-1.741-7.222-2.782-4.482-1.968-8.705-4.317-12.651-6.975-9.488-6.428-17.277-14.639-23.097-23.963-2.751-4.378-5.058-9.004-6.913-13.815-6.583-17.04-7.407-36.284-1.339-54.58l8.808 2.895 57.506 19.09 3.029 1.01 7.335 2.431 7.325 2.431.01.01 3.039 1.01z" fill="#ffe07d" fill-rule="evenodd"/></g><path d="m158.158 417.685c-2.194 1.37-4.451 2.648-6.769 3.801-2.297 1.154-4.657 2.194-7.057 3.121l-27.692-55.209-19.471 58.629c-2.483-.567-4.966-1.257-7.438-2.081-2.473-.824-4.883-1.741-7.222-2.782l19.461-58.629-55.209 27.692c-2.751-4.378-5.058-9.004-6.913-13.815l64.975-32.596 3.029 1.01 7.335 2.431 7.325 2.431.01.01 3.039 1.01z" fill="#ffd064"/><g><path clip-rule="evenodd" d="m348.964 421.512c9.522 15.378 21.233 26.498 34.009 33.566 8.547 4.702 17.566 7.6 26.763 8.754-.473-2.957-.858-6.033-1.094-9.138-2.041-24.132 2.011-51.517 8.162-63.761-1.42-2.869-2.957-5.737-4.702-8.517-14.225-22.979-36.996-37.736-62.576-43.178-7.955-1.715-9.315-.858-11.326 7.009-6.536 25.315-3.46 52.286 10.764 75.265z" fill="#4fc9af" fill-rule="evenodd"/></g><g><path clip-rule="evenodd" d="m416.805 390.932c-6.151 12.244-10.203 39.629-8.162 63.761.237 3.105.621 6.181 1.094 9.138 28.893 3.608 59.471-10.173 81.621-39.658 13.929-18.513 20.612-40.339 20.642-62.519v-.325c0-6.033-.503-12.066-1.479-18.07-1.419-8.783-2.839-9.818-11.652-8.754-7.659.917-15.112 2.603-22.239 4.968-25.728 8.607-47.286 26.499-59.825 51.459z" fill="#a7e9a6" fill-rule="evenodd"/></g><g><path clip-rule="evenodd" d="m483.078 356.923c-.03 22.18-6.743 44.006-20.642 62.519-15.053 20.021-33.95 32.797-53.557 37.795.207 2.248.503 4.436.858 6.595 28.893 3.608 59.471-10.173 81.621-39.658 13.929-18.513 20.612-40.339 20.642-62.519v-.325c0-6.033-.503-12.066-1.479-18.07-1.419-8.783-2.839-9.818-11.652-8.754-5.944.71-11.74 1.863-17.389 3.46.03.177.089.384.118.562.976 6.003 1.479 12.036 1.479 18.07v.325z" fill="#7fdbae" fill-rule="evenodd"/></g><g><path clip-rule="evenodd" d="m349.526 339.237c-7.452-1.597-9.108-.946-10.972 5.619 23.451 6.27 38.386 21.766 51.664 43.178 1.715 2.78 3.283 5.619 4.673 8.517-6.476 12.894-10.498 45.1-2.395 62.962 5.619 2.159 11.386 3.608 17.241 4.318-.355-2.159-.651-4.347-.858-6.595-.089-.828-.177-1.686-.237-2.543-2.041-24.132 2.011-51.517 8.162-63.761-1.42-2.869-2.957-5.737-4.702-8.517-14.224-22.979-36.995-37.736-62.576-43.178z" fill="#26bb9e" fill-rule="evenodd"/></g></g></svg>