<svg id="Layer_1" enable-background="new 0 0 512 512" height="512" viewBox="0 0 512 512" width="512" xmlns="http://www.w3.org/2000/svg"><g><g><path clip-rule="evenodd" d="m202.112 322.084c-30.781-16.455-52.298-14.585-80.663-.316v23.446c0 3.596-1.985 5.121-5.264 5.955-38.433 9.838-109.545 27.041-112.595 77.961l-3.395 66.598c-.432 6.904 1.295 8.659 8.486 8.659h306.169.029c7.163 0 8.889-1.755 8.486-8.659l-3.395-66.598c-3.078-50.919-74.19-68.122-112.594-77.961-3.308-.834-5.264-2.359-5.264-5.955z" fill="#ffdfcf" fill-rule="evenodd"/></g><g><path clip-rule="evenodd" d="m121.449 344.897c14.153 9.551 28.94 15.592 40.562 14.959 4.89.259 10.356-.662 16.11-2.532 5.149-1.669 4.919.719 4.919 5.408v2.445c0 3.625 1.985 5.121 5.264 5.955 38.433 9.839 109.43 25.344 112.479 76.263v56.989h14.067c6.99 0 8.947-1.553 8.515-8.659l-3.395-66.598c-3.078-50.919-74.19-68.122-112.594-77.961-3.308-.834-5.264-2.359-5.264-5.955v-23.129c-14.038 9.378-28.594 15.276-40.101 14.643-3.912.23-8.199-.316-12.686-1.525-8.831-2.301-18.497-7.106-27.875-13.435v23.132z" fill="#ffcebf" fill-rule="evenodd"/></g><g><path clip-rule="evenodd" d="m65.008 207.243c0 26.466.489 42.835 13.434 68.352 8.544 16.8 25.286 34.234 43.007 46.172 14.153 9.551 28.94 15.592 40.562 14.959 11.507.633 26.063-5.264 40.101-14.643 17.864-11.967 34.866-29.545 43.467-46.489 4.747-9.378 7.825-17.52 9.81-25.373 3.423-13.521 3.625-26.236 3.625-42.979 4.027-46.978-44.215-88.95-76.693-95.25-13.233-2.56-26.868-2.589-40.101-.086-32.681 6.157-78.305 48.359-77.212 95.337z" fill="#ffeee6" fill-rule="evenodd"/></g><g><path clip-rule="evenodd" d="m152.431 148.586c32.507 6.3 62.338 27.905 76.722 64.814-.029 27.732-.921 43.698-13.463 68.352-11.162 22.007-35.872 44.389-58.224 54.918 1.553.115 3.078.144 4.545.058 11.507.633 26.063-5.264 40.101-14.643 17.864-11.967 34.866-29.545 43.467-46.489 4.747-9.378 7.825-17.52 9.81-25.373 3.423-13.521 3.625-26.236 3.625-42.979-14.355-36.88-44.215-58.485-76.693-64.785-13.233-2.589-26.868-2.618-40.101-.115-5.552 1.064-11.047 2.56-16.368 4.488 8.887-.519 17.834.057 26.579 1.754z" fill="#ffdfcf" fill-rule="evenodd"/></g><g><path clip-rule="evenodd" d="m149.871 0c-44.474 2.647-93.637 37.571-84.949 109.864 25.89-30.149 109.689-64.641 150.653-64.497-2.071-28.02-26.322-43.641-54.888-45.367z" fill="#fe93d3" fill-rule="evenodd"/></g><g><path clip-rule="evenodd" d="m238.847 88.921c-37.742-13.636-50.63 24.136-56.527 53.537 32.478 6.3 62.338 27.905 76.693 64.785 26.293-42.317 22.323-91.021-20.166-118.322z" fill="#fe4eb7" fill-rule="evenodd"/></g><g><path clip-rule="evenodd" d="m64.922 109.864c19.792-42.26 65.531-73.099 125.654-71.661 4.718.115 9.148.806 13.233 1.956 4.286 1.237 8.199 2.992 11.766 5.207-.604-7.969-2.963-14.959-6.731-20.885-5.696-1.985-12.053-3.193-18.957-3.337-54.486-1.179-98.183 19.706-123.958 50.833-2.215 11.248-2.704 23.849-1.007 37.887z" fill="#fe72c5" fill-rule="evenodd"/></g><g><path clip-rule="evenodd" d="m238.843 88.923c-.173 34.861-24.019 58.485-56.525 53.531-45.886-8.913-97.031 12.69-117.314 64.789-10.954-24.222-13.279-49.226-8.446-72.322 1.807-8.67 4.619-17.065 8.365-25.055 1.005-2.142 2.081-4.264 3.218-6.345 21.258-38.963 65.368-66.687 122.431-65.317 9.644.234 18.04 2.853 25.004 7.167 14.811 9.178 23.156 25.999 23.267 43.552z" fill="#fe93d3" fill-rule="evenodd"/></g><g><path clip-rule="evenodd" d="m65.008 207.243c14.441-37.082 44.531-58.715 77.211-64.9 13.233-2.503 26.868-2.474 40.101.115 32.507 4.948 56.355-18.67 56.527-53.537-.086-14.183-5.552-27.876-15.477-37.484.719 3.51 1.093 7.077 1.122 10.702-.201 34.867-24.02 58.514-56.556 53.537-42.949-8.343-90.501 10.069-113.054 55.205 1.352 12.082 4.66 24.337 10.126 36.362z" fill="#fe72c5" fill-rule="evenodd"/></g><g><path d="m186.125 97.349c-1.411 3.959-5.766 6.02-9.725 4.609-35.288-12.568-84.636-2.396-110.005 22.669-1.35 1.34-4.619 3.553-9.837 10.294 1.807-8.67 4.619-17.065 8.365-25.055 1.005-2.142 2.081-4.264 3.218-6.345 30.983-21.491 77.641-28.628 113.365-15.908 3.969 1.411 6.03 5.776 4.619 9.736z" fill="#fe4eb7"/></g><g><path d="m504.252 512c-4.205 0-7.614-3.409-7.614-7.614v-59.664c0-12.585-10.251-22.823-22.851-22.823h-71.486c-26.739 0-48.492-21.754-48.492-48.493s21.753-48.493 48.492-48.493h61.073c18.342 0 33.264-14.923 33.264-33.265 0-18.343-14.922-33.266-33.264-33.266h-9.867c-4.205 0-7.614-3.409-7.614-7.614s3.408-7.614 7.614-7.614h9.867c26.739 0 48.492 21.754 48.492 48.493s-21.753 48.493-48.492 48.493h-61.073c-18.342 0-33.264 14.923-33.264 33.265s14.922 33.265 33.264 33.265h71.486c20.997 0 38.078 17.069 38.078 38.051v59.664c.001 4.206-3.408 7.615-7.613 7.615z" fill="#d0cee7"/></g><g><path d="m293.822 257.837h-93.839c-4.205 0-7.614-3.409-7.614-7.614s3.408-7.614 7.614-7.614h93.839c4.205 0 7.614 3.409 7.614 7.614-.001 4.205-3.409 7.614-7.614 7.614z" fill="#f5a96c"/></g><g><path d="m163.305 257.837h-10.902c-4.205 0-7.614-3.409-7.614-7.614s3.408-7.614 7.614-7.614h10.902c4.205 0 7.614 3.409 7.614 7.614s-3.408 7.614-7.614 7.614z" fill="#f5a96c"/></g><g><path d="m166.987 293.077c-1.948 0-3.897-.744-5.384-2.23-2.973-2.973-2.973-7.794 0-10.767l7.71-7.71c2.974-2.973 7.794-2.973 10.768 0 2.973 2.973 2.973 7.794 0 10.767l-7.71 7.71c-1.487 1.486-3.436 2.23-5.384 2.23z" fill="#f5a96c"/></g><g><path d="m174.697 230.306c-1.948 0-3.897-.744-5.384-2.23l-7.71-7.71c-2.973-2.973-2.973-7.794 0-10.767 2.974-2.973 7.794-2.973 10.768 0l7.71 7.71c2.973 2.973 2.973 7.794 0 10.767-1.487 1.486-3.436 2.23-5.384 2.23z" fill="#f5a96c"/></g><g><path clip-rule="evenodd" d="m161.78 504.386h108.883v-51.552c0-3.049-2.503-5.581-5.581-5.581h-206.633c-3.049 0-5.581 2.532-5.581 5.581v51.552z" fill="#fe93d3" fill-rule="evenodd"/></g><g><path clip-rule="evenodd" d="m236.603 452.834v35.528 16.024h34.06v-51.552c0-3.049-2.503-5.581-5.581-5.581h-34.06c-3.077 0 5.581 2.532 5.581 5.581z" fill="#fe72c5" fill-rule="evenodd"/></g><g><path clip-rule="evenodd" d="m338.525 230.775h-25.257c-10.701 0-19.447 8.745-19.447 19.447s8.745 19.447 19.447 19.447h25.229l19.656-18.915c0-.201-19.657-19.806-19.628-19.979z" fill="#f9f6f6" fill-rule="evenodd"/></g><g><path clip-rule="evenodd" d="m434.032 224.073h-26.696l-12.51 28.041 12.51 25.324h26.696c10.73 0 19.475-8.745 19.475-19.447v-7.221-7.221c0-10.702-8.745-19.476-19.475-19.476z" fill="#365e7d" fill-rule="evenodd"/></g><g><path clip-rule="evenodd" d="m293.821 250.222c0 10.702 8.745 19.447 19.447 19.447h25.229v-15.218-.518h-25.229c-7.911 0-14.757-4.775-17.778-11.565-1.094 2.389-1.669 5.064-1.669 7.854z" fill="#dddaec" fill-rule="evenodd"/></g><g><path clip-rule="evenodd" d="m407.336 261.701v15.736h26.696c10.73 0 19.475-8.745 19.475-19.447v-7.221-7.221c0-.23 0-.432 0-.662-.345 10.414-8.975 18.814-19.475 18.814h-26.696z" fill="#2b4d66" fill-rule="evenodd"/></g><g><path clip-rule="evenodd" d="m345.774 224.073c-3.797 0-6.962 2.963-7.249 6.703-.029.173-.029.374-.029.575v38.319.489c0 3.999 3.279 7.278 7.278 7.278h61.561v-53.364z" fill="#d09080" fill-rule="evenodd"/></g><g><path clip-rule="evenodd" d="m338.496 254.451v15.218.489c0 3.999 3.279 7.278 7.278 7.278h61.561v-15.736h-61.561c-3.998.001-7.278-3.25-7.278-7.249z" fill="#ce775f" fill-rule="evenodd"/></g></g></svg>