<svg id="Layer_1" enable-background="new 0 0 512 512" height="512" viewBox="0 0 512 512" width="512" xmlns="http://www.w3.org/2000/svg"><g><g><path clip-rule="evenodd" d="m92.721 239.86h91.634v69.628h-91.634z" fill="#ffbc85" fill-rule="evenodd"/></g><g><path clip-rule="evenodd" d="m327.616 239.86h91.663v69.628h-91.663z" fill="#ffbc85" fill-rule="evenodd"/></g><g><path clip-rule="evenodd" d="m54.964 37.349c-8.176 0-14.863 6.921-14.863 15.389v185.579c0 8.469 6.687 15.389 14.863 15.389h37.757 91.634 143.262 91.663 37.757c8.176 0 14.863-6.921 14.863-15.389v-185.578c0-8.469-6.687-15.389-14.863-15.389h-124.807v-14.251c0-12.703-10.396-23.099-23.098-23.099h-106.264c-12.732 0-23.127 10.396-23.127 23.099v14.251h-124.777z" fill="#365e7d" fill-rule="evenodd"/></g><g><path clip-rule="evenodd" d="m80.223 77.473h351.554v136.111h-351.554z" fill="#9dc6fb" fill-rule="evenodd"/></g><g><path clip-rule="evenodd" d="m327.616 295.642h-143.261-91.634-37.757c-8.176 0-14.863 6.921-14.863 15.389v185.579c0 8.469 6.687 15.389 14.863 15.389h402.073c8.176 0 14.863-6.921 14.863-15.389v-185.579c0-8.469-6.687-15.389-14.863-15.389h-37.757z" fill="#365e7d" fill-rule="evenodd"/></g><g><path clip-rule="evenodd" d="m364.176 435.958h-216.352l-9.257 15.039 9.257 15.565h216.352l5.928-15.302z" fill="#d09080" fill-rule="evenodd"/></g><g><path clip-rule="evenodd" d="m147.824 435.958-43.773-7.68c-12.44-2.161-22.952 10.338-22.952 22.982s10.512 25.143 22.952 22.982l43.773-7.68z" fill="#ffe07d" fill-rule="evenodd"/></g><g><path clip-rule="evenodd" d="m407.92 428.278-43.744 7.68v30.604l43.744 7.68c12.44 2.161 22.981-10.338 22.981-22.982 0-12.645-10.542-25.143-22.981-22.982z" fill="#ffe07d" fill-rule="evenodd"/></g><g><path clip-rule="evenodd" d="m108.11 333.166c-17.813 0-32.267 14.426-32.267 32.268 0 17.813 14.455 32.268 32.267 32.268s32.267-14.455 32.267-32.268c.001-17.842-14.454-32.268-32.267-32.268z" fill="#ffe07d" fill-rule="evenodd"/></g><g><path clip-rule="evenodd" d="m206.694 333.166c-17.813 0-32.267 14.426-32.267 32.268 0 17.813 14.455 32.268 32.267 32.268 17.842 0 32.267-14.455 32.267-32.268 0-17.842-14.425-32.268-32.267-32.268z" fill="#ffbc85" fill-rule="evenodd"/></g><g><path clip-rule="evenodd" d="m305.277 333.166c-17.813 0-32.267 14.426-32.267 32.268 0 17.813 14.455 32.268 32.267 32.268 17.842 0 32.297-14.455 32.297-32.268 0-17.842-14.455-32.268-32.297-32.268z" fill="#fe93d3" fill-rule="evenodd"/></g><g><path clip-rule="evenodd" d="m403.89 333.166c-17.842 0-32.297 14.426-32.297 32.268 0 17.813 14.455 32.268 32.297 32.268 17.813 0 32.267-14.455 32.267-32.268 0-17.842-14.454-32.268-32.267-32.268z" fill="#d09080" fill-rule="evenodd"/></g><g><path clip-rule="evenodd" d="m471.9 496.611v-185.58c0-8.469-6.687-15.389-14.863-15.389h-18.893c8.176 0 14.893 6.921 14.893 15.389v185.579c0 8.469-6.716 15.389-14.893 15.389h18.893c8.176.001 14.863-6.92 14.863-15.388z" fill="#2b4d66" fill-rule="evenodd"/></g><g><path clip-rule="evenodd" d="m140.378 365.435c0-17.842-14.455-32.268-32.267-32.268-2.511 0-4.964.292-7.33.818 12.411 4.497 21.259 16.382 21.259 30.341 0 15.302-10.658 28.122-24.967 31.451 3.446 1.256 7.154 1.927 11.038 1.927 17.812-.001 32.267-14.456 32.267-32.269z" fill="#ffd064" fill-rule="evenodd"/></g><g><path clip-rule="evenodd" d="m238.961 365.435c0-17.842-14.425-32.268-32.267-32.268-2.511 0-4.964.292-7.3.818 12.381 4.497 21.229 16.382 21.229 30.341 0 15.302-10.658 28.122-24.938 31.451 3.417 1.256 7.154 1.927 11.009 1.927 17.842-.001 32.267-14.456 32.267-32.269z" fill="#f5a96c" fill-rule="evenodd"/></g><g><path clip-rule="evenodd" d="m337.574 365.435c0-17.842-14.455-32.268-32.297-32.268-2.511 0-4.964.292-7.3.818 12.381 4.497 21.229 16.382 21.229 30.341 0 15.302-10.658 28.122-24.938 31.451 3.446 1.256 7.154 1.927 11.009 1.927 17.842-.001 32.297-14.456 32.297-32.269z" fill="#fe72c5" fill-rule="evenodd"/></g><g><path clip-rule="evenodd" d="m436.157 365.435c0-17.842-14.455-32.268-32.267-32.268-2.541 0-4.964.292-7.33.818 12.381 4.497 21.259 16.382 21.259 30.341 0 15.302-10.659 28.122-24.967 31.451 3.446 1.256 7.154 1.927 11.038 1.927 17.813-.001 32.267-14.456 32.267-32.269z" fill="#ce775f" fill-rule="evenodd"/></g><g><path clip-rule="evenodd" d="m184.355 295.642v-41.934h-91.634v20.032h67.776v21.902z" fill="#f5a96c" fill-rule="evenodd"/></g><g><path clip-rule="evenodd" d="m419.279 295.642v-41.934h-91.663v20.032h67.776v21.902z" fill="#f5a96c" fill-rule="evenodd"/></g><g><path clip-rule="evenodd" d="m471.9 238.318v-185.579c0-8.469-6.687-15.389-14.863-15.389h-57.439c8.176 0 14.863 6.921 14.863 15.389v24.734h17.316v136.111h-17.316v24.734c0 8.469-6.687 15.389-14.863 15.389h19.682 37.757c8.176.001 14.863-6.92 14.863-15.389z" fill="#2b4d66" fill-rule="evenodd"/></g><g><path clip-rule="evenodd" d="m431.777 213.584v-136.111h-16.645-22.105v136.111h22.105z" fill="#80b4fb" fill-rule="evenodd"/></g><g><path clip-rule="evenodd" d="m147.824 451.26h216.352v15.302h-216.352z" fill="#ce775f" fill-rule="evenodd"/></g><g><path clip-rule="evenodd" d="m104.051 474.242 43.773-7.68v-15.302l-8.235 1.46-35.538 6.191c-9.87 1.723-18.543-5.811-21.697-15.302-.818 2.453-1.256 5.052-1.256 7.651.001 12.644 10.513 25.143 22.953 22.982z" fill="#ffd064" fill-rule="evenodd"/></g><g><path clip-rule="evenodd" d="m364.176 466.562 43.744 7.68c12.44 2.161 22.981-10.338 22.981-22.982 0-9.695-6.191-19.303-14.688-22.281.263 1.46.409 2.979.409 4.468 0 12.644-10.512 25.143-22.952 22.982l-23.945-4.205-5.548-.964v15.302z" fill="#ffd064" fill-rule="evenodd"/></g></g></svg>