<svg id="Layer_1" enable-background="new 0 0 512 512" height="512" viewBox="0 0 512 512" width="512" xmlns="http://www.w3.org/2000/svg"><g><g><path clip-rule="evenodd" d="m146.395 260.22-14.017 21.535 14.017 22.21 65.79-4.935-35.421-268.66c-2.161-16.557-13.666-30.37-30.369-30.37l-14.017 134.954 14.017 75.418c13.754 0 24.909 11.155 24.909 24.909-.001 13.783-11.155 24.939-24.909 24.939z" fill="#dddaec" fill-rule="evenodd"/></g><g><path clip-rule="evenodd" d="m80.604 299.029 65.79 4.935v-43.744c-13.783 0-24.938-11.155-24.938-24.939 0-13.754 11.155-24.909 24.938-24.909v-210.372c-16.732 0-28.208 13.813-30.399 30.37z" fill="#f9f6f6" fill-rule="evenodd"/></g><path d="m480.808 0h-97.503-2.541-.234c-32.968.088-52.387 19.711-52.475 31.246v.088.117c.058 11.447 9.52 10.63 21.054 10.63h91.896c3.154 0 5.723 2.57 5.723 5.724v29.36h-118.672c-4.267 0-7.726 3.459-7.726 7.726s3.459 7.726 7.726 7.726h118.674v27.328h-118.674c-4.267 0-7.726 3.459-7.726 7.726s3.459 7.726 7.726 7.726h118.674v27.328h-118.674c-4.267 0-7.726 3.459-7.726 7.726s3.459 7.726 7.726 7.726h118.674v27.328h-118.674c-4.267 0-7.726 3.459-7.726 7.726s3.459 7.726 7.726 7.726h118.674v27.328h-118.674c-4.267 0-7.726 3.459-7.726 7.726s3.459 7.726 7.726 7.726h118.674v27.328h-118.674c-4.267 0-7.726 3.459-7.726 7.726s3.459 7.726 7.726 7.726h118.674v27.328h-118.674c-4.267 0-7.726 3.459-7.726 7.726s3.459 7.726 7.726 7.726h118.674v27.328h-118.674c-4.267 0-7.726 3.459-7.726 7.726s3.459 7.726 7.726 7.726h118.674v27.328h-118.674c-4.267 0-7.726 3.459-7.726 7.726s3.459 7.726 7.726 7.726h118.674v29.302c0 3.154-2.57 5.753-5.723 5.753h-91.897c-11.535 0-20.996-.847-21.054 10.63v.117.058c.088 11.447 19.039 30.721 51.336 31.275h101.416c15.302 0 27.8-12.528 27.8-27.83v-228.177-228.155c0-15.302-12.499-27.83-27.8-27.83z" fill="#ffbc85"/><g><path clip-rule="evenodd" d="m477.099 27.8v228.185 228.185c0 15.302-12.527 27.8-27.829 27.8h-70.463c.204.029.38.029.584.029h101.416c15.214 0 27.683-12.411 27.8-27.596v-.234-228.184-228.155-.234c-.116-15.185-12.585-27.596-27.799-27.596h-30.895c15.009.35 27.186 12.732 27.186 27.8z" fill="#f5a96c" fill-rule="evenodd"/></g><g><path clip-rule="evenodd" d="m38.7 439.783c-.263-45.146 17.258-61.383 55.336-65.967 9.49-1.168 17.083 2.949 17.054 14.367l-.088 44.241c-.087 59.602-72.01 55.951-72.302 7.359zm-35.304.205c.175 34.05 21.784 63.106 55.482 70.406 21.025 4.526 43.276-.672 59.892-14.367 19.127-15.769 27.537-39.248 27.566-63.544l.058-123.583v-4.935c0-2.716-2.219-4.935-4.935-4.935h-60.855-5.49c-2.716 0-4.935 2.219-4.935 4.935v38.43c-45.904 11.972-67.104 45.029-66.783 97.593z" fill="#9dc6fb" fill-rule="evenodd"/></g><g><path clip-rule="evenodd" d="m146.395 308.9.029 123.583c.029 24.296 8.468 47.775 27.595 63.544 16.616 13.696 38.867 18.894 59.863 14.367 33.727-7.301 55.307-36.357 55.512-70.406.292-52.564-20.879-85.62-66.813-97.593v-38.43c0-2.716-2.219-4.935-4.935-4.935h-5.461-60.855c-2.716 0-4.935 2.219-4.935 4.935zm35.275 79.283c0-11.418 7.563-15.535 17.054-14.367 38.078 4.585 55.599 20.821 55.336 65.967-.263 48.592-72.186 52.243-72.302-7.359z" fill="#9dc6fb" fill-rule="evenodd"/></g><g><path clip-rule="evenodd" d="m212.185 299.029h-11.914v50.695c54.227 11.214 67.105 37.7 66.813 90.264-.204 34.05-21.784 63.106-55.512 70.406-1.285.263-2.57.526-3.855.73 8.614 1.343 17.492 1.139 26.164-.73 33.727-7.301 55.307-36.357 55.512-70.406.292-52.564-20.879-85.62-66.813-97.593v-38.43c0-2.716-2.219-4.935-4.935-4.935h-5.46z" fill="#80b4fb" fill-rule="evenodd"/></g><g><path clip-rule="evenodd" d="m125.691 299.029-.029 127.759c-.029 24.296-8.439 47.775-27.566 63.544-16.616 13.696-38.896 11.564-59.921 7.008-4.117-.876-8.03-2.073-11.768-3.592 8.76 8.031 19.769 13.9 32.472 16.645 21.025 4.526 43.276-.672 59.892-14.367 19.127-15.769 27.537-39.248 27.566-63.544l.058-123.583v-4.935c0-2.716-2.219-4.935-4.935-4.935z" fill="#80b4fb" fill-rule="evenodd"/></g></g></svg>