<svg id="Layer_1" enable-background="new 0 0 512 512" height="512" viewBox="0 0 512 512" width="512" xmlns="http://www.w3.org/2000/svg"><g><g><path clip-rule="evenodd" d="m161.088 512c-18.34 0-36.057-7.776-49.709-20.507-43.358 23.504-100.189-.98-109.834-50.512-8.873-45.644 22.436-70.01 51.578-97.284 11.218-10.476 18.251-24.425 22.911-40.213 21.219-71.939-6.648-182.548 85.054-182.548s63.835 110.609 85.054 182.548c4.659 15.789 11.693 29.737 22.911 40.213 29.113 27.274 60.452 51.639 51.549 97.284-9.645 49.532-66.447 74.016-109.805 50.511-13.652 12.732-31.369 20.508-49.709 20.508z" fill="#ffdfcf" fill-rule="evenodd"/></g><g><path clip-rule="evenodd" d="m233.47 454.366c-4.066 14.483-12.168 27.274-22.673 37.127 11.366 6.173 23.682 9.022 35.82 9.022 7.627-8.814 13.503-19.35 16.767-30.984 1.573-5.372 5.193-9.616 9.793-12.109-1.068-7.716-6.499-14.453-14.423-16.798-10.802-3.174-22.109 2.969-25.284 13.742z" fill="#ffcebf" fill-rule="evenodd"/></g><g><path clip-rule="evenodd" d="m88.706 454.366c4.066 14.483 12.138 27.274 22.673 37.127-11.366 6.173-23.682 9.022-35.82 9.022-7.627-8.814-13.503-19.35-16.767-30.984-1.603-5.372-5.223-9.616-9.793-12.109 1.039-7.716 6.47-14.453 14.423-16.798 10.772-3.174 22.108 2.969 25.284 13.742z" fill="#ffcebf" fill-rule="evenodd"/></g><g><path clip-rule="evenodd" d="m121.528 141.592c91.702 0 63.835 110.609 85.054 182.518 4.659 15.818 22.08 40.124 33.268 50.601 29.143 27.274 60.482 51.639 51.578 97.284-1.246 6.44-3.324 12.465-6.024 18.014 17.45-10.12 30.953-27.125 35.197-49.028 8.903-45.644-22.436-70.01-51.549-97.284-11.218-10.476-18.251-24.425-22.911-40.213-21.219-71.939 6.648-182.548-85.054-182.548-24.869 0-40.954 8.132-51.578 21.427 3.74-.503 7.746-.771 12.019-.771z" fill="#ffcebf" fill-rule="evenodd"/></g><g><path d="m156.718 394.309c-1.462 0-2.94-.414-4.251-1.28-3.561-2.352-4.541-7.145-2.189-10.705l140.001-211.609c2.352-3.561 7.143-4.54 10.705-2.189 3.56 2.352 4.54 7.145 2.188 10.705l-140 211.609c-1.485 2.25-3.946 3.469-6.454 3.469z" fill="#365e7d"/></g><g><path clip-rule="evenodd" d="m388.294 247.393c68.316 0 123.693-55.379 123.693-123.697.001-67.754-54.457-122.776-121.971-123.696h-3.413c-67.545.92-122.002 55.942-122.002 123.697 0 68.377 55.436 123.696 123.693 123.696z" fill="#9dc6fb" fill-rule="evenodd"/></g><g><path clip-rule="evenodd" d="m388.294 210.652c48.017 0 86.953-38.937 86.953-86.956s-38.936-86.956-86.953-86.956-86.953 38.937-86.953 86.956 38.936 86.956 86.953 86.956z" fill="#ffdfcf" fill-rule="evenodd"/></g><g><path d="m383.02 136.579c-1.992 0-3.98-.768-5.489-2.302l-.029-.03c-2.991-3.043-2.95-7.935.094-10.927 3.041-2.99 7.934-2.95 10.927.094 2.991 3.043 2.964 7.95-.079 10.941-1.509 1.483-3.468 2.224-5.424 2.224z" fill="#ce775f"/></g><g><path d="m424.417 121.954c-1.154 0-2.326-.262-3.432-.814l-.059-.03c-3.816-1.908-5.363-6.549-3.455-10.366 1.907-3.816 6.548-5.365 10.366-3.455 3.816 1.908 5.393 6.564 3.485 10.381-1.356 2.711-4.076 4.284-6.905 4.284z" fill="#ce775f"/></g><g><path d="m425.747 166.065c-2.803 0-5.498-1.529-6.858-4.203l-.03-.059c-1.934-3.804-.419-8.455 3.385-10.389 3.803-1.934 8.455-.418 10.389 3.385 1.934 3.804.434 8.485-3.37 10.419-1.129.574-2.332.847-3.516.847z" fill="#ce775f"/></g><g><path d="m345.411 124.575c-2.84 0-5.565-1.57-6.904-4.296l-.029-.059c-1.882-3.83-.304-8.46 3.525-10.343 3.833-1.881 8.461-.302 10.342 3.526 1.882 3.83.319 8.49-3.511 10.372-1.104.542-2.273.8-3.423.8z" fill="#ce775f"/></g><g><path d="m383.056 89.504c-1.96 0-3.918-.747-5.42-2.248l-.059-.059c-3.017-3.017-3.017-7.909 0-10.927 3.018-3.017 7.909-3.017 10.928 0 3.017 3.017 3.046 7.939.029 10.956-1.516 1.515-3.498 2.278-5.478 2.278z" fill="#ce775f"/></g><g><path d="m382.537 176.949c-1.956 0-3.911-.737-5.417-2.216-3.043-2.991-3.085-7.883-.094-10.927 2.992-3.044 7.9-3.099 10.941-.108 3.043 2.991 3.1 7.868.109 10.911l-.029.03c-1.512 1.538-3.511 2.31-5.51 2.31z" fill="#ce775f"/></g><g><path clip-rule="evenodd" d="m511.988 123.697c0-67.755-54.458-122.777-121.972-123.697h-3.413c-1.217.03-2.404.059-3.591.089 15.284 11.218 28.43 25.968 38.55 43.24 31.517 13.058 53.686 44.131 53.686 80.367 0 34.189-19.735 63.777-48.462 77.993-8.784 17.777-20.625 33.298-34.692 45.644 66.564-1.987 119.894-56.594 119.894-123.636z" fill="#80b4fb" fill-rule="evenodd"/></g><g><path clip-rule="evenodd" d="m475.248 123.697c0-36.236-22.169-67.309-53.686-80.367 14.037 24.009 22.228 52.915 22.228 84.047 0 27.007-6.173 52.381-17.005 74.313 28.727-14.216 48.463-43.805 48.463-77.993z" fill="#ffcebf" fill-rule="evenodd"/></g></g></svg>