<svg id="Layer_1" enable-background="new 0 0 512 512" height="512" viewBox="0 0 512 512" width="512" xmlns="http://www.w3.org/2000/svg"><g><g><path clip-rule="evenodd" d="m15.157 173.227c38.841-38.959 151.071-80.634 206.792-94.798 1.811-1.489 3.621-2.92 5.461-4.351-18.136-95.849-233.134-74.501-212.253 99.149z" fill="#fe93d3" fill-rule="evenodd"/></g><g><path clip-rule="evenodd" d="m15.274 311.131c25.232-64.834 96.518-71.989 154.517-70.091-.642-76.078 27.656-77.888 52.158-162.611-8.44-4.001-18.106-6.396-28.883-6.629-85.129-2.015-149.874 41.616-177.909 101.427-9.17 19.597-14.398 40.887-15.157 62.907v10.689c.73 21.261 5.636 42.989 15.274 64.308z" fill="#fe93d3" fill-rule="evenodd"/></g><g><path clip-rule="evenodd" d="m15.274 311.131c25.232-64.834 84.224-96.317 142.251-94.418-.029-.526-.029-1.051-.029-1.548 0-15.332 1.957-30.197 5.607-44.391-61.123-3.096-123.765 22.867-162.928 79.524.292 5.432.847 10.864 1.723 16.325 2.307 14.837 6.717 29.789 13.376 44.508z" fill="#fe72c5" fill-rule="evenodd"/></g><g><path clip-rule="evenodd" d="m152.619 494.448c37.06 1.986 96.548-43.778 118.304-86.562 3.972-7.856 7.359-15.858 10.075-23.772-4.381-61.972-33.614-141.496-123.473-167.4-31.715-1.051-63.723 7.885-90.327 26.81-22.078 15.683-40.476 38.2-51.924 67.608 0 29.613-.058 21.115.204 25.32 0 21.086 6.366 46.873 18.836 71.434 21.728 42.785 81.245 88.548 118.305 86.562z" fill="#ffdfcf" fill-rule="evenodd"/></g><g><path clip-rule="evenodd" d="m152.619 494.448c37.06 1.986 96.548-43.778 118.304-86.562 3.972-7.856 7.359-15.858 10.075-23.772-14.485-4.614-28.152-11.039-40.768-18.983-2.103 5.286-4.468 10.572-7.126 15.8-21.728 42.785-81.245 88.548-118.304 86.562-12.382.672-27.247-4.001-42.404-12.091 25.845 23.276 57.327 40.273 80.223 39.046z" fill="#ffcebf" fill-rule="evenodd"/></g><g><path d="m177.242 427.531c-.658 0-1.326-.085-1.992-.262-12.282-3.268-33.037-3.268-45.321 0-4.123 1.096-8.357-1.355-9.455-5.48-1.097-4.124 1.356-8.357 5.481-9.454 14.936-3.975 38.334-3.974 53.27 0 4.124 1.097 6.577 5.33 5.481 9.454-.922 3.458-4.047 5.742-7.464 5.742z" fill="#fe93d3"/></g><g><path d="m91.233 324.831c-8.062 0-15.641-3.159-21.34-8.896-3.007-3.028-2.991-7.921.037-10.928 3.028-3.008 7.921-2.991 10.928.036 2.775 2.794 6.46 4.333 10.375 4.333s7.6-1.539 10.375-4.333c3.007-3.028 7.899-3.045 10.928-.036 3.029 3.007 3.045 7.9.037 10.928-5.699 5.736-13.278 8.896-21.34 8.896z" fill="#365e7d"/></g><g><path d="m66.964 372.8c-1.977 0-3.955-.755-5.465-2.263-3.018-3.018-3.018-7.911 0-10.928 3.019-3.018 7.94-3.047 10.958-.029s3.047 7.881.029 10.899l-.058.058c-1.509 1.508-3.487 2.263-5.464 2.263z" fill="#f5a96c"/></g><g><path d="m84.486 415.146c-1.977 0-3.955-.755-5.465-2.263-3.018-3.017-3.018-7.911 0-10.928 3.02-3.017 7.926-3.032 10.943-.015s3.033 7.896.015 10.913l-.029.029c-1.508 1.509-3.487 2.264-5.464 2.264z" fill="#f5a96c"/></g><g><path d="m126.715 372.829c-1.977 0-3.955-.755-5.465-2.263-3.018-3.018-3.018-7.911 0-10.928 3.02-3.016 7.926-3.033 10.943-.015 3.018 3.018 3.033 7.896.015 10.913l-.029.029c-1.508 1.509-3.487 2.264-5.464 2.264z" fill="#f5a96c"/></g><g><path d="m124.846 271.635c-1.977 0-3.955-.755-5.465-2.263-3.018-3.017-3.018-7.911 0-10.928 3.019-3.018 7.94-3.047 10.958-.029s3.047 7.881.029 10.899l-.058.058c-1.509 1.508-3.487 2.263-5.464 2.263z" fill="#f5a96c"/></g><g><path clip-rule="evenodd" d="m280.998 384.113c16.967 5.374 35.015 8.294 53.735 8.294 97.891.001 177.267-79.377 177.267-177.242 0-97.894-79.376-177.271-177.267-177.271-40.33 0-77.536 13.492-107.324 36.184-1.84 1.431-3.65 2.862-5.461 4.351-21.465 17.727-38.695 40.419-49.909 66.323-9.345 21.582-14.543 45.384-14.543 70.412l.029 1.548c.672 78.474 52.333 144.768 123.473 167.401z" fill="#4fc9af" fill-rule="evenodd"/></g><g><path clip-rule="evenodd" d="m205.478 226.205h265.871c.292-3.651.438-7.33.438-11.039 0-75.698-61.357-137.057-137.053-137.057-31.277 0-60.101 10.484-83.172 28.095-32.737 25.057-53.852 64.542-53.852 108.962 0 1.665.029 3.359.088 5.023.029 1.139.088 2.278.146 3.417.058.876.117 1.723.204 2.599z" fill="#9dc6fb" fill-rule="evenodd"/></g><g><path clip-rule="evenodd" d="m198.147 226.205c4.381 54.963 41.206 100.785 91.291 118.337 14.193 4.965 29.437 7.652 45.295 7.652 71.987 0 130.979-55.459 136.615-125.988h-68.775c-31.774 0-31.598-49.794-69.184-49.794-13.667 0-22.341 6.571-29.379 14.924-12.324 14.69-19.596 34.87-39.805 34.87h-58.729-7.329z" fill="#ffdfcf" fill-rule="evenodd"/></g><g><path clip-rule="evenodd" d="m334.733 268.259c11.857 0 21.465-12.178 21.465-27.219 0-15.04-9.608-27.248-21.465-27.248-11.828 0-21.436 12.208-21.436 27.248.001 15.041 9.609 27.219 21.436 27.219z" fill="#f5a96c" fill-rule="evenodd"/></g><g><path clip-rule="evenodd" d="m471.786 215.165c0-62.907-42.375-115.913-100.11-132.034 27.714 29.73 45.032 72.106 45.032 119.154 0 8.119-.526 16.121-1.519 23.919h56.159c.292-3.65.438-7.33.438-11.039z" fill="#80b4fb" fill-rule="evenodd"/></g><g><path clip-rule="evenodd" d="m334.733 352.193c71.987 0 130.979-55.459 136.615-125.988h-56.158c-7.272 56.832-40.068 104.114-84.516 125.93 1.343.058 2.716.058 4.059.058z" fill="#ffcebf" fill-rule="evenodd"/></g><g><path clip-rule="evenodd" d="m512 215.165c0-70.412-41.06-131.216-100.519-159.836 14.076 22.663 24.56 47.837 30.664 74.676 18.574 23.393 29.642 52.977 29.642 85.16 0 3.709-.146 7.389-.438 11.039-3.913 49.239-33.906 91.147-76.134 111.97-16.909 21.29-37.264 39.66-60.218 54.233 97.773-.145 177.003-79.436 177.003-177.242z" fill="#26bb9e" fill-rule="evenodd"/></g><g><path d="m184.749 380.949c-2.834 0-5.564-1.565-6.917-4.273-1.909-3.817-.361-8.459 3.455-10.367 3.817-1.91 8.487-.377 10.397 3.441 1.909 3.817.39 8.444-3.426 10.353l-.058.029c-1.11.554-2.29.817-3.451.817z" fill="#f5a96c"/></g><g><path d="m334.733 148.275c-4.268 0-7.727-3.46-7.727-7.727v-14.223c0-4.268 3.459-7.727 7.727-7.727s7.727 3.46 7.727 7.727v14.223c.001 4.267-3.458 7.727-7.727 7.727z" fill="#365e7d"/></g><g><path d="m298.842 163.14c-1.977 0-3.955-.755-5.465-2.263l-10.047-10.047c-3.018-3.018-3.018-7.911 0-10.928 3.019-3.018 7.911-3.018 10.929 0l10.047 10.047c3.018 3.018 3.018 7.911 0 10.928-1.508 1.509-3.487 2.263-5.464 2.263z" fill="#365e7d"/></g><g><path d="m370.654 163.14c-1.977 0-3.955-.754-5.464-2.263-3.019-3.018-3.019-7.911-.001-10.929l10.046-10.047c3.019-3.018 7.912-3.018 10.928-.001 3.019 3.018 3.019 7.911.001 10.929l-10.046 10.047c-1.509 1.51-3.487 2.264-5.464 2.264z" fill="#365e7d"/></g><g><path clip-rule="evenodd" d="m15.157 173.227c28.035-59.81 92.78-103.442 177.909-101.427 10.776.234 20.443 2.628 28.883 6.629 1.811-1.489 3.621-2.92 5.461-4.351-2.599-13.668-9.17-24.941-18.515-33.76-2.015-.146-4.059-.263-6.162-.321-76.835-1.811-140.587 25.758-183.692 69.215-5.111 18.427-6.805 39.747-3.884 64.015z" fill="#fe72c5" fill-rule="evenodd"/></g></g></svg>