<svg id="Layer_1" enable-background="new 0 0 512 512" height="512" viewBox="0 0 512 512" width="512" xmlns="http://www.w3.org/2000/svg"><g><g><path clip-rule="evenodd" d="m23.508 207.742h23.478l24.096-53.063-24.096-48.709h-23.478c-12.937 0-23.508 10.572-23.508 23.509v54.755c0 12.937 10.571 23.508 23.508 23.508z" fill="#f9f6f6" fill-rule="evenodd"/></g><g><path clip-rule="evenodd" d="m501.283 247.458c5.636 1.343 10.542-4.614 10.717-10.425v-160.353c-.175-5.811-5.081-11.769-10.717-10.396l-44.3 10.747-29.63 74.235 29.63 85.447z" fill="#f9f6f6" fill-rule="evenodd"/></g><g><path clip-rule="evenodd" d="m155.326 480.643h78.32c27.976 0 32.122-25.465 8.293-34.635-12.294-4.731-23.478-7.184-26.048-21.581l-16.295-90.412-9.753-54.259c-9.733-23.508-38.863-38.522-48.88-38.522-28.852 0-31.5 1.187-55.839 15.014l12.323 70.642 56.174 34.049-39.617 60.978 4.468 25.64c6.746 26.807 23.421 32.093 36.854 33.086z" fill="#365e7d" fill-rule="evenodd"/></g><g><path clip-rule="evenodd" d="m236.683 265.126c34.663-13.609 71.779-29.991 133.979-28.414h86.321v-159.682h-86.321c-104.748 2.658-138.301-45.673-208.912-45.673-51.191 0-95.228 30.663-114.764 74.613v101.772c19.536 43.95 63.573 74.643 114.764 74.643 10.016 0 19.273-.993 28.092-2.628 16.471-3.096 31.422-8.586 46.841-14.631z" fill="#9dc6fb" fill-rule="evenodd"/></g><g><path clip-rule="evenodd" d="m139.089 417.74c13.083-2.161 21.872-14.835 19.595-27.918l-8.323-47.484c-2.307-13.083-14.835-21.785-27.917-19.595l-24.997 4.147 16.558 95.026z" fill="#9dc6fb" fill-rule="evenodd"/></g><g><path clip-rule="evenodd" d="m209.612 334.015c14.893 0 27.07-12.207 27.07-27.1v-41.789c-15.419 6.045-30.37 11.535-46.84 14.631l9.753 54.259h10.017z" fill="#ffe07d" fill-rule="evenodd"/></g><g><path clip-rule="evenodd" d="m370.662 236.712h86.321v-30.984h-86.321c-91.14-2.307-145.426 47.601-215.453 47.601-51.22 0-88.687-37.234-108.223-81.184v35.598c8.527 19.186 21.726 35.832 38.138 48.506 21.201 16.383 47.775 26.137 76.626 26.137 10.016 0 19.273-.993 28.092-2.628 16.47-3.096 31.421-8.586 46.84-14.631 34.664-13.61 71.78-29.992 133.98-28.415z" fill="#80b4fb" fill-rule="evenodd"/></g><g><path clip-rule="evenodd" d="m501.283 247.458c5.636 1.343 10.542-4.614 10.717-10.425v-30.955c-.175 5.811-5.081 11.769-10.717 10.396l-44.3-10.747v30.984z" fill="#dddaec" fill-rule="evenodd"/></g><g><path clip-rule="evenodd" d="m46.986 207.742v-30.196h-23.478c-12.937 0-23.508-10.571-23.508-23.508v30.196c0 12.937 10.571 23.508 23.508 23.508z" fill="#dddaec" fill-rule="evenodd"/></g><g><path clip-rule="evenodd" d="m215.891 424.428-16.295-90.412-4.526-25.144-5.227-29.115c-8.819 1.635-18.076 2.628-28.092 2.628-28.852 0-55.426-9.754-76.626-26.137l5.432 31.159c23.77 13.112 50.315 19.157 77.385 18.719l25.844 143.649c2.599 14.397 27.538 26.107 39.861 30.867 27.976 0 32.122-25.465 8.293-34.635-12.295-4.729-23.479-7.182-26.049-21.579z" fill="#2b4d66" fill-rule="evenodd"/></g><g><path clip-rule="evenodd" d="m234.96 156.871c0 40.242-32.648 72.861-72.888 72.861-40.211 0-72.859-32.62-72.859-72.861s32.647-72.861 72.859-72.861c40.24 0 72.888 32.619 72.888 72.861z" fill="#dddaec" fill-rule="evenodd"/></g><g><path d="m388.008 129.028h-103.2c-4.268 0-7.726-3.459-7.726-7.726s3.459-7.726 7.726-7.726h103.2c4.268 0 7.726 3.459 7.726 7.726s-3.458 7.726-7.726 7.726z" fill="#365e7d"/></g><g><path d="m401.674 164.597h-116.866c-4.268 0-7.726-3.459-7.726-7.726s3.459-7.726 7.726-7.726h116.866c4.268 0 7.726 3.459 7.726 7.726s-3.458 7.726-7.726 7.726z" fill="#365e7d"/></g><g><path d="m388.008 200.167h-103.2c-4.268 0-7.726-3.459-7.726-7.726s3.459-7.726 7.726-7.726h103.2c4.268 0 7.726 3.459 7.726 7.726s-3.458 7.726-7.726 7.726z" fill="#365e7d"/></g><g><path clip-rule="evenodd" d="m225.206 120.426c-11.885-20.53-33.524-34.751-58.579-36.299 11.681 9.14 20.471 21.756 24.88 36.299 2.015 6.687 3.095 13.755 3.095 21.114 0 5.257-.555 10.367-1.635 15.331-3.008 14.076-10.075 26.633-19.945 36.416-13.17 13.054-31.305 21.114-51.279 21.114-1.548 0-3.037-.058-4.556-.146 12.382 9.695 27.976 15.478 44.884 15.478 26.983 0 50.52-14.66 63.135-36.445 6.191-10.717 9.753-23.158 9.753-36.416.001-13.288-3.562-25.729-9.753-36.446z" fill="#d0cee7" fill-rule="evenodd"/></g><g><path d="m162.071 237.458c-44.435 0-80.586-36.151-80.586-80.588s36.151-80.588 80.586-80.588c44.451 0 80.615 36.151 80.615 80.588s-36.164 80.588-80.615 80.588zm0-145.722c-35.914 0-65.133 29.219-65.133 65.135s29.218 65.135 65.133 65.135c35.931 0 65.162-29.219 65.162-65.135s-29.231-65.135-65.162-65.135z" fill="#365e7d"/></g><g><path d="m234.96 164.597h-145.748c-4.268 0-7.726-3.459-7.726-7.726s3.459-7.726 7.726-7.726h145.748c4.268 0 7.726 3.459 7.726 7.726s-3.459 7.726-7.726 7.726z" fill="#365e7d"/></g><g><path d="m225.206 201.013h-126.24c-4.268 0-7.726-3.459-7.726-7.726s3.459-7.726 7.726-7.726h126.24c4.268 0 7.726 3.459 7.726 7.726.001 4.267-3.458 7.726-7.726 7.726z" fill="#365e7d"/></g><g><path d="m225.206 128.152h-126.24c-4.268 0-7.726-3.459-7.726-7.726s3.459-7.726 7.726-7.726h126.24c4.268 0 7.726 3.459 7.726 7.726s-3.458 7.726-7.726 7.726z" fill="#365e7d"/></g></g></svg>