<svg id="Layer_1" enable-background="new 0 0 512 512" height="512" viewBox="0 0 512 512" width="512" xmlns="http://www.w3.org/2000/svg"><g><g><path clip-rule="evenodd" d="m84.271 500.669c39.066-18.009 61.994-52.559 93.666-96.114l-27.559-40.448-42.95-30.034c-43.554 31.674-78.103 54.573-96.083 93.64-31.269 67.893 5.035 104.198 72.926 72.956z" fill="#365e7d" fill-rule="evenodd"/></g><g><path clip-rule="evenodd" d="m209.696 362.496c28.192-34.896 42.288-40.764 89.783-51.869 35.413-8.285 69.185-6.473 92.544-29.833l49.998-49.999c-25.66 25.489-67.517 25.431-93.091-.173l-67.574-67.547c-25.66-25.661-25.66-67.634 0-93.266l-50.17 50.172c-23.33 23.331-21.518 57.105-29.832 92.547-11.104 47.496-16.973 61.564-51.867 89.756l16.599 42.433z" fill="#365e7d" fill-rule="evenodd"/></g><g><path clip-rule="evenodd" d="m84.271 500.669c39.066-18.009 61.994-52.559 93.666-96.114l-25.689-25.69c-31.673 43.555-54.572 78.105-93.666 96.114-23.186 10.673-42.662 13.463-57.074 9.81 7.047 27.733 38.058 36.449 82.763 15.88z" fill="#2b4d66" fill-rule="evenodd"/></g><g><path clip-rule="evenodd" d="m209.696 362.496c28.192-34.896 42.288-40.764 89.783-51.869 35.413-8.285 69.185-6.473 92.544-29.833l49.998-49.999c-18.123 18.009-44.302 23.245-67.143 15.794l-8.544 8.515c-23.359 23.36-57.132 21.547-92.544 29.832-47.495 11.133-61.562 16.973-89.783 51.869z" fill="#2b4d66" fill-rule="evenodd"/></g><g><path clip-rule="evenodd" d="m187.517 391.466c8.515-11.45 15.736-20.972 22.18-28.969l-60.21-60.212c-7.997 6.473-17.519 13.665-28.969 22.18-4.43 3.308-8.803 6.502-13.089 9.609l70.509 70.482c3.106-4.287 6.299-8.631 9.579-13.09z" fill="#f9f6f6" fill-rule="evenodd"/></g><g><path clip-rule="evenodd" d="m209.696 362.496-25.689-25.69c-6.444 7.998-13.664 17.52-22.18 28.998-3.279 4.43-6.473 8.803-9.58 13.061l25.689 25.69c3.107-4.286 6.3-8.63 9.58-13.09 8.516-11.449 15.736-20.971 22.18-28.969z" fill="#dddaec" fill-rule="evenodd"/></g><path d="m509.77 163.044c-2.972-2.971-7.792-2.972-10.764.001l-16.165 16.165-20.508-20.509c-2.972-2.972-7.791-2.973-10.764-.001-2.972 2.972-2.973 7.792 0 10.764l20.509 20.51-35.266 35.267c-10.973 10.973-25.626 17.017-41.261 17.017-15.633 0-30.277-6.042-41.24-17.018l-67.574-67.546c-10.973-10.973-17.015-25.627-17.015-41.262 0-15.633 6.042-30.279 17.015-41.241l35.294-35.296 20.509 20.51c1.486 1.486 3.434 2.229 5.382 2.229s3.896-.743 5.382-2.229c2.973-2.973 2.973-7.792 0-10.765l-20.509-20.509 16.136-16.137c2.973-2.972 2.973-7.791 0-10.764-2.972-2.971-7.792-2.972-10.764.001l-62.192 62.193c-13.85 13.835-21.477 32.305-21.477 52.008 0 19.701 7.626 38.176 21.475 52.027l67.571 67.543c13.834 13.851 32.304 21.479 52.006 21.479 19.701 0 38.177-7.626 52.025-21.476l62.195-62.197c2.973-2.972 2.973-7.791 0-10.764z" fill="#dddaec"/><g><path d="m256.357 200.175h-.057c-4.204 0-7.612-3.407-7.612-7.611s3.408-7.611 7.612-7.611 7.64 3.407 7.64 7.611-3.38 7.611-7.583 7.611z" fill="#dddaec"/></g><g><path d="m287.914 231.734h-.057c-4.204 0-7.611-3.407-7.611-7.611s3.408-7.611 7.611-7.611 7.64 3.407 7.64 7.611-3.379 7.611-7.583 7.611z" fill="#dddaec"/></g><g><path d="m319.443 263.263h-.057c-4.204 0-7.612-3.407-7.612-7.611s3.408-7.611 7.612-7.611 7.64 3.407 7.64 7.611-3.379 7.611-7.583 7.611z" fill="#dddaec"/></g><g><path d="m250.603 237.487h-.057c-4.204 0-7.611-3.407-7.611-7.611s3.408-7.611 7.611-7.611c4.204 0 7.64 3.407 7.64 7.611s-3.379 7.611-7.583 7.611z" fill="#dddaec"/></g><g><path d="m282.161 269.017h-.086c-4.204 0-7.612-3.407-7.612-7.611s3.408-7.611 7.612-7.611 7.655 3.407 7.655 7.611-3.365 7.611-7.569 7.611z" fill="#dddaec"/></g><g><path clip-rule="evenodd" d="m389.693 28.988c-4.315-4.344-11.392-4.344-15.707 0l-26.063 26.035-26.063 26.064c-4.315 4.344-4.315 11.421 0 15.736 31.097 31.098 62.195 62.197 93.292 93.295 4.344 4.344 11.421 4.344 15.736 0l26.063-26.035 26.063-26.064c4.315-4.344 4.315-11.421 0-15.736-31.097-31.099-62.195-62.197-93.321-93.295z" fill="#fe93d3" fill-rule="evenodd"/></g><g><path clip-rule="evenodd" d="m357.1 100.361-19.389-19.39c-4.315-4.315-4.315-11.392 0-15.736l-15.851 15.852c-4.315 4.344-4.315 11.421 0 15.736l19.389 19.39z" fill="#fe72c5" fill-rule="evenodd"/></g><g><path clip-rule="evenodd" d="m351.602 102.639h22.417v38.568h-22.417z" fill="#fe72c5" fill-rule="evenodd" transform="matrix(.707 -.707 .707 .707 20.05 292.251)"/></g><g><path clip-rule="evenodd" d="m378.859 129.917h22.417v38.527h-22.417z" fill="#fe72c5" fill-rule="evenodd" transform="matrix(.707 -.707 .707 .707 8.759 319.508)"/></g><g><path clip-rule="evenodd" d="m430.888 190.118 15.851-15.851c-4.315 4.344-11.392 4.344-15.736 0l-19.389-19.39-15.851 15.851 19.389 19.39c4.344 4.344 11.421 4.344 15.736 0z" fill="#fe72c5" fill-rule="evenodd"/></g><g><path d="m333.482 131.592c-1.948 0-3.896-.743-5.383-2.23-2.972-2.973-2.971-7.793.002-10.764l83.396-83.371c2.973-2.971 7.792-2.972 10.765.001 2.972 2.973 2.971 7.793-.002 10.764l-83.396 83.371c-1.487 1.485-3.435 2.229-5.382 2.229z" fill="#dddaec"/></g><g><path d="m360.753 158.863c-1.947 0-3.895-.742-5.381-2.228-2.973-2.972-2.974-7.792-.002-10.765l83.368-83.398c2.972-2.973 7.792-2.973 10.764-.002 2.973 2.972 2.974 7.792.002 10.765l-83.368 83.398c-1.486 1.487-3.435 2.23-5.383 2.23z" fill="#dddaec"/></g><g><path d="m387.996 186.107c-1.948 0-3.896-.743-5.383-2.23-2.972-2.973-2.971-7.793.002-10.764l83.396-83.37c2.973-2.971 7.791-2.972 10.764.001 2.972 2.973 2.971 7.793-.002 10.764l-83.396 83.37c-1.486 1.486-3.434 2.229-5.381 2.229z" fill="#dddaec"/></g></g></svg>