<svg id="Layer_1" enable-background="new 0 0 512 512" height="512" viewBox="0 0 512 512" width="512" xmlns="http://www.w3.org/2000/svg"><g><g><path clip-rule="evenodd" d="m199.954 194.211c-69.75-13.528-165.456 30.922-178.359 120.891.03 31.784-.059 22.656.238 27.175 0 22.626 6.838 50.337 20.217 76.709 12.963 25.54 38.473 52.031 65.379 70.198 21.526 14.539 43.973 23.697 61.663 22.745 17.512.951 39.662-8.028 60.949-22.269 27.204-18.166 53.011-44.925 66.093-70.674 6.511-12.785 11.447-25.897 14.836-38.563 3.598-13.498 5.411-26.491 5.411-38.147.268-4.519.208 4.608.208-27.175-16.202-64.904-67.221-111.316-116.635-120.89z" fill="#ffeee6" fill-rule="evenodd"/></g><g><path clip-rule="evenodd" d="m150.63 0c-67.61 4.014-142.355 57.116-129.124 167.006 31.932-29.732 154.782-75.342 229.021-98.057-3.121-42.576-40.018-66.303-83.426-68.949z" fill="#fe93d3" fill-rule="evenodd"/></g><g><path clip-rule="evenodd" d="m285.938 135.163c-74.626 2.527-85.181 55.897-85.983 81.407 49.414 9.574 94.784 42.428 116.637 98.533 39.958-64.371 33.952-138.404-30.654-179.94z" fill="#fe4eb7" fill-rule="evenodd"/></g><g><path clip-rule="evenodd" d="m296.135 418.987c6.511-12.785 11.447-25.897 14.836-38.563 3.598-13.498 5.411-26.491 5.411-38.147.268-4.519.208 4.608.208-27.175-21.853-56.105-67.223-88.959-116.637-98.533-20.069-3.895-40.821-3.954-60.92-.178 5.203.505 10.376 1.249 15.52 2.26 58.184 11.269 120.561 61.635 116.399 125.708 0 60.059-37.729 114.915-86.31 147.383-11.655 7.79-23.577 14.004-34.845 17.899 6.838 1.784 13.349 2.616 19.296 2.289 17.512.951 39.662-8.028 60.949-22.269 27.205-18.167 53.012-44.926 66.093-70.674z" fill="#ffdfcf" fill-rule="evenodd"/></g><g><path clip-rule="evenodd" d="m21.506 167.006c30.088-64.222 99.63-111.11 191.025-108.939 7.165.178 13.885 1.219 20.128 3.003 6.511 1.873 12.457 4.549 17.869 7.879-.892-12.101-4.519-22.715-10.257-31.724-8.652-3.062-18.285-4.846-28.81-5.084-82.802-1.784-149.252 29.94-188.438 77.304-3.361 17.096-4.104 36.243-1.517 57.561z" fill="#fe72c5" fill-rule="evenodd"/></g><g><path clip-rule="evenodd" d="m288.494 399.602 11.803-48.285-11.803-58.067h-18.761c-3.181 0-6.184.803-8.801 2.2-5.917 3.181-9.96 9.425-9.96 16.561v68.83c0 7.225 4.133 13.528 10.168 16.65 2.587 1.338 5.5 2.111 8.592 2.111z" fill="#f9f6f6" fill-rule="evenodd"/></g><g><path clip-rule="evenodd" d="m418.034 396.004 6.303-51.764-6.303-47.393h-71.682l-8.414 49.564 8.414 49.593z" fill="#365e7d" fill-rule="evenodd"/></g><g><path clip-rule="evenodd" d="m495.961 374.746c6.006 0 10.911-4.906 10.911-10.912v-34.816c0-6.006-4.906-10.912-10.911-10.912h-29.137l-9.871 28.305 9.871 28.335z" fill="#365e7d" fill-rule="evenodd"/></g><g><path clip-rule="evenodd" d="m288.494 397.877v-21.705h-18.761c-.743 0-1.516-.059-2.26-.149-2.26-.268-4.4-.951-6.333-1.962-6.035-3.122-10.168-9.455-10.168-16.68v23.459c0 7.225 4.133 13.528 10.168 16.65 2.587 1.338 5.5 2.111 8.592 2.111h18.761v-1.724z" fill="#dddaec" fill-rule="evenodd"/></g><g><path clip-rule="evenodd" d="m346.352 396.004h71.682v-23.429h-71.682v14.807z" fill="#2b4d66" fill-rule="evenodd"/></g><g><path clip-rule="evenodd" d="m495.961 374.746c6.006 0 10.911-4.906 10.911-10.912v-23.429c0 6.006-4.906 10.912-10.911 10.912h-29.137v23.429z" fill="#2b4d66" fill-rule="evenodd"/></g><g><path clip-rule="evenodd" d="m346.352 396.004v-99.157-14.836c0-5.857-4.519-9.217-9.96-11.209-11.179-4.163-24.439-7.582-36.005-11.15-5.203-1.606-9.99 3.181-11.447 8.622-.268 1.07-.446 2.17-.446 3.241v21.734 106.352 21.705c0 2.527.832 5.114 2.23 7.284 2.2 3.479 5.827 5.798 9.663 4.609l34.102-10.495c6.244-1.933 11.863-5.352 11.863-11.863z" fill="#ffe07d" fill-rule="evenodd"/></g><g><path clip-rule="evenodd" d="m300.387 433.199 34.102-10.495c6.244-1.933 11.863-5.352 11.863-11.863v-14.836-8.622c0 6.541-5.619 9.96-11.863 11.893l-33.924 10.436c-9.217 2.825-10.109-7.344-12.071-11.833v23.429c0 2.527.832 5.114 2.23 7.284 2.2 3.477 5.828 5.796 9.663 4.607z" fill="#ffd064" fill-rule="evenodd"/></g><g><path clip-rule="evenodd" d="m466.824 374.746v-56.64c0-11.685-9.573-21.259-21.258-21.259h-27.531v99.157h27.531c11.684 0 21.258-9.574 21.258-21.258z" fill="#ffe07d" fill-rule="evenodd"/></g><g><path clip-rule="evenodd" d="m445.566 396.004c11.685 0 21.258-9.574 21.258-21.259v-23.429c0 11.685-9.573 21.259-21.258 21.259h-27.531v23.429z" fill="#ffd064" fill-rule="evenodd"/></g><g><path clip-rule="evenodd" d="m285.943 135.161c-.271 53.017-36.517 88.962-85.987 81.409-69.747-13.525-147.504 19.299-178.362 98.534-16.656-36.86-20.173-74.896-12.817-110.04 2.58-12.318 6.502-24.282 11.652-35.716.354-.78.718-1.561 1.082-2.341 30.088-64.222 99.626-111.112 191.023-108.937 14.659.354 27.414 4.338 37.994 10.882 22.535 13.972 35.227 39.544 35.415 66.209z" fill="#fe93d3" fill-rule="evenodd"/></g><g><path clip-rule="evenodd" d="m21.595 315.103c21.972-56.432 67.728-89.316 117.439-98.711 20.098-3.776 40.851-3.717 60.92.178 49.473 7.552 85.716-28.394 85.983-81.407-.149-21.556-8.473-42.368-23.547-56.937 1.07 5.292 1.665 10.733 1.695 16.234-.268 53.013-36.51 88.959-85.983 81.407-65.291-12.667-137.598 15.311-171.878 83.934 2.081 18.374 7.106 36.987 15.371 55.302z" fill="#fe72c5" fill-rule="evenodd"/></g><g><path d="m175.578 407.404c-2.174 0-4.337-.903-5.88-2.67-28.098-32.167-28.097-84.484.003-116.62 2.836-3.246 7.766-3.574 11.01-.739 3.245 2.837 3.575 7.766.738 11.01-23.149 26.476-23.148 69.579.003 96.083 2.835 3.245 2.502 8.175-.743 11.009-1.481 1.293-3.31 1.927-5.131 1.927z" fill="#9dc6fb"/></g><g><path d="m211.374 390.487c-2.174 0-4.336-.903-5.879-2.668-19.96-22.841-19.958-59.981.004-82.791 2.839-3.244 7.769-3.57 11.011-.733 3.243 2.838 3.571 7.767.733 11.01-15.006 17.147-15.005 45.069.004 62.244 2.836 3.245 2.504 8.175-.741 11.01-1.48 1.294-3.31 1.928-5.132 1.928z" fill="#9dc6fb"/></g><g><path d="m200.934 136.056c-.874 4.224-4.994 6.939-9.218 6.065-63.078-13.025-137.204 8.75-172.411 50.656-1.176 1.405-6.908 8.864-10.529 12.287 2.58-12.318 6.502-24.282 11.652-35.716 18.3-16.282 42.541-29.297 70.007-37.401 34.301-10.112 71.39-11.933 104.433-5.108 4.224.873 6.94 4.993 6.066 9.217z" fill="#fe4eb7"/></g></g></svg>