<svg id="Layer_1" enable-background="new 0 0 512 512" height="512" viewBox="0 0 512 512" width="512" xmlns="http://www.w3.org/2000/svg"><g><g><path clip-rule="evenodd" d="m281.755 292.635v67.928c0 3.679 24.972 21.817 28.33 22.664 26.369 6.746 58.294 24.724 87.658 11.118-9.549-10.016-10.337-26.983-1.723-38.138 9.403-12.236 7.154-29.757-5.052-39.189-12.206-9.403-14.455-26.953-5.052-39.16 9.403-12.177 7.184-29.669-4.964-39.101-108.307-7.366-102.847 17.243-99.197 53.878z" fill="#2b4d66" fill-rule="evenodd"/></g><g><path clip-rule="evenodd" d="m130.406 277.859c9.403 12.206 7.154 29.757-5.052 39.16-12.206 9.432-14.455 26.953-5.052 39.189 8.614 11.155 11.737 41.354-1.723 38.138 44.006 10.516 96.597-17.25 122.966-23.995 3.329-.847 11.364-95.292-41.69-122.575-6.587-3.387-21.119-12.651-45.328-12.379-2.85.032-17.405 5.61-19.157 3.361-12.148 9.432-14.367 26.924-4.964 39.101z" fill="#2b4d66" fill-rule="evenodd"/></g><g><path clip-rule="evenodd" d="m299.305 325.721c-32.092-7.622-54.285-9.929-82.289 0v23.916c0 3.679-2.015 5.227-5.344 6.074-26.369 6.746-67.834 16.908-93.093 38.634-.876.934-1.84 1.811-2.891 2.599-10.717 10.133-17.93 22.661-18.864 38.284l-3.475 67.924c-.409 7.038 1.343 8.848 8.673 8.848h312.277c7.329 0 9.082-1.811 8.673-8.848l-3.475-67.924c-.934-15.623-8.176-28.151-18.864-38.284-1.051-.788-2.015-1.665-2.891-2.599-25.259-21.726-66.725-31.889-93.093-38.634-3.358-.847-5.344-2.395-5.344-6.074z" fill="#ffbc85" fill-rule="evenodd"/></g><g><path clip-rule="evenodd" d="m458.276 137.602c-13.345 0-24.179 10.834-24.179 24.179s10.834 24.15 24.179 24.15 24.149-10.805 24.149-24.15c.001-13.345-10.804-24.179-24.149-24.179z" fill="#f9f6f6" fill-rule="evenodd"/></g><g><path clip-rule="evenodd" d="m466.57 21.904c-17.929 0-32.472 14.513-32.472 32.443s14.542 32.443 32.472 32.443c17.9 0 32.443-14.513 32.443-32.443-.001-17.93-14.543-32.443-32.443-32.443z" fill="#f9f6f6" fill-rule="evenodd"/></g><g><path clip-rule="evenodd" d="m81.581 15.742c-13.17 0-23.828 10.659-23.828 23.829 0 13.141 10.658 23.829 23.828 23.829 13.141 0 23.828-10.688 23.828-23.829.001-13.17-10.687-23.829-23.828-23.829z" fill="#f9f6f6" fill-rule="evenodd"/></g><g><path clip-rule="evenodd" d="m36.816 123.935c-13.17 0-23.828 10.659-23.828 23.829s10.658 23.829 23.828 23.829c13.141 0 23.828-10.659 23.828-23.829s-10.687-23.829-23.828-23.829z" fill="#f9f6f6" fill-rule="evenodd"/></g><g><path clip-rule="evenodd" d="m278.105 354.777v-17.784c-7.154 2.745-13.958 4.147-19.944 3.826-11.038.613-24.879-4.702-38.4-13.316-.905-.584-1.81-1.168-2.745-1.781v19.332c14.63 8.498 29.23 13.521 41.144 12.878 6.075.32 12.82-.819 19.945-3.155z" fill="#f5a96c" fill-rule="evenodd"/></g><g><path clip-rule="evenodd" d="m397.742 394.345c-25.259-21.726-66.725-31.889-93.093-38.634-3.358-.847-5.344-2.395-5.344-6.074v-23.916c-7.096 4.731-14.309 8.615-21.2 11.272-7.154 2.745-13.958 4.147-19.944 3.826-11.038.613-24.879-4.702-38.4-13.316-.905-.584-1.81-1.168-2.745-1.781v19.332c14.63 8.498 29.23 13.521 41.144 12.878 4.526.234 9.461-.263 14.63-1.606 1.869-.496 4.964-2.862 5.49 3.271.555 6.483 3.212 11.155 18.163 15.127 25.639 6.746 58.665 16.85 80.099 35.276.876.934 1.84 1.811 2.891 2.599 10.717 10.133 17.93 22.661 18.864 38.284l3.125 61.12h12.878c7.329 0 9.082-1.811 8.673-8.848l-3.475-67.924c-.934-15.623-8.176-28.151-18.864-38.284-1.052-.791-2.016-1.667-2.892-2.602z" fill="#f5a96c" fill-rule="evenodd"/></g><g><path clip-rule="evenodd" d="m141.707 197.962c-18.28 0-18.368 25.172-6.337 40.795 1.752 2.249 3.738 4.293 5.986 6.045 6.395 5.081 13.841 6.541 21.229 6.016 13.958-21.259 10.892-37.32-3.271-52.856z" fill="#f5a96c" fill-rule="evenodd"/></g><g><path clip-rule="evenodd" d="m357.007 197.962c-11.914 19.244-12.235 36.911-3.3 52.856 7.388.526 14.834-.934 21.258-6.016 2.248-1.752 4.234-3.796 5.986-6.045 12.031-15.623 11.943-40.795-6.337-40.795z" fill="#f5a96c" fill-rule="evenodd"/></g><g><path clip-rule="evenodd" d="m258.161 144.961c-31.596 31.129-70.083 53.002-98.846 53.002 0 21.317-.058 26.136.146 29.144 0 7.271 1.051 15.331 3.125 23.712 2.278 9.082 5.753 18.514 10.425 27.713 8.731 17.171 25.901 35.013 44.006 47.19 14.396 9.637 29.347 15.74 41.144 15.097 11.797.642 26.748-5.461 41.144-15.097 18.105-12.177 35.275-30.02 44.006-47.19 4.672-9.199 8.147-18.631 10.425-27.713 2.073-8.381 3.125-16.441 3.125-23.712.204-3.008.146-7.826.146-29.144-24.354-15.799-67.28-21.873-98.846-53.002z" fill="#fed1a3" fill-rule="evenodd"/></g><g><path clip-rule="evenodd" d="m343.311 278.53c4.672-9.199 8.147-18.631 10.425-27.713 2.073-8.381 3.125-16.441 3.125-23.712.204-3.008.146-7.826.146-29.144-7.008 0-14.571-.701-22.485-2.249-24.617-4.789-52.474-17.463-76.361-41.029-31.596 31.158-70.083 43.277-98.846 43.277v19.069c0 3.358 59.249-13.988 71.105-21.317 8.41-5.198 19.419-9.053 27.274-16.149 17.959 16.236 50.138 28.589 76.799 35.918-.117 6.892-1.168 14.484-3.125 22.31-2.248 9.082-5.753 18.514-10.425 27.713-8.702 17.171-25.872 35.013-44.006 47.19-8.819 5.928-17.842 10.513-26.223 13.024-6.891 2.044-23.799 2.745-30.953 1.781 13.52 8.615 27.361 13.929 38.4 13.316 11.797.642 26.748-5.461 41.144-15.097 18.105-12.174 35.275-30.017 44.006-47.188z" fill="#ffbc85" fill-rule="evenodd"/></g><g><path clip-rule="evenodd" d="m146.846 141.573c-3.329 10.892-5.139 22.456-5.139 34.4v21.989h17.608c28.763 0 67.25-12.119 98.846-43.277 23.887 23.566 51.744 36.24 76.361 41.029 7.914 1.548 15.477 2.249 22.485 2.249h17.608v-21.989c0-18.514-4.059-36.035-11.33-51.658-5.081 2.862-102.014-39.838-106.19-45.035-.818.32-106.949 63.869-110.249 62.292z" fill="#365e7d" fill-rule="evenodd"/></g><g><path clip-rule="evenodd" d="m323.309 134.974c0 19.77-2.92 38.547-8.176 55.484 6.599 2.307 13.111 4.03 19.39 5.256 7.914 1.548 15.477 2.249 22.485 2.249h17.608v-21.989c0-18.514-4.059-36.035-11.33-51.658-5.081 2.862-11.009 4.409-17.287 4.117-5.607-.263-10.804-1.957-15.301-4.731-3.154-1.927-5.957-4.439-8.264-7.3.583 6.073.875 12.264.875 18.572z" fill="#2b4d66" fill-rule="evenodd"/></g><g><path clip-rule="evenodd" d="m236.435.031c-15.652-.73-28.938 11.36-29.668 27.012-.058.993-.058 1.957 0 2.92-11.622 1.11-21.346 9.315-24.529 20.383-4.526-3.65-10.191-5.928-16.44-6.22-15.652-.73-28.938 11.36-29.698 27.041-.35 7.972 2.599 15.36 7.68 20.763-7.534 4.789-12.702 13.053-13.17 22.661-.555 11.798 6.191 22.252 16.236 26.983 3.3 1.577 6.95 2.511 10.804 2.687 11.564.555 21.813-5.899 26.69-15.623 5.957 6.716 14.63 10.951 24.295 10.951 16.382 0 29.931-12.148 32.15-27.946.818-.263 1.635-.555 2.453-.876 4.176 5.198 10.483 8.644 17.667 8.965 6.045.292 11.68-1.694 16.09-5.169 4.789 3.65 10.717 5.928 17.199 6.22 9.666.467 18.514-3.592 24.5-10.308 4.964 10.162 15.185 17.375 27.303 17.959 7.096.321 13.783-1.694 19.273-5.344 8.206-5.461 13.783-14.63 14.279-25.23.409-8.469-2.511-16.324-7.621-22.281 8.79-5.373 14.834-14.864 15.36-25.902.818-17.726-12.849-32.735-30.544-33.553-12.118-.584-22.952 5.636-28.88 15.273-4.555-3.767-10.337-6.132-16.703-6.424-9.052-.438-17.287 3.417-22.806 9.783-3.913-10.191-13.579-17.638-25.171-18.193-.759-.029-1.518-.029-2.249 0-4.293-9.348-13.52-16.035-24.5-16.532z" fill="#f9f6f6" fill-rule="evenodd"/></g><g><path clip-rule="evenodd" d="m301.233 26.255c6.862 13.112 10.746 28.063 10.834 43.92v.438c0 1.665-.058 3.358-.146 5.023-.321 6.541-1.314 12.936-2.92 19.069-2.395 9.315-6.161 18.076-11.038 26.019 8.176-.584 15.535-4.439 20.733-10.25 2.657 5.461 6.833 10.045 12.002 13.228 4.497 2.774 9.695 4.468 15.301 4.731 7.096.321 13.783-1.694 19.273-5.344 8.206-5.461 13.783-14.63 14.279-25.23.409-8.469-2.511-16.324-7.621-22.281 8.79-5.373 14.834-14.864 15.36-25.902.818-17.726-12.849-32.735-30.544-33.553-12.118-.584-22.952 5.636-28.88 15.273-4.555-3.767-10.337-6.132-16.703-6.424-3.477-.177-6.806.29-9.93 1.283z" fill="#dddaec" fill-rule="evenodd"/></g><g><path d="m203.338 87.016c-3.587 0-7.178-.677-10.617-2.032-3.97-1.564-5.92-6.051-4.355-10.021 1.565-3.971 6.052-5.919 10.021-4.355 3.352 1.321 7.013 1.258 10.312-.178 3.281-1.429 5.806-4.046 7.111-7.37 1.559-3.972 6.044-5.93 10.015-4.369 3.972 1.558 5.928 6.042 4.369 10.015-2.814 7.17-8.257 12.814-15.326 15.892-3.699 1.61-7.611 2.418-11.53 2.418z" fill="#d0cee7"/></g><g><path d="m312.051 83.327c-7.397 0-14.796-2.816-20.429-8.448-3.017-3.018-3.017-7.909 0-10.928 3.018-3.016 7.909-3.016 10.928 0 5.239 5.24 13.764 5.238 19.003 0 3.018-3.016 7.909-3.016 10.928 0 3.017 3.018 3.017 7.909 0 10.928-5.633 5.632-13.031 8.448-20.43 8.448z" fill="#d0cee7"/></g><g><path d="m304.391 240.277c-4.664 0-9.324-1.171-13.035-3.512-3.609-2.278-4.688-7.049-2.41-10.658 2.278-3.608 7.048-4.688 10.658-2.41 2.414 1.524 7.176 1.518 9.613-.011 3.612-2.266 8.382-1.177 10.651 2.44 2.268 3.615 1.175 8.383-2.44 10.651-3.722 2.333-8.381 3.5-13.037 3.5z" fill="#365e7d"/></g><g><path d="m211.872 240.277c-4.656 0-9.315-1.167-13.036-3.501-3.615-2.268-4.707-7.036-2.44-10.651 2.268-3.615 7.037-4.707 10.651-2.44 2.438 1.529 7.199 1.534 9.613.011 3.609-2.278 8.38-1.196 10.657 2.41 2.277 3.609 1.198 8.38-2.411 10.658-3.709 2.342-8.37 3.513-13.034 3.513z" fill="#365e7d"/></g><g><path d="m257.096 303.143c-6.647 0-13.294-1.135-18.594-3.406-3.922-1.681-5.739-6.222-4.058-10.145 1.68-3.922 6.224-5.739 10.145-4.058 6.662 2.855 18.352 2.854 25.013 0 3.923-1.681 8.464.137 10.145 4.058 1.681 3.923-.136 8.464-4.058 10.145-5.301 2.271-11.948 3.406-18.593 3.406z" fill="#fe93d3"/></g><g><path clip-rule="evenodd" d="m363.781 453.45h-211.241c-3.125 0-5.694 2.57-5.694 5.694v52.856h111.315 111.315v-52.856c0-3.124-2.57-5.694-5.695-5.694z" fill="#f9f6f6" fill-rule="evenodd"/></g><g><path clip-rule="evenodd" d="m369.476 512v-52.856c0-3.125-2.57-5.694-5.694-5.694h-31.128c3.154 0 5.723 2.57 5.723 5.694v52.856z" fill="#dddaec" fill-rule="evenodd"/></g><g><path clip-rule="evenodd" d="m81.581 15.742c-5.081 0-9.782 1.577-13.637 4.264 10.104 2.774 17.521 12.002 17.521 23.011 0 8.089-4.03 15.214-10.191 19.536 2.015.555 4.117.847 6.307.847 13.141 0 23.828-10.688 23.828-23.829.001-13.17-10.687-23.829-23.828-23.829z" fill="#dddaec" fill-rule="evenodd"/></g><g><path clip-rule="evenodd" d="m36.816 123.935c-5.081 0-9.782 1.577-13.637 4.293 10.104 2.745 17.521 12.002 17.521 22.982 0 8.089-4.03 15.243-10.191 19.536 2.015.555 4.117.847 6.307.847 13.141 0 23.828-10.659 23.828-23.829s-10.687-23.829-23.828-23.829z" fill="#dddaec" fill-rule="evenodd"/></g><g><path clip-rule="evenodd" d="m444.581 141.865c10.337 2.745 17.93 12.148 17.93 23.332 0 8.264-4.147 15.565-10.454 19.916 1.986.526 4.059.818 6.22.818 13.345 0 24.149-10.805 24.149-24.15s-10.804-24.179-24.149-24.179c-5.082 0-9.812 1.577-13.696 4.263z" fill="#dddaec" fill-rule="evenodd"/></g><g><path clip-rule="evenodd" d="m479.097 57.793c0 12.411-6.979 23.216-17.258 28.676 1.548.204 3.125.321 4.731.321 17.9 0 32.443-14.513 32.443-32.443s-14.542-32.443-32.443-32.443c-5.519 0-10.688 1.373-15.214 3.767 15.681 2.277 27.741 15.798 27.741 32.122z" fill="#dddaec" fill-rule="evenodd"/></g></g></svg>