<svg id="Layer_1" enable-background="new 0 0 512 512" height="512" viewBox="0 0 512 512" width="512" xmlns="http://www.w3.org/2000/svg"><g><g><path clip-rule="evenodd" d="m300.674 154.927c-38.81 93.919-38.051 210.557 4.03 301.322l90.885 26.458 84.039-26.458c18.193-39.25 28.677-83.347 31.539-128.349 1.11-17.172 1.11-34.46 0-51.661-2.657-41.995-11.885-83.493-27.509-121.311l-91.693-19.973z" fill="#9dc6fb" fill-rule="evenodd"/></g><g><path clip-rule="evenodd" d="m95.963 41.5v35.833h14.689 24.005v-35.833z" fill="#d0cee7" fill-rule="evenodd"/></g><g><path clip-rule="evenodd" d="m44.216 18.167c.818 10.484 11.856 23.333 26.575 23.333h25.173 38.694 19.215c23.012 0 38.664 9.257 54.784 24.619l13.988 13.346c2.073 1.957 5.373 1.869 7.33-.175l19.537-20.501c1.957-2.044 1.898-5.344-.175-7.301l-13.988-13.346c-23.509-22.428-48.127-35.336-81.477-35.307-41.847 0-51.806.029-93.653.058-12.645.438-17.2.497-16.003 15.274z" fill="#f9f6f6" fill-rule="evenodd"/></g><g><path clip-rule="evenodd" d="m230.53 432.302c-59.69-37.41-156.381-43.075-230.439 4.001v50.288c0 12.411 10.163 22.574 22.574 22.574h185.291c12.411 0 22.574-10.163 22.574-22.574z" fill="#365e7d" fill-rule="evenodd"/></g><g><path clip-rule="evenodd" d="m483.66 154.929h-182.981l21.438-58.102 2.853-7.727h134.388l2.853 7.727z" fill="#f9f6f6" fill-rule="evenodd"/></g><g><path clip-rule="evenodd" d="m459.358 89.1-10.312 7.726-50.881 38.127-60.863-38.127-12.332-7.726 2.854-7.726 2.751-7.428c4.564-12.383 10.807-24.003 24.003-24.003h75.172c13.197 0 19.45 11.62 24.003 24.003l2.751 7.428z" fill="#f9f6f6" fill-rule="evenodd"/></g><g><path clip-rule="evenodd" d="m479.629 456.249h-174.925c1.022 2.19 2.044 4.322 3.095 6.483 15.039 30.547 23.8 46.317 59.778 46.375l24.589.058 24.589-.058c35.978-.058 44.739-15.828 59.778-46.375 1.052-2.161 2.074-4.293 3.096-6.483z" fill="#f9f6f6" fill-rule="evenodd"/></g><g><path clip-rule="evenodd" d="m430.101 73.945 5.607 15.157h23.654l-5.607-15.157c-4.555-12.382-10.805-24.005-24.004-24.005h-23.654c13.199 0 19.419 11.623 24.004 24.005z" fill="#dddaec" fill-rule="evenodd"/></g><g><path clip-rule="evenodd" d="m435.708 89.102 24.297 65.825h23.654l-24.297-65.825z" fill="#dddaec" fill-rule="evenodd"/></g><g><path clip-rule="evenodd" d="m460.005 154.927c34.196 82.734 27.509 219.231-10.571 301.322h30.196c18.193-39.25 28.677-83.347 31.539-128.349 1.11-17.172 1.11-34.46 0-51.661-2.657-41.995-11.885-83.493-27.509-121.311h-23.655z" fill="#80b4fb" fill-rule="evenodd"/></g><g><path clip-rule="evenodd" d="m446.367 462.965c-12.09 25.436-20.091 40.973-41.38 46.171l11.769-.029c35.978-.058 44.739-15.828 59.778-46.375 1.051-2.161 2.073-4.293 3.095-6.483h-30.196c-.993 2.248-2.015 4.497-3.066 6.716z" fill="#dddaec" fill-rule="evenodd"/></g><g><path clip-rule="evenodd" d="m360.16 89.102c0 17.668 14.339 32.007 32.006 32.007 17.668 0 31.977-14.339 31.977-32.007z" fill="#dddaec" fill-rule="evenodd"/></g><g><path clip-rule="evenodd" d="m134.657 77.333h-38.694-4.643c-9.257 0-16.85 7.593-16.85 16.88v24.852l43.074 10.659 38.606-10.659v-24.852c0-9.287-7.593-16.88-16.85-16.88z" fill="#ffe07d" fill-rule="evenodd"/></g><g><path clip-rule="evenodd" d="m123.94 83.875c2.219 2.862 3.563 6.425 3.563 10.338v24.852h28.648v-24.852c0-9.287-7.593-16.88-16.85-16.88h-4.643-24.005c1.781 0 3.504.292 5.14.818 3.241 1.051 6.073 3.066 8.147 5.724z" fill="#ffd064" fill-rule="evenodd"/></g><g><path clip-rule="evenodd" d="m201.882 443.662v42.929c0 12.411-10.163 22.574-22.574 22.574h28.648c12.411 0 22.574-10.163 22.574-22.574v-54.289c-9.024 4.351-18.603 8.147-28.648 11.36z" fill="#2b4d66" fill-rule="evenodd"/></g><g><path clip-rule="evenodd" d="m156.15 119.065h-81.68c-11.447 0-20.822 9.374-20.822 20.822v20.822l67.079 27.568 56.244-27.568v-20.822c.001-11.448-9.373-20.822-20.821-20.822z" fill="#365e7d" fill-rule="evenodd"/></g><g><path clip-rule="evenodd" d="m127.502 119.065c11.447 0 20.822 9.374 20.822 20.822v20.822h28.648v-20.822c0-11.448-9.374-20.822-20.822-20.822z" fill="#2b4d66" fill-rule="evenodd"/></g><g><path clip-rule="evenodd" d="m53.649 160.709c0 52.537-.642 50.055-25.932 66.321-22.954 14.748-27.042 21.961-27.626 46.93-.204 8.527 0 19.128 0 32.825v129.518c67.283 28.649 164.528 27.948 230.439-4.001v-125.517c0-53.764 3.154-59.955-27.626-79.755-25.29-16.266-25.932-13.784-25.932-66.321h-46.053z" fill="#a7e9a6" fill-rule="evenodd"/></g><g><path clip-rule="evenodd" d="m148.324 160.709c0 52.537.613 60.422 25.932 76.688 30.78 19.8 27.626 21.844 27.626 75.608v119.296 11.36c10.046-3.212 19.624-7.009 28.648-11.36v-125.516c0-53.764 3.154-59.955-27.626-79.755-25.29-16.266-25.932-13.784-25.932-66.321z" fill="#7fdbae" fill-rule="evenodd"/></g><g><path clip-rule="evenodd" d="m167.948 272.967h-105.276c-9.929 0-18.076 8.148-18.076 18.077v12.178c0 9.958 8.148 18.077 18.076 18.077h105.276c9.929 0 18.076-8.119 18.076-18.077v-12.178c.001-9.929-8.147-18.077-18.076-18.077z" fill="#f9f6f6" fill-rule="evenodd"/></g><g><path d="m462.211 96.827h-140.094l2.853-7.727 2.854-7.726h128.68l2.854 7.726z" fill="#ffe07d"/></g><g><path d="m454.923 380.394h-125.513c-4.268 0-7.726-3.459-7.726-7.726s3.459-7.726 7.726-7.726h125.513c4.268 0 7.726 3.459 7.726 7.726s-3.458 7.726-7.726 7.726z" fill="#365e7d"/></g><g><path d="m425.428 411.409h-66.524c-4.268 0-7.726-3.459-7.726-7.726s3.459-7.726 7.726-7.726h66.524c4.268 0 7.726 3.459 7.726 7.726s-3.458 7.726-7.726 7.726z" fill="#365e7d"/></g><g><path clip-rule="evenodd" d="m388.429 203.521c-12.382 18.661-42.023 58.903-42.023 81.945 0 29.904 22.866 44.886 45.761 44.886 22.866 0 45.761-14.981 45.761-44.886 0-23.042-29.641-63.284-42.052-81.945-2.921-4.439-4.498-4.409-7.447 0z" fill="#ffe07d" fill-rule="evenodd"/></g><g><path clip-rule="evenodd" d="m377.069 220.284c13.667 20.355 30.692 47.719 30.692 65.182 0 23.217-13.813 37.439-30.692 42.637 4.877 1.489 9.987 2.249 15.098 2.249 22.866 0 45.761-14.981 45.761-44.886 0-23.042-29.641-63.284-42.052-81.945-2.92-4.439-4.497-4.41-7.447 0-2.979 4.498-7.009 10.28-11.36 16.763z" fill="#ffd064" fill-rule="evenodd"/></g><g><path d="m167.89 404.02h-105.188c-4.268 0-7.726-3.459-7.726-7.726s3.459-7.726 7.726-7.726h105.188c4.268 0 7.726 3.459 7.726 7.726s-3.458 7.726-7.726 7.726z" fill="#365e7d"/></g><g><path d="m143.184 370.377h-55.748c-4.268 0-7.726-3.459-7.726-7.726s3.459-7.726 7.726-7.726h55.748c4.268 0 7.726 3.459 7.726 7.726s-3.459 7.726-7.726 7.726z" fill="#365e7d"/></g></g></svg>