<svg id="Layer_1" enable-background="new 0 0 512 512" height="512" viewBox="0 0 512 512" width="512" xmlns="http://www.w3.org/2000/svg"><g><path d="m47.875 111.309c-4.143 0-7.5-3.357-7.5-7.5v-27.243c0-4.143 3.357-7.5 7.5-7.5s7.5 3.357 7.5 7.5v27.242c0 4.143-3.357 7.501-7.5 7.501z" fill="#d0cee7"/><g><path d="m43.169 43.342c-4.236 0-7.67-3.433-7.67-7.67v-27.828c0-4.236 3.433-7.67 7.67-7.67s7.67 3.433 7.67 7.67v27.829c-.001 4.236-3.434 7.669-7.67 7.669z" fill="#dddaec"/><path d="m78.616 254.007c-1.144 0-2.307-.258-3.401-.8-14.665-7.272-26.828-21.869-34.248-41.101-6.669-17.288-9.146-37.527-6.794-55.529.548-4.2 4.393-7.16 8.598-6.611 4.199.548 7.16 4.398 6.611 8.598-3.818 29.228 7.579 68.469 32.647 80.899 3.795 1.882 15.132 6.35 13.25 10.145-1.339 2.702-7.669 8.523-16.663 4.399z" fill="#365e7d"/><path d="m123.431 234.612c-1.63 0-3.272-.517-4.665-1.586-24.582-18.87-36.805-51.378-31.14-82.816.751-4.169 4.739-6.936 8.908-6.188 4.168.751 6.939 4.74 6.188 8.908-4.658 25.851 5.307 52.514 25.386 67.928 3.359 2.579 11.849 8.688 9.269 12.048-1.51 1.968-11.643 1.706-13.946 1.706z" fill="#365e7d"/><path d="m179.199 228.469c-2.021 0-14.927-5.174-16.434-6.751-14.942-15.638-22.875-40.194-20.703-64.087.383-4.219 4.115-7.335 8.332-6.944 4.218.382 7.327 4.113 6.944 8.332-1.755 19.312 4.73 39.763 16.519 52.101 2.926 3.063 13.703 12.298 10.641 15.224-1.487 1.42-3.394 2.125-5.299 2.125z" fill="#365e7d"/><path d="m231.47 226.481c-1.994 0-16.155-6.76-17.658-8.3-13.895-14.238-21.175-32.626-21.052-53.177.025-4.22 3.454-7.624 7.669-7.624h.047c4.235.026 7.649 3.479 7.624 7.716-.099 16.431 5.673 31.083 16.69 42.371 2.959 3.031 15.069 13.874 12.037 16.832-1.492 1.457-3.425 2.182-5.357 2.182z" fill="#365e7d"/><path d="m313.648 63.606h-160.546c-4.953 0-8.967-3.433-8.967-7.67s4.014-7.67 8.967-7.67h160.546c4.953 0 8.967 3.433 8.967 7.67s-4.014 7.67-8.967 7.67z" fill="#dddaec"/><path d="m124.191 111.872c-4.236 0-7.67-3.433-7.67-7.67v-27.858c0-4.236 3.433-7.67 7.67-7.67 4.236 0 7.67 3.433 7.67 7.67v27.858c0 4.237-3.434 7.67-7.67 7.67z" fill="#d0cee7"/><path d="m83.666 111.872c-4.236 0-7.67-3.433-7.67-7.67v-27.858c0-4.236 3.433-7.67 7.67-7.67s7.67 3.433 7.67 7.67v27.858c0 4.237-3.434 7.67-7.67 7.67z" fill="#d0cee7"/><path d="m124.191 43.168c-4.236 0-7.67-3.433-7.67-7.67v-27.828c0-4.236 3.433-7.67 7.67-7.67 4.236 0 7.67 3.433 7.67 7.67v27.829c0 4.236-3.434 7.669-7.67 7.669z" fill="#dddaec"/><path d="m83.695 43.168c-4.236 0-7.67-3.433-7.67-7.67v-27.828c0-4.236 3.433-7.67 7.67-7.67s7.67 3.433 7.67 7.67v27.829c-.001 4.236-3.434 7.669-7.67 7.669z" fill="#dddaec"/><g clip-rule="evenodd" fill-rule="evenodd"><path d="m43.169 35.499h-20.089c-11.247 0-20.437 9.189-20.437 20.437 0 11.219 9.189 20.408 20.437 20.408h20.089 40.496 40.525 20.089c11.247 0 20.437-9.189 20.437-20.408 0-11.248-9.189-20.437-20.437-20.437h-20.089-40.495z" fill="#dddaec"/><path d="m302.033 55.936v20.669c0 7.421 6.464 13.509 14.378 13.509h26.785l10.436-29.482-10.436-38.874h-26.785c-7.914 0-14.378 6.088-14.378 13.509z" fill="#365e7d"/><path d="m343.196 21.758v68.356 8.291c0 2.754 2.232 4.986 4.986 4.986h39.743l9.189-37.889-9.189-57.05h-39.743c-2.725 0-4.986 2.261-4.986 4.986z" fill="#f9f6f6"/><path d="m387.925 8.452v94.939h92.124c16.523 0 30.061-13.538 30.061-30.061v-34.816c0-16.524-13.537-30.061-30.061-30.061h-92.124z" fill="#365e7d"/><path d="m387.925 103.391v-24.09h-20.031-24.698v10.813 8.291c0 2.754 2.232 4.986 4.986 4.986z" fill="#dddaec"/><path d="m387.925 103.391h92.124c16.523 0 30.061-13.538 30.061-30.061v-34.816c0-13.132-8.552-24.351-20.35-28.438.203 1.42.319 2.87.319 4.348v34.816c0 16.524-13.537 30.061-30.061 30.061h-72.093z" fill="#2b4d66"/><path d="m316.411 90.114h26.785v-10.813-7.769h-26.785c-7.914 0-14.378-6.088-14.378-13.509v18.582c0 7.421 6.464 13.509 14.378 13.509z" fill="#2b4d66"/><path d="m43.169 76.344h40.496 40.525 20.089c11.247 0 20.437-9.189 20.437-20.408 0-4.058-1.217-7.827-3.276-11.016-2.754 8.001-10.378 13.799-19.306 13.799h-20.089-40.496-40.525-20.089c-7.189 0-13.537-3.769-17.161-9.421-.725 2.087-1.131 4.319-1.131 6.638 0 11.219 9.189 20.408 20.437 20.408z" fill="#d0cee7"/><path d="m24.82 291.5c-12.349 8.378-18.089 18.379-22.408 32.033-1.71 11.19.754 22.988 7.305 36.12 44.294 88.561 129.403 133.088 224.194 147.612 91.573 14.002 187.553-.899 257.878-73.748 10.204-10.552 16.088-21.075 17.799-32.236-.29-131.668-337.77-209.329-484.768-109.781z" fill="#f9f6f6"/><path d="m358.705 282.803c-27.858-9.943-57.281-17.277-87.167-21.858-29.858-4.58-60.15-6.407-89.689-5.247-25.017 18.901-43.076 47.803-48.178 81.256-10.465 68.124 36.322 131.813 104.444 142.249s131.809-36.323 142.245-104.447c5.13-33.453-3.451-66.442-21.655-91.953zm-129.809 18.582c11.479-5.218 24.553-7.305 37.945-5.247 36.641 5.624 61.803 39.889 56.179 76.531-5.595 36.671-39.859 61.833-76.529 56.21-36.641-5.624-61.803-39.889-56.179-76.531.116-.725.232-1.42.348-2.116-4.58-6.609-6.725-14.9-5.421-23.452 2.725-17.712 19.277-29.888 36.989-27.163 2.32.348 4.552.957 6.668 1.768z" fill="#d09080"/><path d="m249.391 336.607c-2.725 17.712-19.277 29.888-36.989 27.163-9.16-1.391-16.813-6.493-21.741-13.538-.116.696-.232 1.391-.348 2.116-5.624 36.642 19.538 70.907 56.179 76.531 36.67 5.624 70.934-19.539 76.529-56.21 5.624-36.642-19.538-70.907-56.179-76.531-13.393-2.058-26.466.029-37.945 5.247 14 5.334 22.842 19.829 20.494 35.222z" fill="#365e7d"/><path d="m222.229 299.617c-17.712-2.725-34.264 9.45-36.989 27.163-1.304 8.552.841 16.843 5.421 23.452 4.928 7.044 12.581 12.146 21.741 13.538 17.712 2.725 34.264-9.45 36.989-27.163 2.348-15.393-6.493-29.888-20.495-35.222-2.116-.811-4.348-1.42-6.667-1.768z" fill="#f9f6f6"/><path d="m47.952 324.779c30.148-18.089 65.571-29.714 103.227-35.337 8.146-13.19 18.61-24.612 30.669-33.743-54.208 2.087-105.865 14.118-147.839 37.193-11.624 6.407-27.278 16.988-31.597 30.641-1.71 11.19.754 22.988 7.305 36.12 3.131 6.233 6.435 12.233 9.943 18.002-1.971-7.653-2.435-14.929-1.362-21.945 4.174-13.682 18.813-24.437 29.654-30.931z" fill="#dddaec"/><path d="m185.472 285.992c27.394-1.478 55.483-.029 83.109 4.232 27.655 4.232 54.875 11.219 80.587 20.843 9.711 3.624 19.19 7.624 28.408 12.001-3.884-14.581-10.291-28.264-18.871-40.266-27.858-9.943-57.281-17.277-87.167-21.858-29.858-4.58-60.15-6.407-89.689-5.247-12.059 9.131-22.524 20.553-30.669 33.743 11.246-1.68 22.697-2.839 34.292-3.448z" fill="#ce775f"/><path d="m509.588 401.281c-.029-14.349-11.798-29.134-20.987-38.729-33.104-34.555-78.819-61.514-129.896-79.749 8.58 12.001 14.987 25.684 18.871 40.266 35.568 16.814 67.079 39.048 91.168 66.182 8.407 9.45 19.161 24.09 19.045 38.41-.754 4.812-2.203 9.537-4.406 14.205 2.841-2.696 5.653-5.479 8.407-8.349 10.203-10.552 16.088-21.075 17.798-32.236z" fill="#dddaec"/><path d="m250.144 214.216c-19.045-1.623-38.177-1.884-57.078-.522-14.842 1.044-29.539 3.102-44.004 6.291-17.161 3.769-33.945 9.132-50.178 16.292-28.379 12.494-54.99 30.467-78.674 55.021-10.204 10.552-16.088 21.075-17.799 32.236 4.319-13.654 19.973-24.235 31.597-30.641 41.975-23.075 93.632-35.106 147.839-37.193 29.539-1.16 59.831.667 89.689 5.247 29.887 4.58 59.31 11.914 87.167 21.858 51.077 18.234 96.791 45.194 129.896 79.749 9.189 9.595 20.958 24.38 20.987 38.729 1.71-11.19-.754-22.988-7.305-36.12-45.308-90.59-132.476-133.552-224.078-147.583-9.332-1.451-18.695-2.582-28.059-3.364z" fill="#fed1a3"/></g></g></g></svg>