<svg id="Layer_1" enable-background="new 0 0 497 497" height="512" viewBox="0 0 497 497" width="512" xmlns="http://www.w3.org/2000/svg"><g><g><path clip-rule="evenodd" d="m205.936 387.166v-34.049l-65.936-16.117-75.087 16.117v34.049c0 2.586 2.132 4.718 4.718 4.718h131.616c2.586 0 4.689-2.132 4.689-4.718z" fill="#f9f6f6" fill-rule="evenodd"/></g><g><path clip-rule="evenodd" d="m265.477 275.356c3.524-11.994 5.4-24.67 5.4-37.772v-6.594c0-1.478-1.222-2.728-2.728-2.728h-265.421c-1.506 0-2.728 1.251-2.728 2.728v6.594c0 13.102 1.876 25.778 5.372 37.772l131.628 10.42z" fill="#f9f6f6" fill-rule="evenodd"/></g><g><path clip-rule="evenodd" d="m205.936 353.117c28.421-17.479 50.02-45.105 59.541-77.761h-260.105c9.549 32.656 31.121 60.282 59.541 77.761z" fill="#d09080" fill-rule="evenodd"/></g><g><path clip-rule="evenodd" d="m205.936 353.117h-44.194v17.337 16.712c0 2.586-2.132 4.718-4.689 4.718h44.194c2.586 0 4.689-2.132 4.689-4.718z" fill="#dddaec" fill-rule="evenodd"/></g><g><path clip-rule="evenodd" d="m221.283 275.356c-9.549 32.656-31.121 60.282-59.541 77.761h44.194c28.421-17.479 50.02-45.105 59.541-77.761z" fill="#ce775f" fill-rule="evenodd"/></g><g><path clip-rule="evenodd" d="m226.655 230.99v6.594c0 13.102-1.876 25.778-5.372 37.772h44.194c3.524-11.994 5.4-24.67 5.4-37.772v-6.594c0-1.478-1.222-2.728-2.728-2.728h-44.194c1.478 0 2.7 1.25 2.7 2.728z" fill="#dddaec" fill-rule="evenodd"/></g><g><path clip-rule="evenodd" d="m12.761 112.7 83.244-56.729c35.995-5.971 43.995 31.529 24.357 49.027l-77.446 52.75c-12.306 8.413-29.302 4.945-37.601-7.446s-4.86-29.217 7.446-37.602z" fill="#d09080" fill-rule="evenodd"/></g><g><path clip-rule="evenodd" d="m102.258 94.539-83.699 55.109c-3.268 2.132-6.793 3.581-10.402 4.206 8.896 9.436 23.703 11.425 34.758 3.894l77.446-52.75c0-24.357 0-32.429-24.357-49.027l-8.071 5.514c7.02 4.036 14.325 16.2 14.325 33.054z" fill="#ce775f" fill-rule="evenodd"/></g><g><path clip-rule="evenodd" d="m368.303 12.287c1.506-10.374 1.847-10.942 11.937-10.942h103.906c12.278 0 14.068.313 12.249 12.108l-48.969 319.485c-2.245 14.665 2.075 28.507 11.283 45.162 15.063 27.341 11.851 68.041-45.189 80.262l-97.852 20.975c-25.692 5.514-80.885 21.117-106.634 14.864-19.298-4.69-29.415-24.101-11.425-39.051 21.514-17.849 76.395-40.216 104.247-65.938 22.083-20.407 16.825-28.393 23.248-73.441 1.468-10.312 3.164-22.221 5.03-35.327 0 0 30.907-68.701 36.7-109.395 4.86-34.142-6.248-104.536-6.248-104.536 2.736-19.228 5.343-37.546 7.717-54.226z" fill="#ffbc85" fill-rule="evenodd"/></g><g><path d="m388.303 405.894c-3.543 0-6.695-2.521-7.366-6.131-.756-4.073 1.932-7.987 6.004-8.744 5.202-.966 8.855-3.393 10.287-6.833 1.392-3.345.683-7.6-1.897-11.381-2.334-3.422-1.452-8.089 1.97-10.423 3.422-2.335 8.088-1.452 10.422 1.97 5.447 7.985 6.701 17.554 3.355 25.596-3.444 8.277-11.043 13.896-21.397 15.819-.462.086-.924.127-1.378.127z" fill="#f5a96c"/></g><g><path clip-rule="evenodd" d="m430.061 373.95c15.091 27.313 11.88 49.993-45.16 62.215l-97.852 20.975c-23.333 5.002-70.938 18.303-98.79 16.058.455 9.606 8.867 18.104 20.775 21.003 25.749 6.253 80.942-9.351 106.634-14.864l97.852-20.975c57.04-12.221 60.252-52.921 45.189-80.262-9.208-16.655-13.528-30.496-11.283-45.162l48.969-319.485c.398-2.416.597-4.349.597-5.912v-.142c0-5.855-3.183-6.054-12.846-6.054h-17.905l-47.434 327.415c-2.245 14.694 2.075 28.535 11.254 45.19z" fill="#f5a96c" fill-rule="evenodd"/></g><g><path clip-rule="evenodd" d="m360.601 66.515-30.467 213.928 33.934 5.116c10.573 1.592 20.52-5.77 22.111-16.342l26.346-175.218c1.592-10.601-5.741-20.549-16.342-22.14z" fill="#dddaec" fill-rule="evenodd"/></g><g><path clip-rule="evenodd" d="m120.362 104.998c0-24.357 0-32.429-24.357-49.027l65.709-44.764c12.306-8.384 29.302-4.945 37.601 7.446 3.439 5.116 4.434 11.141 4.434 17.252v82.82c0 11.482-9.379 20.861-20.832 20.861-11.482 0-20.861-9.408-20.861-20.861v42.916c0 11.454-9.379 20.833-20.832 20.833-11.482 0-20.861-9.379-20.861-20.833v-56.643z" fill="#ffe07d" fill-rule="evenodd"/></g><g><path clip-rule="evenodd" d="m181.494 30.619v82.848c0 8.953-5.741 16.627-13.699 19.582 3.808 4.007 9.18 6.537 15.12 6.537 11.454 0 20.832-9.379 20.832-20.861v-82.82c0-6.111-.995-12.136-4.434-17.252-6.281-9.379-17.564-13.642-28.051-11.511 2.217 1.734 4.178 3.808 5.798 6.253 3.411 5.117 4.434 11.142 4.434 17.224z" fill="#ffd064" fill-rule="evenodd"/></g></g></svg>