<svg id="Layer_1" enable-background="new 0 0 512 512" height="512" viewBox="0 0 512 512" width="512" xmlns="http://www.w3.org/2000/svg"><g><g><path clip-rule="evenodd" d="m218.003 188.767c-69.738-13.527-169.538 35.352-178.361 126.332.029 31.787-.058 22.643.234 27.171 0 22.643 6.836 50.34 20.217 76.722 12.972 25.506 38.448 52.035 65.385 70.178 21.532 14.55 43.97 23.724 61.674 22.76 17.471.935 39.616-8.035 60.944-22.263 27.171-18.173 52.997-44.935 66.086-70.675 6.486-12.797 11.453-25.886 14.812-38.595 3.594-13.469 5.405-26.47 5.405-38.128.292-4.529.205 4.616.234-27.171-.001-62.171-67.226-116.748-116.63-126.331z" fill="#ffeee6" fill-rule="evenodd"/></g><g><path clip-rule="evenodd" d="m168.658 0c-67.605 4.003-142.339 57.118-129.133 167.001 39.354-45.811 166.763-98.255 229.022-98.05-3.098-42.598-39.997-66.322-83.411-68.951z" fill="#fe93d3" fill-rule="evenodd"/></g><g><path clip-rule="evenodd" d="m303.956 135.155c-57.38-20.685-76.983 36.725-85.952 81.397 49.404 9.583 94.776 42.422 116.629 98.547 39.966-64.363 33.948-138.427-30.677-179.944z" fill="#fe4eb7" fill-rule="evenodd"/></g><g><path clip-rule="evenodd" d="m314.181 418.993c6.486-12.797 11.453-25.886 14.812-38.595 3.594-13.469 5.405-26.47 5.405-38.128.292-4.529.205 4.616.234-27.171-21.853-56.125-67.225-88.964-116.629-98.547-20.1-3.886-40.844-3.944-60.944-.146 5.2.497 10.401 1.227 15.514 2.22 58.198 11.307 120.573 61.647 116.424 125.718 0 60.069-37.747 114.938-86.332 147.397-11.657 7.801-23.548 13.995-34.825 17.88 6.836 1.811 13.322 2.629 19.312 2.308 17.471.935 39.616-8.035 60.944-22.263 27.17-18.171 52.997-44.933 66.085-70.673z" fill="#ffdfcf" fill-rule="evenodd"/></g><g><path clip-rule="evenodd" d="m39.525 167.001c30.092-64.218 99.625-111.11 191.041-108.948 7.187.175 13.907 1.227 20.13 3.009 6.486 1.87 12.475 4.558 17.851 7.888-.876-12.125-4.499-22.701-10.225-31.729-8.648-3.039-18.289-4.85-28.807-5.084-82.826-1.782-149.263 29.947-188.441 77.278-3.361 17.121-4.12 36.287-1.549 57.586z" fill="#fe72c5" fill-rule="evenodd"/></g><g><path clip-rule="evenodd" d="m303.951 135.156c-.258 53.029-36.487 88.959-85.95 81.394-69.737-13.523-147.503 19.315-178.362 98.545-17.007-37.693-20.315-76.581-12.317-112.367 2.752-12.337 6.854-24.304 12.203-35.724 0 0 0-.021.01-.01 30.086-64.213 99.617-111.099 191.03-108.945 14.667.35 27.406 4.36 37.981 10.905 22.553 13.967 35.23 39.528 35.405 66.202z" fill="#fe93d3" fill-rule="evenodd"/></g><g><path clip-rule="evenodd" d="m39.642 315.099c21.97-56.417 67.722-89.315 117.418-98.693 20.1-3.798 40.843-3.74 60.944.146 49.462 7.567 85.69-28.369 85.952-81.397-.146-21.533-8.443-42.364-23.519-56.943 1.081 5.317 1.636 10.752 1.665 16.244-.263 53.028-36.49 88.935-85.952 81.397-65.297-12.651-137.606 15.309-171.876 83.939 2.074 18.378 7.1 36.989 15.368 55.307z" fill="#fe72c5" fill-rule="evenodd"/></g><g><path d="m230.707 407.616c-1.695 0-3.401-.555-4.827-1.696-3.333-2.669-3.871-7.534-1.202-10.867l43.823-54.723c2.668-3.333 7.533-3.869 10.866-1.202 3.333 2.669 3.871 7.534 1.202 10.867l-43.823 54.723c-1.526 1.906-3.773 2.898-6.039 2.898z" fill="#dddaec"/></g><g><path d="m442.784 209.412c-1.696 0-3.403-.555-4.83-1.699l-64.917-52.034c-3.331-2.67-3.867-7.536-1.197-10.867 2.67-3.333 7.534-3.868 10.867-1.198l64.917 52.035c3.331 2.67 3.867 7.536 1.197 10.867-1.527 1.905-3.772 2.896-6.037 2.896z"/></g><g><path clip-rule="evenodd" d="m318.096 331.11-11.978-9.641-14.754-11.803-12.592-10.08-8.122 10.167c-8.677 10.81-6.924 26.762 3.886 35.41 9.057 7.275 21.707 7.216 30.676.643.73-.526 1.432-1.11 2.104-1.724.935-.847 1.841-1.811 2.659-2.834z" fill="#9dc6fb" fill-rule="evenodd"/></g><g><path clip-rule="evenodd" d="m442.786 201.678-101.637 126.889c-4.999 6.256-13.76 7.833-20.573 4.174-.845-.464-1.69-1.02-2.484-1.628-13.09-10.523-26.2-21.006-39.321-31.529-5.112-4.092-7.101-10.657-5.669-16.656.557-2.278 1.577-4.463 3.123-6.39 4.298-5.36 8.606-10.73 12.894-16.1 3.236-4.02 6.452-8.039 9.668-12.059 6.112-7.607 12.214-15.223 18.305-22.84 3.226-4.02 6.442-8.04 9.668-12.059 6.102-7.617 12.214-15.244 18.305-22.871 3.236-4.02 6.452-8.039 9.668-12.059 7.72-9.637 15.43-19.264 23.139-28.901l15.862 12.709 33.219 26.613z" fill="#f9f6f6" fill-rule="evenodd"/></g><g><path clip-rule="evenodd" d="m426.954 188.972 41.311-51.538-33.248-26.616-41.282 51.538z" fill="#dddaec" fill-rule="evenodd"/></g><g><path d="m370.4 201.028c-1.525 1.896-3.772 2.886-6.03 2.886-1.701 0-3.412-.546-4.834-1.69l-14.461-11.606-.01-.01c3.236-4.02 6.452-8.039 9.668-12.059l.01.01 14.471 11.595c3.33 2.68 3.866 7.545 1.186 10.874z" fill="#365e7d"/></g><g><path d="m358.929 249.11c-1.525 1.907-3.772 2.896-6.04 2.896-1.69 0-3.401-.557-4.824-1.69l-30.972-24.778c3.226-4.02 6.442-8.04 9.668-12.059l30.962 24.768c3.329 2.659 3.875 7.524 1.206 10.863z" fill="#365e7d"/></g><g><path d="m314.454 270.848c-1.525 1.907-3.772 2.896-6.03 2.896-1.701 0-3.412-.556-4.834-1.701l-14.461-11.595-.01-.01c3.236-4.02 6.452-8.039 9.668-12.059l.01.01 14.461 11.595c3.33 2.67 3.866 7.535 1.196 10.864z" fill="#365e7d"/></g><g><path clip-rule="evenodd" d="m449.596 122.475-41.311 51.538 15.835 12.709 2.834 2.25 41.311-51.538z" fill="#d0cee7" fill-rule="evenodd"/></g><g><path clip-rule="evenodd" d="m424.12 186.722-71.052 88.73-19.721 24.6-3.36 4.178-7.508 9.378c-5.639 7.012-16.01 8.181-23.051 2.542l6.69 5.317 11.978 9.641c.789.614 1.636 1.169 2.483 1.636 4.382 2.367 9.583 2.542 14.053.701 2.483-1.023 4.733-2.659 6.515-4.879l101.641-126.887-15.835-12.709z" fill="#dddaec" fill-rule="evenodd"/></g><g><path d="m481.085 155.449c-1.696 0-3.402-.555-4.828-1.697l-58.899-47.185c-3.332-2.669-3.869-7.534-1.2-10.867 2.67-3.332 7.535-3.869 10.866-1.2l58.899 47.185c3.332 2.669 3.869 7.534 1.2 10.867-1.527 1.906-3.772 2.897-6.038 2.897z" fill="#9dc6fb"/></g><g><path d="m219.032 134.064c-.866 4.174-4.958 6.864-9.142 5.999-62.893-12.997-136.794 8.72-171.9 50.525-.969 1.155-6.339 7.617-10.668 12.142 2.752-12.337 6.854-24.304 12.203-35.724 0 0 0-.021.01-.01 18.182-16.089 42.207-28.963 69.407-36.981 34.178-10.091 71.149-11.894 104.08-5.081 4.186.853 6.876 4.945 6.01 9.13z" fill="#fe4eb7"/></g><g><path d="m456.69 220.543c-1.696 0-3.403-.555-4.828-1.697l-92.731-74.298c-3.332-2.67-3.869-7.535-1.199-10.867s7.535-3.868 10.866-1.2l92.731 74.299c3.332 2.669 3.869 7.534 1.199 10.866-1.527 1.906-3.772 2.897-6.038 2.897z" fill="#9dc6fb"/></g></g></svg>