<svg id="Layer_1" enable-background="new 0 0 512 512" height="512" viewBox="0 0 512 512" width="512" xmlns="http://www.w3.org/2000/svg"><g><g><path clip-rule="evenodd" d="m24.476 18.497h202.569l17.355 20.739-17.355 28.422-202.569-.208c-13.469-.03-24.476-11.007-24.476-24.476 0-13.47 11.007-24.477 24.476-24.477z" fill="#365e7d" fill-rule="evenodd"/></g><g><path clip-rule="evenodd" d="m237.369 8.173h125.493c30.023 0 54.618 24.595 54.618 54.619v55.865c0 10.146-8.307 18.454-18.453 18.454-10.117 0-18.423-8.307-18.423-18.454v-23.794c0-9.049-7.417-16.436-16.465-16.436s-16.436 7.387-16.436 16.436v60.76c0 10.028 8.188 18.216 18.216 18.216h28.273c48.773 0 65.357 19.789 65.357 43.998l-199.276 18.394-195.984-18.393c0-24.209 16.554-43.998 65.357-43.998h79.153c10.028 0 18.245-8.188 18.245-18.216v-87.966-49.16c.001-5.697 4.658-10.325 10.325-10.325z" fill="#ffe07d" fill-rule="evenodd"/></g><g><path clip-rule="evenodd" d="m448.838 460.91-192.838-25.916-184.205 25.916v25.337c0 13.914 11.392 25.307 25.336 25.307h326.371c13.944 0 25.336-11.393 25.336-25.307z" fill="#f9f6f6" fill-rule="evenodd"/></g><g><path clip-rule="evenodd" d="m468.181 217.838h-415.729-17.266c-2.789 0-5.103 2.284-5.103 5.103v32.605l225.917 28.011 234.521-28.011v-32.605c0-2.818-2.284-5.103-5.103-5.103z" fill="#f9f6f6" fill-rule="evenodd"/></g><g><path clip-rule="evenodd" d="m30.083 255.546h-12.342c-4.954 0-9.019 4.005-9.108 8.9v.208 133.092.534c.297 34.504 28.599 62.63 63.162 62.63h377.043c34.563 0 62.895-28.155 63.162-62.659v-.504-133.092-.178c-.089-4.925-4.153-8.93-9.108-8.93h-12.371-460.438z" fill="#fe93d3" fill-rule="evenodd"/></g><g><path clip-rule="evenodd" d="m405.405 302.986h-290.177c-3.768 0-6.853 3.085-6.853 6.853v96.807c0 3.738 3.085 6.824 6.853 6.824h290.177c3.768 0 6.824-3.086 6.824-6.824v-96.807c0-3.768-3.056-6.853-6.824-6.853z" fill="#f9f6f6" fill-rule="evenodd"/></g><g><path clip-rule="evenodd" d="m490.521 255.546h-39.992c4.954 0 9.019 4.005 9.138 8.93v.178 133.092.504c-.297 34.504-28.599 62.659-63.192 62.659h52.363c34.563 0 62.895-28.155 63.162-62.659v-.504-133.091-.178c-.089-4.925-4.153-8.93-9.108-8.93h-12.371z" fill="#fe72c5" fill-rule="evenodd"/></g><g><path clip-rule="evenodd" d="m378.289 309.839v66.813 29.995c0 3.738-3.085 6.824-6.853 6.824h33.969c3.768 0 6.824-3.086 6.824-6.824v-96.807c0-3.768-3.056-6.853-6.824-6.853h-33.969c3.768-.001 6.853 3.084 6.853 6.852z" fill="#dddaec" fill-rule="evenodd"/></g><g><path clip-rule="evenodd" d="m433.085 217.838c2.789 0 5.103 2.284 5.103 5.103v32.605h12.342 39.992v-32.605c0-2.818-2.284-5.103-5.103-5.103z" fill="#dddaec" fill-rule="evenodd"/></g><g><path clip-rule="evenodd" d="m227.045 46.564-202.569-.208c-6.022 0-11.57-2.225-15.842-5.874-2.611-2.225-4.747-4.955-6.23-8.07-1.544 3.204-2.404 6.794-2.404 10.562 0 7.447 3.352 14.122 8.633 18.602 4.272 3.649 9.82 5.874 15.842 5.874l202.569.208v-21.094z" fill="#2b4d66" fill-rule="evenodd"/></g><g><path clip-rule="evenodd" d="m396.475 460.91h-30.379v25.337c0 13.914-11.392 25.307-25.306 25.307h82.713c13.944 0 25.336-11.393 25.336-25.307v-25.337z" fill="#dddaec" fill-rule="evenodd"/></g><g><path d="m327.083 347.53h-63.014c-4.268 0-7.726-3.459-7.726-7.726 0-4.268 3.459-7.726 7.726-7.726h63.014c4.268 0 7.726 3.459 7.726 7.726.001 4.267-3.458 7.726-7.726 7.726zm-105.349 0h-28.184c-4.267 0-7.726-3.459-7.726-7.726 0-4.268 3.459-7.726 7.726-7.726h28.184c4.267 0 7.726 3.459 7.726 7.726.001 4.267-3.458 7.726-7.726 7.726z" fill="#365e7d"/></g><g><path d="m359.984 384.378h-38.775c-4.268 0-7.726-3.459-7.726-7.726s3.459-7.726 7.726-7.726h38.775c4.268 0 7.726 3.459 7.726 7.726s-3.459 7.726-7.726 7.726zm-81.111 0h-118.224c-4.267 0-7.726-3.459-7.726-7.726s3.459-7.726 7.726-7.726h118.224c4.268 0 7.726 3.459 7.726 7.726s-3.458 7.726-7.726 7.726z" fill="#365e7d"/></g><g><path d="m268.074 186.699c-4.268 0-7.726-3.459-7.726-7.726v-170.8c0-4.268 3.459-7.726 7.726-7.726 4.268 0 7.726 3.459 7.726 7.726v170.8c.001 4.267-3.458 7.726-7.726 7.726z" fill="#ffd064"/></g><g><path d="m311.419 118.403c-4.268 0-7.726-3.459-7.726-7.726v-102.504c0-4.268 3.459-7.726 7.726-7.726s7.726 3.459 7.726 7.726v102.504c0 4.268-3.459 7.726-7.726 7.726z" fill="#ffd064"/></g><g><path clip-rule="evenodd" d="m322.01 8.173c30.023 0 54.618 24.595 54.618 54.619v21.391c2.492 2.878 3.975 6.616 3.975 10.681v23.794c0 10.146 8.307 18.454 18.423 18.454 10.146 0 18.453-8.307 18.453-18.454v-55.866c0-30.024-24.594-54.619-54.618-54.619z" fill="#ffd064" fill-rule="evenodd"/></g><g><path clip-rule="evenodd" d="m388.613 173.84c21.865 9.108 30.083 26.968 30.083 43.998h14.389 26.463c0-24.209-16.584-43.998-65.357-43.998z" fill="#ffd064" fill-rule="evenodd"/></g></g></svg>