<svg id="Layer_1" enable-background="new 0 0 512 512" height="512" viewBox="0 0 512 512" width="512" xmlns="http://www.w3.org/2000/svg"><g><g><path clip-rule="evenodd" d="m41.298 315.099c.029 40.231.76 65.094 20.451 103.894 12.972 25.535 38.448 52.034 65.385 70.207 21.532 14.521 43.97 23.695 61.674 22.73 17.471.935 39.616-8.005 60.944-22.263 27.171-18.173 52.997-44.935 66.086-70.675 7.245-14.258 11.92-26.616 14.929-38.566 5.2-20.568 5.522-39.88 5.522-65.328 6.135-71.463-67.225-135.243-116.629-144.826-20.1-3.886-40.844-3.944-60.944-.146-49.696 9.38-119.054 73.51-117.418 144.973z" fill="#ffeee6" fill-rule="evenodd"/></g><g><path clip-rule="evenodd" d="m174.229 225.902c49.404 9.583 94.776 42.452 116.629 98.547 0 42.159-1.402 66.409-20.451 103.894-16.974 33.453-54.546 67.49-88.494 83.471 2.366.205 4.645.234 6.895.117 17.471.935 39.616-8.005 60.944-22.263 27.171-18.173 52.997-44.935 66.086-70.675 7.245-14.258 11.92-26.616 14.929-38.566 5.2-20.568 5.522-39.88 5.522-65.328-21.853-56.125-67.225-88.964-116.629-98.547-20.1-3.886-40.844-3.944-60.944-.146-8.443 1.607-16.77 3.886-24.921 6.837 13.527-.818 27.141.088 40.434 2.659z" fill="#ffdfcf" fill-rule="evenodd"/></g><g><path clip-rule="evenodd" d="m170.314 0c-67.605 4.003-142.338 57.118-129.133 167.001 39.354-45.811 166.763-98.255 229.022-98.05-3.097-42.598-39.997-66.322-83.411-68.951z" fill="#fe93d3" fill-rule="evenodd"/></g><g><path clip-rule="evenodd" d="m305.612 135.155c-57.38-20.685-76.983 36.725-85.952 81.397 49.404 9.583 94.776 42.422 116.629 98.547 39.967-64.363 33.948-138.398-30.677-179.944z" fill="#fe4eb7" fill-rule="evenodd"/></g><g><path clip-rule="evenodd" d="m41.181 167.001c30.092-64.218 99.625-111.11 191.041-108.948 7.187.175 13.907 1.227 20.13 3.009 6.486 1.87 12.475 4.558 17.851 7.888-.876-12.125-4.499-22.701-10.225-31.729-8.648-3.039-18.289-4.85-28.807-5.054-82.827-1.811-149.263 29.918-188.441 77.278-3.36 17.091-4.12 36.257-1.549 57.556z" fill="#fe72c5" fill-rule="evenodd"/></g><g><path clip-rule="evenodd" d="m305.611 135.16c-.258 53.019-36.486 88.959-85.949 81.393-69.736-13.533-147.512 19.315-178.36 98.544-17.903-39.64-20.634-80.651-10.977-117.962 2.68-10.369 6.318-20.449 10.853-30.137.309-.649.618-1.299.938-1.948 30.57-63.212 99.616-109.14 190.11-106.996 14.667.35 27.396 4.349 37.981 10.894 22.552 13.966 35.229 39.538 35.404 66.212z" fill="#fe93d3" fill-rule="evenodd"/></g><g><path clip-rule="evenodd" d="m41.298 315.099c21.97-56.417 67.722-89.315 117.418-98.693 20.1-3.798 40.843-3.74 60.944.146 49.462 7.567 85.69-28.369 85.952-81.397-.146-21.533-8.443-42.364-23.519-56.943 1.081 5.317 1.636 10.752 1.665 16.244-.263 53.028-36.49 88.964-85.952 81.397-65.297-12.651-137.606 15.309-171.876 83.939 2.075 18.378 7.1 36.989 15.368 55.307z" fill="#fe72c5" fill-rule="evenodd"/></g><g><path d="m221.827 146.724c-1.433 4.02-5.854 6.112-9.874 4.679-54.853-19.573-131.681-3.721-171.238 35.332-.938.928-6.143 6.411-10.389 10.4 2.68-10.369 6.318-20.449 10.853-30.137.309-.649.618-1.299.938-1.948 19.841-15.295 45.515-26.777 73.921-32.889 35.373-7.627 71.282-5.957 101.111 4.679 4.018 1.443 6.111 5.864 4.678 9.884z" fill="#fe4eb7"/></g><g><path clip-rule="evenodd" d="m242.828 307.153c-47.505 7.129-80.197 51.421-73.068 98.898 5.259 34.914 30.589 61.851 62.522 70.821 9.875 2.776 20.363 3.827 31.115 2.863 1.753-.146 3.506-.351 5.288-.614 31.173-4.704 55.977-25.389 67.313-52.502 5.931-14.199 8.18-30.122 5.726-46.425-1.227-8.239-3.594-16.011-6.866-23.227-9.816-21.474-27.959-37.865-49.754-45.724-13.119-4.704-27.552-6.311-42.276-4.09z" fill="#9dc6fb" fill-rule="evenodd"/></g><g><path clip-rule="evenodd" d="m250.102 314.836c16.156 5.785 30.326 16.303 40.551 30.093 3.564 4.821 6.661 10.05 9.203 15.602 3.301 7.216 5.668 14.988 6.895 23.227 2.454 16.303.205 32.255-5.726 46.425-9.7 23.169-29.216 41.633-54.137 49.463 5.405.555 10.927.584 16.507.088 1.753-.146 3.506-.351 5.288-.614 31.173-4.704 55.977-25.389 67.313-52.502 5.931-14.199 8.18-30.122 5.726-46.425-1.227-8.239-3.594-16.011-6.866-23.227-9.816-21.474-27.959-37.865-49.754-45.724-13.118-4.704-27.55-6.311-42.275-4.09-4.558.672-8.94 1.695-13.205 3.009 7.07.731 13.965 2.309 20.48 4.675z" fill="#80b4fb" fill-rule="evenodd"/></g><g><path d="m375.085 449.748c-.943 0-1.9-.173-2.831-.539l-39.091-15.397c-3.972-1.565-5.923-6.053-4.359-10.026 1.566-3.972 6.053-5.922 10.026-4.359l39.091 15.397c3.972 1.565 5.923 6.053 4.359 10.026-1.199 3.041-4.112 4.898-7.195 4.898z" fill="#dddaec"/></g><g><path d="m255.717 487.822c-46.043.003-86.539-33.74-93.601-80.62-3.756-25.011 2.449-49.984 17.472-70.323 15.025-20.344 37.075-33.615 62.087-37.369 25.005-3.77 49.978 2.425 70.322 17.446 20.344 15.023 33.616 37.075 37.369 62.091 3.769 25-2.427 49.976-17.446 70.321-15.02 20.346-37.07 33.627-62.086 37.397-4.741.712-9.459 1.057-14.117 1.057zm.237-173.927c-3.973 0-7.972.299-11.974.902-.002 0-.004.001-.005.001-20.929 3.14-39.379 14.244-51.951 31.266-12.57 17.018-17.762 37.915-14.62 58.84 5.909 39.223 39.799 67.456 78.32 67.458 3.899.001 7.841-.289 11.812-.885 20.929-3.153 39.379-14.267 51.946-31.291 12.568-17.021 17.751-37.918 14.597-58.839-3.141-20.936-14.244-39.385-31.266-51.954-13.762-10.164-30.062-15.498-46.859-15.498zm-13.126-6.742h.01z" fill="#dddaec"/></g><g><path clip-rule="evenodd" d="m375.087 442.016-7.713 19.546c-1.315 3.36.351 7.158 3.681 8.473l24.453 9.641 20.217-51.275-24.454-9.641c-3.36-1.315-7.158.351-8.473 3.681z" fill="#ffe07d" fill-rule="evenodd"/></g><g><path clip-rule="evenodd" d="m415.726 428.401-20.217 51.275 54.02 21.27c14.111 5.551 30.18-1.432 35.731-15.514 5.551-14.112-1.432-30.181-15.543-35.761z" fill="#d09080" fill-rule="evenodd"/></g><g clip-rule="evenodd" fill-rule="evenodd"><path d="m371.055 470.034 24.453 9.641 6.924-17.588-30.53-12.008-4.528 11.482c-1.315 3.36.351 7.159 3.681 8.473z" fill="#ffd064"/><path d="m395.509 479.676 54.02 21.27c14.111 5.551 30.18-1.432 35.731-15.514 4.85-12.329.117-26.178-10.576-33.19-.204 2.688-.789 5.376-1.811 7.976-5.551 14.112-21.649 21.094-35.731 15.543l-34.708-13.673z" fill="#ce775f"/></g></g></svg>