<svg id="Layer_1" enable-background="new 0 0 512 512" height="512" viewBox="0 0 512 512" width="512" xmlns="http://www.w3.org/2000/svg"><g><g><path d="m94.926 512c-16.29 0-31.568-6.306-43.019-17.759-23.706-23.706-23.706-62.281 0-85.989l17.434-17.434c2.971-2.97 7.79-2.972 10.765 0 2.972 2.973 2.972 7.792 0 10.765l-17.434 17.434c-8.562 8.561-13.278 20.008-13.278 32.229 0 12.222 4.716 23.669 13.278 32.23 8.575 8.577 20.03 13.3 32.254 13.3 12.221 0 23.667-4.722 32.229-13.296l246.971-246.979c11.437-11.437 26.706-17.736 42.994-17.736s31.557 6.298 42.994 17.737c11.45 11.45 17.758 26.728 17.758 43.019 0 16.292-6.308 31.564-17.762 43.001l-32.932 32.675c-2.973 2.973-7.793 2.972-10.764.001-2.973-2.972-2.973-7.792-.001-10.764l32.936-32.679c8.578-8.566 13.3-20.011 13.3-32.234 0-12.224-4.724-23.68-13.3-32.255-8.561-8.563-20.008-13.278-32.229-13.278s-23.668 4.715-32.229 13.277l-246.967 246.977c-11.435 11.451-26.706 17.758-42.998 17.758z" fill="#365e7d"/></g><g><path d="m316.914 493.798c-1.948 0-3.894-.742-5.38-2.227-2.974-2.971-2.976-7.791-.005-10.764l33.531-33.56c2.972-2.975 7.792-2.976 10.764-.005 2.974 2.971 2.976 7.791.005 10.764l-33.531 33.56c-1.486 1.488-3.436 2.232-5.384 2.232z" fill="#dddaec"/></g><g><path d="m285.716 462.599c-1.948 0-3.896-.743-5.382-2.229-2.973-2.973-2.973-7.792-.001-10.764l33.53-33.531c2.973-2.973 7.793-2.972 10.764-.001 2.973 2.973 2.973 7.792.001 10.764l-33.53 33.531c-1.486 1.487-3.435 2.23-5.382 2.23z" fill="#dddaec"/></g><g><path clip-rule="evenodd" d="m380.789 358.234 8.162 25.454 24.714 7.394 15.727-15.727c9.044-9.044 9.044-23.833 0-32.877-9.044-9.016-23.832-9.016-32.876 0z" fill="#f9f6f6" fill-rule="evenodd"/></g><g><path clip-rule="evenodd" d="m60.02 359.03c-6.171 6.172-6.171 16.296 0 22.468l14.703 14.704 14.703 14.704c6.171 6.172 16.296 6.172 22.467 0l18.059-18.06-11.347-36.915-40.526-14.96z" fill="#fe93d3" fill-rule="evenodd"/></g><g><path clip-rule="evenodd" d="m336.424 110.576-73.573 73.575-1.45 24.686 25.766-.313 73.601-73.603c11.433 8.561 24.401 15.13 38.336 19.112 14.106-1.962 23.406-11.234 12.485-32.308-30.089-7.309-54.661-31.882-61.97-61.971-20.619-10.807-29.207-.455-32.307 12.485 3.982 13.935 10.551 26.904 19.112 38.337z" fill="#f9f6f6" fill-rule="evenodd"/></g><g><path clip-rule="evenodd" d="m296.324 10.608c-14.163 14.163-14.163 37.143 0 51.306 5.915 5.887 13.31 9.328 20.988 10.324 10.779 1.394 22.041-2.048 30.317-10.324.711-.711 1.365-1.422 1.991-2.161 12.144-14.249 11.49-35.664-1.991-49.145-5.176-5.176-11.518-8.447-18.173-9.84-4.92-1.024-10.011-1.024-14.931 0-6.683 1.393-13.025 4.664-18.201 9.84z" fill="#365e7d" fill-rule="evenodd"/></g><g><path clip-rule="evenodd" d="m409.428 123.715c-8.276 8.276-11.717 19.538-10.324 30.317.995 7.679 4.437 15.102 10.324 20.989 14.163 14.163 37.142 14.163 51.305 0s14.163-37.143 0-51.306c-13.48-13.452-34.895-14.135-49.143-1.991-.74.626-1.451 1.309-2.162 1.991z" fill="#365e7d" fill-rule="evenodd"/></g><g><path clip-rule="evenodd" d="m343.619 129.631-67.259 68.001 9.641 9.641c.427.398.796.825 1.166 1.251l73.601-73.603c11.433 8.561 24.401 15.13 38.336 19.112-.711-5.489-.142-11.092 1.65-16.353-10.039-2.872-21.813-8.873-31.909-15.216-12.428-7.821-14.96-3.214-25.226 7.167z" fill="#dddaec" fill-rule="evenodd"/></g><g><path clip-rule="evenodd" d="m234.127 184.89-19.765 19.794 14.533 39.788 37.341 12.087 19.764-19.765c8.134-8.134 8.134-21.416 0-29.521l-22.353-22.382c-8.105-8.106-21.387-8.106-29.52-.001z" fill="#fe93d3" fill-rule="evenodd"/></g><g><path clip-rule="evenodd" d="m270.302 221.066-19.765 19.794 15.699 15.699 19.764-19.765c7.736-7.736 8.105-20.107 1.166-28.27-.37-.427-.739-.853-1.166-1.251l-9.641-9.641-6.058-6.086c4.664 4.664 6.655 11.006 5.972 17.093-.511 4.549-2.502 8.986-5.971 12.427z" fill="#fe72c5" fill-rule="evenodd"/></g><g><path clip-rule="evenodd" d="m114.254 377.146-18.059 18.06c-6.143 6.143-16.211 6.172-22.382.085l.91.91 14.703 14.704c6.171 6.172 16.296 6.172 22.467 0l18.059-18.06-15.642-15.642c-.027-.028-.027-.057-.056-.057z" fill="#fe72c5" fill-rule="evenodd"/></g><g><path clip-rule="evenodd" d="m441.053 120.672c14.163 14.163 14.163 37.115 0 51.306-5.944 5.916-13.423 9.385-21.159 10.324 13.395 6.2 29.805 3.754 40.839-7.281 14.163-14.163 14.163-37.143 0-51.306-8.219-8.219-19.424-11.661-30.146-10.352 3.782 1.763 7.337 4.181 10.466 7.309z" fill="#2b4d66" fill-rule="evenodd"/></g><g><path clip-rule="evenodd" d="m326.697 3.925c13.452 13.452 14.106 34.896 1.962 49.145-.626.739-1.28 1.45-1.962 2.133-7.11 7.11-16.41 10.665-25.738 10.637 4.948 3.527 10.579 5.66 16.353 6.399 10.779 1.394 22.041-2.048 30.317-10.324.711-.711 1.365-1.422 1.991-2.161 12.144-14.249 11.49-35.664-1.991-49.145-5.176-5.176-11.518-8.447-18.173-9.84-2.446-.513-4.92-.769-7.423-.769.37.228.711.512 1.052.768 1.252.967 2.446 2.019 3.612 3.157z" fill="#2b4d66" fill-rule="evenodd"/></g><g><path clip-rule="evenodd" d="m165.758 230.992-87.679 87.681c-6.114 6.115-6.114 16.154 0 22.297l51.874 51.875c6.143 6.115 16.182 6.115 22.297 0l87.679-87.681-26.989-48.604z" fill="#365e7d" fill-rule="evenodd"/></g><g><path clip-rule="evenodd" d="m224.23 289.437-87.679 87.71c-6.114 6.086-16.097 6.115-22.24.057l15.642 15.642c6.143 6.115 16.182 6.115 22.297 0l87.679-87.681z" fill="#2b4d66" fill-rule="evenodd"/></g><g><path clip-rule="evenodd" d="m165.758 230.992 74.17 74.172 26.307-26.307c6.114-6.115 6.114-16.154 0-22.297l-51.874-51.875c-6.143-6.115-16.182-6.115-22.297 0z" fill="#f9f6f6" fill-rule="evenodd"/></g><g><path clip-rule="evenodd" d="m250.536 263.158-26.307 26.279 15.699 15.727 26.307-26.307c6.114-6.115 6.114-16.154 0-22.297l-15.699-15.699c6.115 6.143 6.115 16.154 0 22.297z" fill="#dddaec" fill-rule="evenodd"/></g><g><path clip-rule="evenodd" d="m367.167 357.324-51.76 37.371c-5.517 3.982-13.196 9.727-5.688 17.206l9.527 9.556 31.198 31.171 9.527 9.556c7.508 7.48 13.224-.199 17.206-5.716l37.398-51.761c2.872-4.01 3.498-9.215 0-12.713l-.91-.91-32.876-32.849-.91-.91c-3.498-3.5-8.702-2.902-12.712-.001z" fill="#365e7d" fill-rule="evenodd"/></g><g><path clip-rule="evenodd" d="m413.665 391.082 15.727-15.727c9.044-9.044 9.044-23.833 0-32.877-2.446-2.446-5.318-4.209-8.39-5.347 3.015 8.248 1.251 17.889-5.347 24.487l-15.727 15.727z" fill="#dddaec" fill-rule="evenodd"/></g><g><path clip-rule="evenodd" d="m400.839 390.968-37.398 51.761c-3.982 5.489-9.669 13.168-17.149 5.773l4.152 4.124 9.527 9.556c7.508 7.48 13.224-.199 17.206-5.716l37.398-51.761c2.872-4.01 3.498-9.215 0-12.713l-.91-.91-12.798-12.77h.028c2.56 2.617 2.872 6.172 1.649 9.442-.397 1.11-.994 2.219-1.705 3.214z" fill="#2b4d66" fill-rule="evenodd"/></g><g><path d="m369.84 420.992c-1.945 0-3.89-.74-5.376-2.223l-11.347-11.319c-2.976-2.968-2.982-7.788-.013-10.764 2.967-2.977 7.787-2.984 10.764-.013l11.347 11.319c2.976 2.968 2.982 7.788.013 10.764-1.486 1.49-3.437 2.236-5.388 2.236z" fill="#f9f6f6"/></g></g></svg>