<svg id="Layer_1" enable-background="new 0 0 512 512" height="512" viewBox="0 0 512 512" width="512" xmlns="http://www.w3.org/2000/svg"><g><g><path clip-rule="evenodd" d="m116.232 440.415 72.805-72.807-8.94-34.719-35.702-9.924-72.805 72.807c-4.113-.894-8.404-1.401-12.785-1.401-32.483 0-58.798 26.345-58.798 58.829 0 32.485 26.314 58.8 58.798 58.8s58.828-26.315 58.828-58.799c0-4.411-.507-8.673-1.401-12.786zm-57.427-12.487c13.947 0 25.271 11.295 25.271 25.272 0 13.947-11.324 25.272-25.271 25.272s-25.271-11.325-25.271-25.272c-.001-13.977 11.324-25.272 25.271-25.272z" fill="#365e7d" fill-rule="evenodd"/></g><g><path clip-rule="evenodd" d="m444.642 34.719c0-19.192-10.52-34.719-23.513-34.719-12.606 0-22.887 14.663-23.483 33.08 5.483 23.991 18.864 24.169 28.967 32.127 1.787-3.934 18.029-28.103 18.029-30.488z" fill="#ffbc85" fill-rule="evenodd"/></g><g><path clip-rule="evenodd" d="m511.993 90.867c0-12.994-15.556-23.514-34.719-23.514-7.957 10.371-15.288 8.732-26.285 13.709 7.987 10.103 14.48 23.845 27.924 33.289 18.418-.596 33.08-10.878 33.08-23.484z" fill="#ffbc85" fill-rule="evenodd"/></g><g><path clip-rule="evenodd" d="m162.901 257.073-19.967 19.967c-12.248 12.219-12.248 32.246 0 44.465l47.563 47.564c12.219 12.249 32.245 12.249 44.464 0l19.967-19.967c-26.584-30.428-59.425-64.045-92.027-92.029z" fill="#f9f6f6" fill-rule="evenodd"/></g><g><path clip-rule="evenodd" d="m477.275 67.353c9.805-12.785 11.593-28.044 3.517-36.15-8.106-8.076-23.364-6.288-36.149 3.517-.06.06-.119.089-.179.149-2.712 2.086-5.215 4.47-7.45 7.063-2.921 3.427-5.364 7.093-7.242 11.176 1.162 18.298 11.056 28.014 29.086 29.117 7.181-3.279 13.619-8.614 18.417-14.872z" fill="#ffe07d" fill-rule="evenodd"/></g><g><path clip-rule="evenodd" d="m445.179 312.028c53.464-53.495 64.728-133.186 33.735-197.677-6.944-14.484-15.884-27.895-26.523-39.875-6.884-7.778-14.454-14.931-22.619-21.368-10.103-7.957-20.861-14.633-32.126-20.027-64.49-30.994-144.208-19.729-197.672 33.736-51.437 51.438-63.775 127.136-37.073 190.257 17.464 41.306 50.722 74.565 92.026 92.029 63.119 26.701 138.815 14.334 190.252-37.075z" fill="#365e7d" fill-rule="evenodd"/></g><g><path clip-rule="evenodd" d="m322.576 325.618c75.218 0 136.192-60.975 136.192-136.196s-60.973-136.195-136.192-136.195-136.192 60.975-136.192 136.196 60.974 136.195 136.192 136.195z" fill="#9dc6fb" fill-rule="evenodd"/></g><g><path clip-rule="evenodd" d="m458.768 189.422c0-75.221-60.973-136.196-136.192-136.196-3.636 0-7.242.149-10.818.417 61.361 13.232 107.344 67.8 107.344 133.126 0 71.585-55.222 130.265-125.374 135.778 9.298 1.997 18.954 3.07 28.848 3.07 75.219.001 136.192-60.974 136.192-136.195z" fill="#80b4fb" fill-rule="evenodd"/></g><g><path clip-rule="evenodd" d="m478.914 114.351c0-.03 0-.03 0-.06zm-81.268-81.271c-22.083-10.61-45.983-16.272-69.973-16.987 30.844 14.484 57.278 36.806 76.709 64.402 33.02 24.855 54.387 64.402 54.387 108.927 0 40.859-17.97 77.485-46.46 102.46-17.404 29.117-42.199 53.316-71.791 70.005 38.235-3.964 75.367-20.593 104.662-49.859 53.464-53.495 64.728-133.186 33.735-197.677 0-.03 0-.03 0-.06-.03-.03-.06-.089-.06-.119-.149-.268-.268-.507-.387-.775-.298-.626-.626-1.252-.924-1.878-5.215-10.371-11.474-20.206-18.685-29.295-.834-1.103-1.699-2.146-2.563-3.219-1.281-1.52-2.593-3.04-3.904-4.53-.656-.775-1.341-1.52-2.026-2.265-.179-.179-.328-.358-.507-.536-1.52-1.639-3.099-3.278-4.679-4.858-2.474-2.474-5.036-4.888-7.659-7.212-.894-.805-1.788-1.58-2.682-2.354-.745-.626-1.52-1.281-2.295-1.907-.894-.745-1.818-1.49-2.772-2.235-10.103-7.958-20.862-14.633-32.126-20.028z" fill="#2b4d66" fill-rule="evenodd"/></g><g><path clip-rule="evenodd" d="m172.914 351.516-72.775 72.806c.894 4.113 1.371 8.374 1.371 12.785 0 32.484-26.315 58.8-58.798 58.8-12.129 0-23.394-3.666-32.752-9.954 10.55 15.706 28.491 26.047 48.845 26.047 32.483 0 58.828-26.315 58.828-58.799 0-4.411-.507-8.672-1.401-12.785l72.805-72.807-14.483-14.484c-.03-.03-.06-.03-.06-.06-.03-.03-.06-.06-.089-.089z" fill="#2b4d66" fill-rule="evenodd"/></g><g><path clip-rule="evenodd" d="m233.589 338.254-14.722 14.722c-8.493 8.523-20.801 11.116-31.619 7.778-4.649-1.46-9.03-3.993-12.695-7.629l14.483 14.484 1.46 1.46c12.219 12.249 32.245 12.249 44.464 0l19.967-19.967c-.715-.298-1.43-.596-2.146-.924-6.615-2.891-13.023-6.229-19.192-9.924z" fill="#dddaec" fill-rule="evenodd"/></g></g></svg>