<svg id="Layer_1" enable-background="new 0 0 512 512" height="512" viewBox="0 0 512 512" width="512" xmlns="http://www.w3.org/2000/svg"><g><g><path d="m96.348 506.841c-15.564 0-30.157-6.022-41.09-16.956-22.658-22.657-22.658-59.523 0-82.182 2.978-2.977 7.807-2.977 10.786 0 2.979 2.979 2.979 7.807 0 10.786-8.053 8.053-12.488 18.815-12.488 30.305s4.435 22.252 12.488 30.305c8.053 8.054 18.815 12.489 30.305 12.489s22.252-4.435 30.305-12.488l61.997-62.028c22.677-22.645 59.541-22.643 82.182-.002 2.979 2.979 2.979 7.807 0 10.786-2.978 2.977-7.807 2.977-10.786 0-16.698-16.699-43.888-16.697-60.613.004l-61.993 62.023c-10.936 10.936-25.529 16.958-41.093 16.958z" fill="#d0cee7"/></g><g><path d="m347.729 486.759c-1.95 0-3.9-.744-5.389-2.23l-25.529-25.552c-2.98-2.976-2.984-7.805-.007-10.785 2.977-2.981 7.805-2.982 10.785-.007l25.529 25.552c2.98 2.976 2.984 7.805.007 10.786-1.489 1.49-3.443 2.236-5.396 2.236z" fill="#dddaec"/></g><g><path d="m322.517 512c-1.952 0-3.904-.745-5.393-2.233l-24.09-24.096c-2.979-2.979-2.979-7.807 0-10.786 2.979-2.977 7.808-2.977 10.785 0l24.09 24.096c2.979 2.979 2.979 7.807 0 10.786-1.488 1.488-3.441 2.233-5.392 2.233z" fill="#dddaec"/></g><g><path clip-rule="evenodd" d="m289.074 260.416 85.989-14.334 65.476-55.045-7.753-16.92c-4.266-9.281-15.363-13.403-24.644-9.166l-117.656 53.901c-9.281 4.266-13.403 15.363-9.166 24.644z" fill="#d0cee7" fill-rule="evenodd"/></g><g><path clip-rule="evenodd" d="m99.937 421.686 26.431-26.432c-4.593-16.768-9.445-21.281-17.832-30.044-8.762-8.388-9.81-14.555-30.043-17.833l-26.431 26.432c-8.445 8.445-8.445 22.252 0 30.697l8.589 8.59 8.589 8.59c8.445 8.445 22.251 8.445 30.697 0z" fill="#f9f6f6" fill-rule="evenodd"/></g><g><path clip-rule="evenodd" d="m472.707 187.666c-7.149 29.286-21.416 60.555-60.525 78.798l-261.114 121.812c-8.674 4.068-17.002 6.315-24.7 6.976-11.765 1.027-22.076-1.596-30.018-7.067-2.125-1.444-4.068-3.112-5.837-4.952-1.841-1.769-3.498-3.712-4.952-5.827-5.471-7.952-8.094-18.253-7.067-30.029.661-7.698 2.908-16.026 6.976-24.7l121.801-261.115c18.253-39.119 49.553-53.386 78.808-60.535 13.972-3.396 9.681 2.024 6.569 10.525l-9.945 21.649-69.372 151.465-43.329 94.54c-12.274 26.805 2.451 34.645 24.537 24.537l94.539-43.329 151.465-69.372 21.639-9.945c8.502-3.122 13.922-7.414 10.525 6.569z" fill="#365e7d" fill-rule="evenodd"/></g><g><path clip-rule="evenodd" d="m186.031 331.553c7.552-7.552 10.405-18.073 8.503-27.815-1.124-5.88-3.978-11.472-8.503-16.026-4.554-4.525-10.146-7.379-16.026-8.503-9.742-1.902-20.263.951-27.814 8.503-12.106 12.106-12.106 31.735 0 43.841s31.735 12.106 43.84 0z" fill="#f9f6f6" fill-rule="evenodd"/></g><g><path clip-rule="evenodd" d="m254.89 183.254 53.899-117.659c4.266-9.281.115-20.379-9.166-24.644l-16.919-7.754-47.587 66.381-21.79 85.088 16.919 7.754c9.281 4.237 20.378.115 24.644-9.166z" fill="#d0cee7" fill-rule="evenodd"/></g><g><path clip-rule="evenodd" d="m400.879 248.684-261.109 121.839c-8.676 4.035-17.006 6.284-24.73 6.947-6.255.548-12.106.058-17.409-1.355-6.745-1.787-12.596-5.044-17.294-9.541 2.046 6.543 5.505 12.193 10.175 16.66 8.388 8.762 20.954 13.317 35.856 12.02 7.696-.663 16.026-2.911 24.701-6.975l261.109-121.81c39.113-18.246 53.38-49.52 60.529-78.805 3.401-13.98-2.018-9.685-10.52-6.572l-4.554 2.104c-8.216 25.077-23.521 49.981-56.754 65.488z" fill="#2b4d66" fill-rule="evenodd"/></g><g><path clip-rule="evenodd" d="m270.8 5.468-88.545 193.293-41.39 90.363c.404-.461.865-.951 1.326-1.412 7.552-7.552 18.072-10.405 27.814-8.503l43.321-94.542 69.377-151.47 9.944-21.647c3.113-8.503 7.408-13.922-6.572-10.521-5.071 1.24-10.173 2.681-15.275 4.439z" fill="#2b4d66" fill-rule="evenodd"/></g><g><path clip-rule="evenodd" d="m170.006 279.209c-9.742-1.902-20.263.951-27.814 8.503-.346.346-.692.692-1.009 1.066 4.266-1.009 8.705-1.095 12.97-.259 3.459.663 6.802 1.902 9.886 3.747 2.191 1.297 4.266 2.882 6.139 4.756 4.064 4.064 6.745 8.964 8.099 14.153.144.634.288 1.239.404 1.874 1.816 9.31-.692 19.312-7.494 26.777 5.448-1.268 10.607-4.035 14.844-8.272 7.552-7.552 10.405-18.073 8.503-27.815-1.124-5.88-3.978-11.472-8.503-16.026-4.554-4.526-10.145-7.38-16.025-8.504z" fill="#dddaec" fill-rule="evenodd"/></g><g><path clip-rule="evenodd" d="m62.034 363.836c-.663 13.864 3.891 25.567 12.192 33.493 8.388 8.762 20.954 13.345 35.827 12.048.807-.086 1.643-.173 2.479-.288l13.835-13.835c-14.902 1.297-27.468-3.257-35.856-12.02-4.669-4.468-8.128-10.117-10.175-16.66-1.787-5.765-2.479-12.221-1.845-19.197z" fill="#dddaec" fill-rule="evenodd"/></g><g><path clip-rule="evenodd" d="m329.484 448.722-26.258-26.259c-10.376-10.377-27.382-10.377-37.787 0-10.376 10.405-10.376 27.412 0 37.788l26.258 26.259c1.701 1.701 4.468 1.701 6.168 0l2.363-2.392 26.229-26.23 3.026-2.998c1.702-1.7 1.702-4.467.001-6.168z" fill="#365e7d" fill-rule="evenodd"/></g><g><path clip-rule="evenodd" d="m303.226 422.464c-10.376-10.377-27.382-10.377-37.787 0-2.623 2.652-4.583 5.678-5.88 8.964 9.627-3.862 21.099-1.874 28.852 5.88l26.229 26.23c1.701 1.701 1.701 4.468 0 6.168l11.817-11.818 3.026-2.998c1.701-1.701 1.701-4.468 0-6.168z" fill="#2b4d66" fill-rule="evenodd"/></g><g><path d="m147.58 336.944-51.231 51.241c-2.125-1.444-4.068-3.112-5.837-4.952-1.841-1.769-3.498-3.712-4.952-5.827l51.241-51.241c2.979-2.979 7.81-2.979 10.779 0 2.979 2.969 2.979 7.799 0 10.779z" fill="#d0cee7"/></g><g><path d="m164.111 348.259c-10.318 0-20.017-4.018-27.313-11.314-15.06-15.061-15.06-39.565 0-54.626 7.295-7.296 16.995-11.314 27.313-11.314s20.017 4.018 27.313 11.314c15.06 15.061 15.06 39.565 0 54.626-7.295 7.296-16.995 11.314-27.313 11.314zm0-62c-6.243 0-12.113 2.431-16.527 6.845-9.113 9.114-9.113 23.942 0 33.057 4.415 4.414 10.284 6.845 16.527 6.845s12.113-2.431 16.527-6.845c9.113-9.114 9.113-23.942 0-33.057-4.414-4.414-10.283-6.845-16.527-6.845z" fill="#d0cee7"/></g></g></svg>