<svg id="Layer_1" enable-background="new 0 0 512 512" height="512" viewBox="0 0 512 512" width="512" xmlns="http://www.w3.org/2000/svg"><g><g><path clip-rule="evenodd" d="m361.812 382.75c-5.023-25.056-11.651-45.906-17.025-54.93l-83.546-21.347-93.446 20.821c-8.439 14.455-14.075 39.131-17.346 55.456 2.365 64.625 55.834 92.368 105.681 92.368 50.842-.001 104.193-27.743 105.682-92.368z" fill="#fe72c5" fill-rule="evenodd"/></g><g><path clip-rule="evenodd" d="m341.021 290.324c9.053-48.943 27.304-107.232 50.899-142.129-63.105 32.561-209.026 32.619-271.839 0 23.595 34.897 41.846 93.185 50.899 142.129l86.612 16.879z" fill="#fe72c5" fill-rule="evenodd"/></g><g><path clip-rule="evenodd" d="m294.444 290.324v-19.069c0-10.484-8.585-19.069-19.069-19.069h-38.751c-10.513 0-19.098 8.586-19.098 19.069v19.069l39.627 9.695z" fill="#ffe07d" fill-rule="evenodd"/></g><g><path clip-rule="evenodd" d="m255.985 12.724c-26.895 0-53.527-3.534-79.546-10.221-44.124-11.36-83.721 17.113-83.721 61.617 0 32.21 10.075 60.8 27.362 84.074 29.319 39.453 79.341 63.486 135.905 63.486s106.616-24.034 135.934-63.486c18.076-22.603 27.362-55.426 27.362-84.074 0-44.505-39.627-72.977-83.751-61.617-25.989 6.688-52.621 10.221-79.545 10.221z" fill="#fe93d3" fill-rule="evenodd"/></g><g><path clip-rule="evenodd" d="m255.985 174.769c65.237 0 126.385-41 126.385-110.648 0-21.23-18.309-30.838-37.641-25.873-28.997 7.476-58.783 11.389-88.744 11.389s-59.718-3.913-88.744-11.389c-19.332-4.964-37.612 4.643-37.612 25.873.001 69.648 61.149 110.648 126.356 110.648z" fill="#f9f6f6" fill-rule="evenodd"/></g><g><path clip-rule="evenodd" d="m255.985 211.681c-56.564 0-106.586-24.034-135.905-63.486 10.221 15.127 17.667 29.962 25.581 51.192 44.445 47.191 146.826 35.306 184.876 21.931 11.476-4.03 5.928-.847 2.103 15.828l-12.411 53.178h20.792c9.023-48.943 27.304-107.232 50.899-142.129-29.319 39.453-79.371 63.486-135.935 63.486z" fill="#fe4eb7" fill-rule="evenodd"/></g><g><path clip-rule="evenodd" d="m366.894 485.922c5.373-29.991 1.518-70.203-5.081-103.173-11.827 47.337-54.841 82.643-105.681 82.643-49.847 0-93.592-34.342-105.681-82.643-6.629 32.97-10.454 73.182-5.081 103.173 3.533 19.712 7.768 25.669 23.829 26.078h86.934 86.934c16.059-.409 20.293-6.366 23.827-26.078z" fill="#f9f6f6" fill-rule="evenodd"/></g><g><path clip-rule="evenodd" d="m281.07 392.094c0-13.784-11.155-24.968-24.938-24.968s-24.967 11.185-24.967 24.968c0 13.784 11.184 24.939 24.967 24.939s24.938-11.155 24.938-24.939z" fill="#ffe07d" fill-rule="evenodd"/></g><g><path clip-rule="evenodd" d="m361.812 382.75c-5.023-25.056-11.651-45.906-17.025-54.93-.117-.175-.204-.35-.321-.526h-8.673-159.587-8.41c-.117.175-.204.35-.321.526-2.541 4.234-5.315 11.068-8.089 19.712h154.068 8.702l.292.496c5.402 9.024 12.002 29.903 17.025 54.93 1.256 6.191 2.395 12.615 3.387 19.215 8.79-11.593 15.331-24.939 18.952-39.423z" fill="#fe4eb7" fill-rule="evenodd"/></g><g><path clip-rule="evenodd" d="m366.894 485.922c5.373-29.991 1.518-70.203-5.081-103.173-3.621 14.484-10.162 27.83-18.952 39.423 2.19 22.866 3.183 51.28-10.629 89.827h11.155c15.797-.495 20.002-6.482 23.507-26.077z" fill="#dddaec" fill-rule="evenodd"/></g><g><path clip-rule="evenodd" d="m365.229 308.809c0-10.163-8.322-18.485-18.485-18.485h-5.724-46.577-76.917-52.3c-10.162 0-18.485 8.323-18.485 18.485s8.322 18.485 18.485 18.485h181.518c10.163 0 18.485-8.323 18.485-18.485z" fill="#f9f6f6" fill-rule="evenodd"/></g><g><path clip-rule="evenodd" d="m365.229 308.809c0-10.163-8.322-18.485-18.485-18.485h-5.724-20.792-6.308c3.913.029 7.534 1.256 10.513 3.358 4.76 3.358 7.884 8.907 7.884 15.127 0 .613-.029 1.256-.088 1.84-.934 9.316-8.877 16.645-18.397 16.645h21.96 8.673 2.278c10.164 0 18.486-8.323 18.486-18.485z" fill="#dddaec" fill-rule="evenodd"/></g><g><path clip-rule="evenodd" d="m255.985 174.769c65.237 0 126.385-41 126.385-110.648 0-21.23-18.309-30.838-37.641-25.873-8.176 2.132-16.411 3.942-24.734 5.461-21.084 3.913-42.488 5.928-64.01 5.928-29.961 0-59.718-3.913-88.744-11.389-19.332-4.964-37.612 4.643-37.612 25.873 0 5.987.438 11.739 1.314 17.288.38-1.256.876-2.453 1.402-3.592 5.811-12.061 20.062-16.85 34.896-13.024 29.027 7.447 58.783 11.36 88.744 11.36 19.04 0 51.541-6.863 75.194-11.856 13.783-2.891 24.792-6.541 22.894 6.921-7.446 53.119-54.052 95.667-134.824 99.084 11.827 2.949 24.209 4.467 36.736 4.467z" fill="#dddaec" fill-rule="evenodd"/></g></g></svg>