<svg id="Layer_1" enable-background="new 0 0 512 512" height="512" viewBox="0 0 512 512" width="512" xmlns="http://www.w3.org/2000/svg"><g><g><path clip-rule="evenodd" d="m256 456.818c-12.995-57.674-75.544-110.364-200.905-99.822-2.833 40.036.584 86.497 16.849 135.235 6.161 18.456 12.089 19.682 25.902 19.77h4.877 153.277z" fill="#ffeee6" fill-rule="evenodd"/></g><g><path clip-rule="evenodd" d="m456.876 356.995c-125.507-5.49-191.444 41.36-200.876 99.822v55.183h153.248 4.906c13.812-.088 19.74-1.314 25.902-19.77 16.265-48.738 19.681-95.199 16.82-135.235z" fill="#ffeee6" fill-rule="evenodd"/></g><g><path clip-rule="evenodd" d="m445.781 290.297-61.986 7.726-108.603 13.537-16.256 2.029-.834.103-4.801-.587-16.267-1.978-107.449-13.104-63.367-7.726c.7-2.648 1.422-5.223 2.153-7.726 3.492-11.992 7.273-22.365 10.848-30.823 3.327-7.85 6.243-15.412 8.787-22.746l13.784-79.87c-.237-19.563-2.926-40.208-7.737-63.861-4.502-21.964-8.942-41.671-9.931-65.911-.493-12.705 6.863-19.36 17.782-19.36h308.191c10.92 0 18.276 6.655 17.781 19.357-.989 24.24-5.429 43.948-9.931 65.911-3.616 17.781-6.037 33.872-7.118 49.058l6.336 72.278c3.678 14.278 8.818 29.082 15.618 45.143 3.554 8.458 7.345 18.832 10.848 30.823.731 2.503 1.452 5.079 2.152 7.727z" fill="#ffeee6" fill-rule="evenodd"/></g><g><path clip-rule="evenodd" d="m146.057 140.958c-12.148 2.015-27.741 3.825-44.269 8.177-41.933 11.068-89.706 38.605-101.212 127.788-1.314 10.221-.35 14.922 9.111 6.308 22.222-20.237 50.781-41.175 78.318-54.228 20.996-9.929 41.407-15.273 58.052-12.236v33.641c0 7.709 3.621 8.06 8.906 3.358l78.668-69.851c4.585-4.088 4.585-6.016 0-10.104l-78.668-69.881c-5.285-4.702-8.906-4.351-8.906 3.358z" fill="#a7e9a6" fill-rule="evenodd"/></g><g><path clip-rule="evenodd" d="m357.036 103.93-78.668 69.881c-4.614 4.088-4.614 6.016 0 10.104l78.668 69.851c5.285 4.702 8.906 4.351 8.906-3.358v-33.641c13.841-2.307 32.18-4.322 51.219-10.162 40.123-12.294 83.37-41.525 94.262-125.832 1.314-10.221.35-14.893-9.111-6.278-25.785 23.449-60.096 47.891-91.488 59.835-16.265 6.191-31.742 9.023-44.882 6.629v-33.67c.001-7.71-3.62-8.06-8.906-3.359z" fill="#a7e9a6" fill-rule="evenodd"/></g><g><path clip-rule="evenodd" d="m229.894 426.818v85.182h26.106v-54.152c-5.49-12.002-14.221-19.204-26.106-31.03z" fill="#ffdfcf" fill-rule="evenodd"/></g><g><path clip-rule="evenodd" d="m388.369 251.751c4.322 10.221 8.936 23.245 12.995 38.547h44.415c-4.059-15.302-8.702-28.326-12.995-38.547-6.804-16.061-11.943-30.867-15.623-45.146-15.068 4.614-29.698 6.862-42.021 8.702 3.418 11.593 7.798 23.624 13.229 36.444z" fill="#ffdfcf" fill-rule="evenodd"/></g><g><path clip-rule="evenodd" d="m412.869 363.186c2.073 38.605-1.781 82.817-17.229 129.044-6.161 18.456-12.089 19.682-25.902 19.77h39.509 4.906c13.812-.088 19.74-1.314 25.902-19.77 16.265-48.738 19.682-95.199 16.82-135.235-15.505 1.314-30.193 3.417-44.006 6.191z" fill="#ffdfcf" fill-rule="evenodd"/></g><g><path clip-rule="evenodd" d="m373.535 85.27c-3.621 17.784-6.045 33.874-7.125 49.059-.146.058-.292.117-.467.175v6.454c13.141 2.395 28.617-.438 44.882-6.629 1.08-15.185 3.504-31.275 7.125-49.059 4.497-21.96 8.936-41.671 9.928-65.909.497-12.703-6.862-19.361-17.783-19.361h-44.415c10.921 0 18.28 6.658 17.784 19.361-.993 24.238-5.432 43.949-9.929 65.909z" fill="#ffdfcf" fill-rule="evenodd"/></g><g><path clip-rule="evenodd" d="m3.905 257.183c-1.314 6.22-2.424 12.79-3.329 19.741-1.314 10.221-.35 14.922 9.111 6.308 22.222-20.237 50.781-41.175 78.318-54.228 20.996-9.929 41.407-15.273 58.052-12.236v33.641c0 7.709 3.621 8.06 8.906 3.358l78.668-69.851c2.132-1.898 4.731-4.176 3.417-4.731-54.08-23.45-216.848.992-233.143 77.998z" fill="#7fdbae" fill-rule="evenodd"/></g><g><path clip-rule="evenodd" d="m421.688 168.262c-56.504 20.938-120.747 22.223-146.561 9.491-.701 1.898.38 3.621 3.241 6.162l78.668 69.851c5.285 4.702 8.906 4.351 8.906-3.358v-33.641c2.891-.496 5.957-.964 9.198-1.46 12.323-1.84 26.953-4.088 42.021-8.702 35.217-10.805 72.828-34.634 88.889-97.301-25.346 24.967-51.218 46.664-84.362 58.958z" fill="#7fdbae" fill-rule="evenodd"/></g><g><path clip-rule="evenodd" d="m456.876 356.991c-107.541 9.091-174.473 56.246-198.158 100.527-1.166 2.18-4.27 2.18-5.436 0-23.688-44.28-90.648-91.436-198.189-100.527 1.576-21.768 4.976-41.651 9.169-58.968.628-2.637 1.288-5.213 1.957-7.726h379.562c.67 2.514 1.329 5.089 1.957 7.726 4.193 17.317 7.593 37.2 9.138 58.968z" fill="#fe93d3" fill-rule="evenodd"/></g><g><path clip-rule="evenodd" d="m401.364 290.298c5.081 19.04 9.315 41.613 11.096 66.698.146 2.044.292 4.118.409 6.191 13.812-2.774 28.5-4.877 44.006-6.191-1.781-25.085-6.015-47.658-11.096-66.698z" fill="#fe72c5" fill-rule="evenodd"/></g><g><path d="m256 242.423c-4.268 0-7.726-3.459-7.726-7.726v-15.944c0-4.268 3.459-7.726 7.726-7.726s7.726 3.459 7.726 7.726v15.944c0 4.267-3.458 7.726-7.726 7.726z" fill="#ffcebf"/></g><path d="m268.465 298.023 6.727 13.537 8.55 17.235c1.896 3.822.33 8.458-3.492 10.353-1.102.556-2.266.814-3.42.814-2.843 0-5.584-1.576-6.933-4.296l-10.961-22.077-2.936-5.913-2.699 5.429-11.198 22.561c-1.35 2.72-4.09 4.296-6.933 4.296-1.154 0-2.318-.258-3.42-.814-3.822-1.896-5.388-6.531-3.492-10.353l8.777-17.668 6.5-13.104h-179.274c.628-2.637 1.288-5.213 1.957-7.726.7-2.648 1.422-5.223 2.153-7.726h375.256c.732 2.503 1.453 5.079 2.153 7.726.67 2.514 1.329 5.089 1.957 7.726z" fill="#fe4eb7"/></g></svg>