<svg id="Layer_1" enable-background="new 0 0 512 512" height="512" viewBox="0 0 512 512" width="512" xmlns="http://www.w3.org/2000/svg"><g><g><path clip-rule="evenodd" d="m372.271 391.269v-308.706c0-20.88-17.113-37.964-37.992-37.964h-270.706c-20.88 0-37.963 17.084-37.963 37.964v308.706l183.558 53.954z" fill="#365e7d" fill-rule="evenodd"/></g><g><path clip-rule="evenodd" d="m397.852 407.33c0-8.849-7.213-16.062-16.061-16.062h-9.52-346.661-9.549c-8.848.001-16.061 7.214-16.061 16.062v16.558c0 28.152 23.245 43.513 65.238 43.513h267.376c41.993 0 65.238-15.361 65.238-43.513z" fill="#d09080" fill-rule="evenodd"/></g><g><path clip-rule="evenodd" d="m257.74 410.28v-19.011h-117.598v19.011c0 10.484 8.556 19.04 19.011 19.04h79.547c10.454 0 19.04-8.556 19.04-19.04z" fill="#f9f6f6" fill-rule="evenodd"/></g><g><path clip-rule="evenodd" d="m294.535 313.53c52.798-52.799 52.798-138.423 0-191.193-9.024-9.024-19.011-16.529-29.611-22.457-51.484-28.823-117.802-21.318-161.576 22.457s-51.28 110.096-22.458 161.581c5.928 10.601 13.433 20.588 22.457 29.612 52.769 52.799 138.39 52.799 191.188 0z" fill="#9dc6fb" fill-rule="evenodd"/></g><g><path clip-rule="evenodd" d="m294.535 122.337c-9.024-9.024-19.011-16.529-29.611-22.457-25.669-14.368-55.046-19.712-83.46-16.033 12.791 2.803 25.26 7.476 36.97 14.017 9.9 5.549 19.274 12.441 27.801 20.676.613.584 1.226 1.168 1.811 1.781 36.649 36.65 47.863 89.099 33.641 135.415 4.293-2.95 9.958-5.549 16.675-7.826 9.491-3.212 21.084-5.724 33.904-7.593 6.948-41.613-5.638-85.885-37.731-117.98z" fill="#80b4fb" fill-rule="evenodd"/></g><g><path clip-rule="evenodd" d="m267.698 286.663c-5.432 8.849-12.002 17.201-19.653 24.852-21.931 21.932-49.556 34.781-78.116 38.46 37.934 8.294 78.759.117 110.998-24.56l-7.009-17.347c-3.037-8.03-5.286-15.068-6.22-21.405z" fill="#80b4fb" fill-rule="evenodd"/></g><g><path clip-rule="evenodd" d="m334.279 44.599h-110.034c21.96 17.96 40.708 39.862 55.163 64.685 5.286 3.913 10.338 8.264 15.127 13.054 32.093 32.094 44.68 76.366 37.729 117.981 4.03-.584 8.206-1.11 12.469-1.548 8.848-.935 18.105-1.577 27.538-1.927v-154.281c0-20.88-17.112-37.964-37.992-37.964z" fill="#2b4d66" fill-rule="evenodd"/></g><g><path clip-rule="evenodd" d="m257.74 410.28c0 10.484-8.585 19.04-19.04 19.04h-16.937c-8.994 14.66-23.683 27.655-42.431 38.081h153.283c-17.434 0-31.655-14.251-31.655-31.656v-28.21-16.266h-43.22z" fill="#ce775f" fill-rule="evenodd"/></g><g><path d="m120.372 197.519c-1.962 0-3.924-.748-5.421-2.246-2.992-2.994-2.99-7.847.003-10.838l46.256-46.228c2.994-2.994 7.847-2.991 10.838.003 2.992 2.994 2.991 7.847-.003 10.838l-46.256 46.228c-1.496 1.495-3.457 2.243-5.417 2.243z" fill="#80b4fb"/></g><g><path d="m122.095 250.494c-1.963 0-3.925-.749-5.422-2.247-2.992-2.995-2.989-7.847.005-10.838l29.495-29.466c2.995-2.993 7.847-2.988 10.838.005 2.992 2.995 2.989 7.847-.005 10.838l-29.495 29.466c-1.496 1.494-3.456 2.242-5.416 2.242zm58.726-58.728c-1.961 0-3.923-.748-5.419-2.244-2.993-2.994-2.993-7.846 0-10.838l43.716-43.717c2.993-2.994 7.846-2.993 10.838-.001 2.993 2.993 2.993 7.846 0 10.838l-43.716 43.716c-1.497 1.497-3.458 2.246-5.419 2.246z" fill="#80b4fb"/></g><g><path clip-rule="evenodd" d="m505.291 308.074-27.049 66.84-88.626 16.299-88.656-16.299-20.039-49.499-7-17.341c-9.003-23.779-11.097-39.076 7.357-52.074 2.749-1.921 6.08-3.709 9.922-5.365 2.217-.96 4.619-1.87 7.163-2.728 2.33-.787 4.782-1.533 7.357-2.238 7.899-2.166 16.871-3.944 26.538-5.355 1.604-.235 3.219-.45 4.864-.664 2.493-.317 5.038-.613 7.613-.879 2.524-.266 5.068-.511 7.654-.726 6.479-.552 13.131-.95 19.885-1.206 3.198-.133 6.417-.215 9.646-.255 2.555-.041 5.109-.061 7.664-.061s5.12.02 7.664.072c10.035.153 19.988.623 29.562 1.441 2.585.225 5.14.47 7.664.736 2.565.276 5.109.572 7.603.889 11.527 1.482 22.185 3.495 31.402 6.009 2.575.705 5.028 1.451 7.368 2.238 2.534.858 4.925 1.768 7.153 2.728 3.832 1.656 7.173 3.444 9.922 5.365 18.467 12.997 16.362 28.294 7.369 52.073z" fill="#ffe07d" fill-rule="evenodd"/></g><g><path clip-rule="evenodd" d="m478.246 407.535-85.096-11.564-92.192 11.564v28.21c0 17.405 14.222 31.656 31.655 31.656h113.977c17.434 0 31.655-14.251 31.655-31.656v-28.21z" fill="#ffbc85" fill-rule="evenodd"/></g><g><path clip-rule="evenodd" d="m478.246 374.915h-177.287v16.354 16.266h177.287z" fill="#f9f6f6" fill-rule="evenodd"/></g><g><path clip-rule="evenodd" d="m478.246 374.915h-28.618v5.257 23.479 3.884h28.618z" fill="#dddaec" fill-rule="evenodd"/></g><g><path clip-rule="evenodd" d="m476.669 308.069-27.041 66.846h28.618l27.041-66.846c8.994-23.771 11.097-39.074-7.359-52.069-4.351-3.037-10.162-5.753-17.083-8.089-12.499-4.205-28.618-7.272-46.373-9.141-14.251-1.519-29.553-2.249-44.884-2.249-4.76 0-9.549.058-14.309.204 4.818.146 9.608.38 14.309.672 5.548.35 10.98.818 16.266 1.373 9.9 1.051 19.303 2.453 27.83 4.234 6.775 1.402 13.024 3.037 18.543 4.906 6.921 2.336 12.732 5.052 17.083 8.089 2.395 1.694 4.439 3.417 6.162 5.198 11.623 11.916 9.024 26.196 1.197 46.872z" fill="#ffd064" fill-rule="evenodd"/></g><g><path clip-rule="evenodd" d="m478.246 407.535h-28.618v28.21c0 17.405-14.251 31.656-31.655 31.656h28.618c17.434 0 31.655-14.251 31.655-31.656z" fill="#f5a96c" fill-rule="evenodd"/></g><g><path d="m397.25 236.595v69.108c0 4.23-3.433 7.664-7.664 7.664-4.23 0-7.664-3.434-7.664-7.664v-69.119c2.555-.041 5.109-.061 7.664-.061s5.12.021 7.664.072z" fill="#ffbc85"/></g><g><path d="m352.391 238.046 9.105 49.059c.777 4.159-1.972 8.165-6.141 8.931-.47.092-.94.133-1.4.133-3.628 0-6.846-2.575-7.531-6.264l-9.227-49.734c-.031-.174-.061-.347-.072-.521z" fill="#ffbc85"/></g><g><path d="m321.357 304.753c-.94.378-1.921.552-2.871.552-3.035 0-5.906-1.809-7.112-4.782l-20.12-49.734c-.02-.051-.041-.102-.051-.153 2.217-.96 4.619-1.87 7.163-2.728 2.33-.787 4.782-1.533 7.357-2.238l19.865 49.1c1.583 3.923-.307 8.389-4.231 9.983z" fill="#ffbc85"/></g><g><path d="m442.079 239.661c-.01.174-.041.337-.071.511l-9.227 49.734c-.685 3.689-3.904 6.264-7.531 6.264-.46 0-.93-.041-1.4-.133-4.169-.766-6.908-4.772-6.141-8.931l9.105-49.07c2.585.225 5.14.47 7.664.736 2.563.275 5.108.572 7.601.889z" fill="#ffbc85"/></g><g><path d="m488.001 250.635c-.01.051-.031.102-.051.153l-20.12 49.734c-1.206 2.974-4.077 4.782-7.112 4.782-.95 0-1.921-.174-2.871-.552-3.924-1.594-5.814-6.06-4.23-9.984l19.865-49.1c2.575.705 5.028 1.451 7.368 2.238 2.533.859 4.924 1.769 7.151 2.729z" fill="#ffbc85"/></g></g></svg>