<svg id="Layer_1" enable-background="new 0 0 512 512" height="512" viewBox="0 0 512 512" width="512" xmlns="http://www.w3.org/2000/svg"><g><g><path d="m93.547 257.529c-1.779 0-3.566-.611-5.023-1.858-18.285-15.664-28.459-46.563-24.741-75.14.551-4.23 4.425-7.224 8.659-6.665 4.231.551 7.215 4.428 6.665 8.659-3.035 23.32 5.154 49.146 19.47 61.41 3.24 2.777 9.792 7.453 7.016 10.694-1.529 1.784-9.868 2.9-12.046 2.9z" fill="#365e7d"/></g><g><path d="m143.485 244.625c-1.886 0-12.1-1.916-13.589-3.303-17.679-16.468-25.937-41.818-21.552-66.157.757-4.199 4.776-6.991 8.974-6.233 4.2.757 6.991 4.774 6.234 8.974-3.463 19.219 3.005 39.187 16.877 52.111 3.122 2.908 11.619 9.027 8.711 12.149-1.522 1.633-3.586 2.459-5.655 2.459z" fill="#365e7d"/></g><g><path d="m175.376 236.62c-2.163 0-4.314-.902-5.842-2.666-11.466-13.228-17.526-33.334-15.815-52.472.38-4.251 4.136-7.395 8.384-7.007 4.25.379 7.388 4.133 7.008 8.383-1.351 15.106 3.286 30.806 12.101 40.975 2.795 3.224 9.677 9.992 6.453 12.787-1.463 1.268-10.495 0-12.289 0z" fill="#365e7d"/></g><g><path d="m219.943 238.145c-2.004 0-4.482-3.584-5.996-5.128-11.855-12.102-18.071-27.759-17.976-45.282.023-4.253 3.478-7.684 7.725-7.684h.043c4.267.023 7.708 3.501 7.685 7.769-.072 13.363 4.617 25.253 13.561 34.383 2.986 3.048 9.036 8.732 7.41 12.509-.831 1.932-10.501 3.433-12.452 3.433z" fill="#365e7d"/></g><g><path d="m56.108 278.294c-1.153 0-2.325-.26-3.428-.807-12.519-6.212-22.883-18.639-29.184-34.992-5.632-14.617-7.722-31.733-5.734-46.958.553-4.23 4.431-7.206 8.662-6.66 4.231.552 7.213 4.431 6.661 8.662-3.125 23.926 6.104 56.002 26.464 66.105 3.822 1.897 11.884 6.048 9.987 9.871-1.349 2.718-10.586 4.779-13.428 4.779z" fill="#365e7d"/></g><g><path clip-rule="evenodd" d="m453.079 174.286c32.589 35.539 37.232 70.407 16.674 59.865-104.775-75.08-333.335-163.271-460.741-69.21-6.366 4.672-9.432 2.949-8.206-3.037 27.245-133.104 333.861-116.634 452.273 12.382z" fill="#d09080" fill-rule="evenodd"/></g><g><path clip-rule="evenodd" d="m23.292 302.221c-11.739 7.972-17.2 17.492-21.317 30.487-1.635 10.63.73 21.873 6.95 34.342 42.138 84.278 123.114 126.621 213.259 140.434 87.137 13.345 178.45-.847 245.351-70.144 9.695-10.046 15.302-20.062 16.937-30.692-.293-125.219-321.364-199.101-461.18-104.427z" fill="#f9f6f6" fill-rule="evenodd"/></g><g><path clip-rule="evenodd" d="m340.916 293.957c-21.388-18.381-45.171-30.34-73.584-34.692-28.413-4.351-55.75-3.263-94.646 8.906-23.799 17.989-40.97 45.497-45.846 77.298-9.929 64.8 34.545 125.395 99.344 135.323 64.827 9.929 125.391-34.546 135.349-99.346 4.847-31.83-3.3-63.193-20.617-87.489z" fill="#d09080" fill-rule="evenodd"/></g><g><path clip-rule="evenodd" d="m181.067 358.085c-.117.672-.234 1.343-.35 2.015-5.344 34.868 18.601 67.486 53.468 72.831 34.867 5.344 67.455-18.602 72.799-53.469s-18.572-67.457-53.439-72.801c-12.761-1.957-25.201 0-36.093 4.964-13.755 7.373-32.192 22.671-36.385 46.46z" fill="#365e7d" fill-rule="evenodd"/></g><g><path clip-rule="evenodd" d="m211.086 309.959c-16.849-2.599-32.589 8.994-35.188 25.844-1.256 8.147.818 16.032 5.169 22.281 4.672 6.716 11.973 11.564 20.675 12.907 16.849 2.57 32.618-8.994 35.188-25.844 2.249-14.63-6.191-28.443-19.477-33.524-2.016-.758-4.147-1.342-6.367-1.664z" fill="#f9f6f6" fill-rule="evenodd"/></g><g><path clip-rule="evenodd" d="m45.309 333.876c28.676-17.2 62.374-28.268 98.175-33.612 7.768-12.528 17.696-23.42 29.202-32.093-51.57 1.986-100.745 13.433-140.634 35.393-11.067 6.074-25.96 16.149-30.078 29.144-1.635 10.63.73 21.873 6.95 34.342 2.979 5.928 6.132 11.652 9.461 17.142-1.869-7.271-2.307-14.192-1.285-20.88 3.972-13.024 17.901-23.245 28.209-29.436z" fill="#dddaec" fill-rule="evenodd"/></g><g><path clip-rule="evenodd" d="m176.103 296.994c26.077-1.402 52.796 0 79.107 4.03 26.281 4.03 52.183 10.688 76.654 19.828 9.228 3.446 18.251 7.242 27.011 11.389-3.679-13.871-9.812-26.866-17.959-38.284-26.486-9.462-54.49-16.441-82.903-20.792s-57.235-6.074-85.327-4.994c-11.505 8.673-21.434 19.566-29.202 32.093 10.718-1.606 21.61-2.686 32.619-3.27z" fill="#ce775f" fill-rule="evenodd"/></g><g><path clip-rule="evenodd" d="m484.471 406.648c-.029-13.637-11.243-27.713-19.974-36.824-31.508-32.882-74.989-58.521-123.581-75.868 8.147 11.418 14.28 24.413 17.959 38.284 33.845 16.032 63.805 37.174 86.728 62.989 8.001 8.994 18.222 22.924 18.105 36.532-.701 4.585-2.103 9.082-4.176 13.521 2.686-2.57 5.373-5.198 8.001-7.943 9.696-10.045 15.303-20.061 16.938-30.691z" fill="#dddaec" fill-rule="evenodd"/></g><g><path clip-rule="evenodd" d="m237.66 228.719c-18.134-1.548-36.327-1.811-54.315-.526-14.104 1.022-28.092 2.979-41.846 6.016-16.324 3.592-32.297 8.673-47.744 15.477-26.982 11.915-52.3 28.998-74.843 52.36-9.695 10.016-15.331 20.033-16.937 30.662 4.117-12.995 19.01-23.07 30.078-29.144 39.889-21.96 89.065-33.407 140.634-35.393 28.092-1.081 56.914.642 85.327 4.994s56.417 11.331 82.903 20.792c48.591 17.346 92.072 42.986 123.581 75.868 8.731 9.111 19.945 23.187 19.974 36.824 1.635-10.63-.73-21.843-6.979-34.342-43.103-86.177-126.006-127.06-213.172-140.405-8.848-1.373-17.755-2.424-26.661-3.183z" fill="#fed1a3" fill-rule="evenodd"/></g><g><path clip-rule="evenodd" d="m453.079 174.286c-32.297-35.16-78.552-61.967-129.333-79.664l-16.791 3.504-22.281 4.672c34.312 16.382 64.915 37.408 88.218 62.814 6.629 7.242 12.119 14.455 16.47 21.259 30.866 15.127 58.374 31.48 80.392 47.279 20.557 10.542 15.914-24.325-16.675-59.864z" fill="#ce775f" fill-rule="evenodd"/></g><g><path clip-rule="evenodd" d="m280.725 69.524-34.275-21.071-24.588 16.528-32.901 22.075c-2.253 1.512-1.604 4.985 1.043 5.581l68.973 15.534z" fill="#fed1a3" fill-rule="evenodd"/></g><g><path clip-rule="evenodd" d="m474.688.649-228.239 47.804 5.431 25.902 7.096 33.816 47.978-10.046 180.261-37.759c16.411-3.446 27.041-19.712 23.595-36.123-3.445-16.41-19.681-27.04-36.122-23.594z" fill="#365e7d" fill-rule="evenodd"/></g><g><path clip-rule="evenodd" d="m254.305 85.92-47.628-10.746-17.715 11.883c-2.253 1.512-1.604 4.985 1.043 5.582l68.972 15.534z" fill="#ffbc85" fill-rule="evenodd"/></g><g><path clip-rule="evenodd" d="m272.234 82.152-17.93 3.767 4.672 22.252 47.978-10.046 180.261-37.759c16.411-3.446 27.041-19.712 23.595-36.123-.818-3.942-2.365-7.534-4.497-10.688-2.132 11.885-11.272 21.902-23.77 24.53l-180.26 37.76z" fill="#2b4d66" fill-rule="evenodd"/></g></g></svg>