<svg id="Layer_1" enable-background="new 0 0 512 512" height="512" viewBox="0 0 512 512" width="512" xmlns="http://www.w3.org/2000/svg"><g><g><path clip-rule="evenodd" d="m277.488 81.685-24.877 24.877 68.784 82.18 84.057 70.636 24.848-24.848-73.349-85.998z" fill="#dddaec" fill-rule="evenodd"/></g><g><path clip-rule="evenodd" d="m266.421 219.616-49.993 49.994v19.27l25.981 6.682 49.963-49.964c5.578-18.644-3.46-27.712-25.951-25.982z" fill="#f9f6f6" fill-rule="evenodd"/></g><g><path clip-rule="evenodd" d="m277.935 234.053-48.352 48.383 11.186 11.186c.626.626 1.163 1.253 1.641 1.939l49.963-49.964c-3.431-8.143-2.387-10.53-14.438-11.544z" fill="#dddaec" fill-rule="evenodd"/></g><g><path clip-rule="evenodd" d="m198.024 271.22-15.63 15.631 13.721 29.024 29.023 13.751 15.63-15.66c5.011-4.982 5.548-12.797 1.641-18.405-.477-.686-1.014-1.312-1.641-1.939l-22.401-22.402c-.597-.597-1.253-1.134-1.939-1.611-5.607-3.907-13.422-3.37-18.404 1.611z" fill="#a7e9a6" fill-rule="evenodd"/></g><g><path clip-rule="evenodd" d="m209.419 313.906h.03c-.03 0-.03 0-.03 0zm14.586-36.75c3.908 5.608 3.341 13.423-1.641 18.405l-6.264 6.294-9.366 9.366 2.655 2.655c.03 0 .03.03.03.03l15.72 15.72 15.63-15.66c5.011-4.982 5.548-12.797 1.641-18.405-.477-.686-1.014-1.312-1.641-1.939l-16.615-16.615z" fill="#7fdbae" fill-rule="evenodd"/></g><g><path clip-rule="evenodd" d="m485.065 239.571 24.519-24.52c3.221-3.222 3.221-8.501 0-11.723l-200.925-200.93c-3.221-3.192-8.501-3.192-11.723 0l-24.519 24.55 87.189 125.433z" fill="#a7e9a6" fill-rule="evenodd"/></g><g><path clip-rule="evenodd" d="m252.611 106.562-24.847 24.848 32.99 32.962 86.861 86.893 32.96 32.961 24.877-24.848z" fill="#f9f6f6" fill-rule="evenodd"/></g><g><path clip-rule="evenodd" d="m302.335 56.837-24.847 24.848 152.812 152.845 24.847-24.877z" fill="#f9f6f6" fill-rule="evenodd"/></g><g><path clip-rule="evenodd" d="m509.584 203.329-93.035-93.008c.925 7.368 1.402 14.944 1.402 22.64 0 12.379-1.223 24.4-3.579 35.915l40.776 40.777-24.848 24.877-24.847 24.848-24.877 24.848 24.072 24.042c3.221 3.222 8.471 3.222 11.693 0l68.725-68.697 24.519-24.52c3.22-3.221 3.22-8.501-.001-11.722z" fill="#7fdbae" fill-rule="evenodd"/></g><g><path clip-rule="evenodd" d="m158.502 297.828-10.708 10.739 55.63 55.662 10.738-10.739 13.632-13.632c2.088-2.088 2.088-5.489 0-7.577l-2.655-2.655-42.744-42.775-2.685-2.655c-2.088-2.088-5.488-2.088-7.547 0z" fill="#ffe07d" fill-rule="evenodd"/></g><g><path clip-rule="evenodd" d="m147.793 308.567-136.316 136.29c-15.302 15.302-15.302 40.359 0 55.662 15.332 15.302 40.358 15.302 55.66 0l136.287-136.29z" fill="#365e7d" fill-rule="evenodd"/></g><g><path clip-rule="evenodd" d="m185.019 345.824-136.287 136.29c-12.081 12.081-30.246 14.616-44.862 7.636 1.849 3.878 4.385 7.547 7.606 10.768 15.332 15.302 40.358 15.302 55.66 0l136.287-136.29z" fill="#2b4d66" fill-rule="evenodd"/></g><g><path clip-rule="evenodd" d="m209.389 321.423-13.632 13.662-10.738 10.739 18.404 18.405 10.738-10.739 13.632-13.632c2.088-2.088 2.088-5.489 0-7.577l-2.655-2.655-15.72-15.72h.03c2.029 2.088 2.029 5.459-.059 7.517z" fill="#ffd064" fill-rule="evenodd"/></g><g><path clip-rule="evenodd" d="m260.754 164.372c-5.846 18.196-3.967 38.331 5.667 55.244 2.983 5.28 6.741 10.232 11.216 14.736 4.504 4.504 9.456 8.233 14.735 11.246 16.943 9.605 37.047 11.484 55.243 5.668z" fill="#365e7d" fill-rule="evenodd"/></g><g><path clip-rule="evenodd" d="m326.615 230.265c-9.426 3.013-19.329 3.967-29.083 2.834-9.068-1.014-17.987-3.878-26.16-8.501-1.044-.597-2.088-1.223-3.102-1.879 2.655 4.116 5.757 8.024 9.366 11.633 4.504 4.504 9.456 8.233 14.735 11.246 16.943 9.605 37.047 11.484 55.243 5.668z" fill="#2b4d66" fill-rule="evenodd"/></g><g><path clip-rule="evenodd" d="m272.417 26.948-68.695 68.697c-3.221 3.222-3.221 8.501 0 11.723l24.042 24.042 24.847-24.848 24.877-24.878 24.847-24.848z" fill="#365e7d" fill-rule="evenodd"/></g><g><path clip-rule="evenodd" d="m455.147 209.653-24.847 24.877-24.847 24.848-24.877 24.848 24.072 24.042c3.221 3.222 8.471 3.222 11.693 0l68.725-68.697z" fill="#365e7d" fill-rule="evenodd"/></g></g></svg>