<svg id="Layer_1" enable-background="new 0 0 512 512" height="512" viewBox="0 0 512 512" width="512" xmlns="http://www.w3.org/2000/svg"><g><g><path d="m504.294 204.26c-1.971 0-3.942-.751-5.446-2.254l-33.586-33.558c-3.011-3.008-3.013-7.887-.005-10.897 3.009-3.012 7.888-3.013 10.897-.005l33.586 33.558c3.011 3.008 3.013 7.887.005 10.897-1.505 1.506-3.478 2.259-5.451 2.259zm-155.204-155.18c-1.971 0-3.944-.752-5.449-2.256l-33.587-33.587c-3.009-3.01-3.009-7.888 0-10.898 3.01-3.008 7.888-3.008 10.898 0l33.587 33.587c3.009 3.01 3.009 7.888 0 10.898-1.505 1.503-3.477 2.256-5.449 2.256z" fill="#ffbc85"/></g><g><path d="m471.469 237.086c-1.971 0-3.942-.751-5.446-2.254l-33.587-33.558c-3.011-3.008-3.013-7.887-.005-10.897 3.008-3.012 7.887-3.012 10.897-.005l33.587 33.558c3.011 3.008 3.013 7.887.005 10.897-1.505 1.506-3.478 2.259-5.451 2.259zm-155.205-155.208c-1.973 0-3.944-.752-5.449-2.257l-33.556-33.559c-3.009-3.009-3.009-7.888.001-10.897 3.009-3.009 7.888-3.008 10.897.001l33.556 33.559c3.009 3.009 3.009 7.888-.001 10.897-1.504 1.503-3.476 2.256-5.448 2.256z" fill="#ffbc85"/></g><g><path d="m438.643 269.913c-1.974 0-3.946-.753-5.451-2.259l-33.557-33.588c-3.008-3.011-3.006-7.889.005-10.897 3.01-3.009 7.889-3.004 10.897.005l33.556 33.588c3.008 3.011 3.006 7.889-.005 10.897-1.503 1.503-3.474 2.254-5.445 2.254zm-155.204-155.209c-1.971 0-3.944-.752-5.449-2.256l-33.557-33.558c-3.009-3.01-3.009-7.888 0-10.898 3.01-3.008 7.888-3.008 10.898 0l33.557 33.558c3.009 3.01 3.009 7.888 0 10.898-1.505 1.504-3.477 2.256-5.449 2.256z" fill="#ffbc85"/></g><g><path d="m405.818 302.739c-1.974 0-3.946-.753-5.451-2.259l-33.557-33.587c-3.008-3.01-3.006-7.889.005-10.897 3.01-3.009 7.889-3.004 10.897.005l33.557 33.587c3.008 3.01 3.006 7.889-.005 10.897-1.504 1.503-3.475 2.254-5.446 2.254zm-155.175-155.209c-1.971 0-3.944-.752-5.449-2.256l-33.587-33.587c-3.009-3.01-3.009-7.888 0-10.898 3.01-3.008 7.888-3.008 10.898 0l33.587 33.587c3.009 3.01 3.009 7.888 0 10.898-1.505 1.504-3.477 2.256-5.449 2.256z" fill="#ffbc85"/></g><g><path d="m373.022 335.536c-1.971 0-3.942-.751-5.446-2.254l-33.587-33.558c-3.011-3.008-3.013-7.887-.005-10.897 3.008-3.012 7.887-3.012 10.897-.005l33.587 33.557c3.011 3.008 3.013 7.887.005 10.897-1.505 1.507-3.478 2.26-5.451 2.26zm-155.205-155.179c-1.973 0-3.944-.752-5.449-2.256l-33.587-33.589c-3.009-3.009-3.009-7.887 0-10.897 3.01-3.009 7.888-3.008 10.898.001l33.587 33.588c3.009 3.009 3.009 7.887 0 10.897-1.505 1.504-3.477 2.256-5.449 2.256z" fill="#ffbc85"/></g><g><path d="m340.196 368.363c-1.971 0-3.942-.751-5.446-2.254l-33.586-33.559c-3.011-3.008-3.013-7.887-.005-10.897 3.009-3.011 7.888-3.012 10.897-.005l33.586 33.559c3.011 3.008 3.013 7.887.005 10.897-1.505 1.506-3.478 2.259-5.451 2.259zm-155.204-155.209c-1.971 0-3.944-.752-5.449-2.256l-33.558-33.558c-3.009-3.01-3.009-7.888 0-10.898 3.01-3.008 7.888-3.008 10.898 0l33.558 33.558c3.009 3.01 3.009 7.888 0 10.898-1.505 1.504-3.478 2.256-5.449 2.256z" fill="#ffbc85"/></g><g><path clip-rule="evenodd" d="m190.056 322.774-25.664-10.89-35.044 35.044-5.445 5.455-58.602 58.602c-17.291-4.798-36.626-.411-50.229 13.191-20.096 20.127-20.096 52.715 0 72.852 9.01 8.979 20.507 13.952 32.27 14.887h8.311c11.753-.935 23.26-5.907 32.27-14.887 13.603-13.603 17.989-32.948 13.191-50.239l53.157-53.177 5.445-5.455 5.445-5.445 35.044-35.044zm-138.564 155.412c-9.709 0-17.609-7.87-17.609-17.589 0-9.709 7.901-17.609 17.609-17.609 9.719 0 17.62 7.901 17.62 17.609 0 9.719-7.9 17.589-17.62 17.589z" fill="#f9f6f6" fill-rule="evenodd"/></g><g><path clip-rule="evenodd" d="m164.395 281.195c-8.426 8.455-8.426 22.235 0 30.691l35.81 35.781c8.426 8.455 22.235 8.455 30.69 0l15.33-15.331-21.825-45.728-44.645-20.743z" fill="#ffbc85" fill-rule="evenodd"/></g><g><path clip-rule="evenodd" d="m395.783 22.446 32.913 61.264 60.941 32.563 14.833-14.804c8.163-8.163 8.163-21.504 0-29.667l-64.188-64.19c-8.163-8.163-21.503-8.163-29.666 0z" fill="#ffbc85" fill-rule="evenodd"/></g><g><path clip-rule="evenodd" d="m145.847 374.321-52.778 52.838c-8.514 8.514-8.104 8.309-5.822 19.749 8.075 40.755-35.312 71.621-80.63 38.97 2.253 4.008 5.061 7.753 8.455 11.147 9.011 8.982 20.509 13.956 32.27 14.892h8.309c11.761-.936 23.259-5.91 32.27-14.892 13.604-13.605 17.993-32.944 13.195-50.234l58.6-58.631 40.491-40.492-13.867-13.839z" fill="#dddaec" fill-rule="evenodd"/></g><g><path clip-rule="evenodd" d="m217.027 333.829c-8.426 8.455-22.235 8.455-30.69 0l13.867 13.839c8.426 8.455 22.235 8.455 30.69 0l15.33-15.331-13.838-13.839z" fill="#f5a96c" fill-rule="evenodd"/></g><g><path clip-rule="evenodd" d="m471.703 98.339.029.029c-.029 0-.029-.029-.029-.029zm13.224-46.08c8.133 8.163 8.104 21.475-.029 29.608l-14.833 14.833 1.638 1.638.029.029 17.905 17.905 14.833-14.804c8.163-8.163 8.163-21.504 0-29.667l-19.514-19.514z" fill="#f5a96c" fill-rule="evenodd"/></g><g><path clip-rule="evenodd" d="m179.755 210.715c-15.184 15.155-15.184 39.965 0 55.15l66.47 66.472c15.155 15.155 39.993 15.155 55.148 0 63.311-63.312 126.592-126.595 189.903-189.908 6.729-6.729 6.729-17.759 0-24.517l-1.638-1.638-93.854-93.828-1.609-1.638c-6.758-6.758-17.788-6.758-24.517 0-63.311 63.282-126.622 126.595-189.903 189.907z" fill="#d09080" fill-rule="evenodd"/></g><g><path clip-rule="evenodd" d="m281.801 312.764c-15.184 15.155-39.993 15.155-55.148 0l19.572 19.573c15.155 15.155 39.993 15.155 55.148 0 63.311-63.312 126.592-126.595 189.903-189.908 6.729-6.729 6.729-17.759 0-24.517l-1.638-1.638-17.905-17.905c6.7 6.729 6.7 17.759-.029 24.488-63.311 63.282-126.622 126.594-189.903 189.907z" fill="#ce775f" fill-rule="evenodd"/></g><g><path d="m440.282 140.304c-4.256 0-7.705-3.449-7.705-7.705s3.449-7.75 7.705-7.75 7.705 3.405 7.705 7.661v.088c0 4.257-3.449 7.706-7.705 7.706z" fill="#ffbc85"/></g><g><path d="m409.885 109.906c-4.256 0-7.705-3.449-7.705-7.705s3.449-7.734 7.705-7.734 7.705 3.419 7.705 7.675v.059c0 4.256-3.449 7.705-7.705 7.705z" fill="#ffbc85"/></g><g><path d="m379.517 79.537c-4.256 0-7.705-3.449-7.705-7.705s3.449-7.735 7.705-7.735 7.705 3.42 7.705 7.676v.059c0 4.256-3.449 7.705-7.705 7.705z" fill="#ffbc85"/></g><g><path d="m407.457 173.13c-4.256 0-7.705-3.449-7.705-7.705s3.449-7.75 7.705-7.75 7.705 3.405 7.705 7.661v.088c0 4.257-3.449 7.706-7.705 7.706z" fill="#ffbc85"/></g><g><path d="m377.089 142.732c-4.256 0-7.705-3.449-7.705-7.705s3.449-7.734 7.705-7.734 7.705 3.42 7.705 7.676v.058c0 4.256-3.449 7.705-7.705 7.705z" fill="#ffbc85"/></g><g><path d="m346.691 112.363c-4.256 0-7.705-3.449-7.705-7.705s3.449-7.75 7.705-7.75 7.705 3.406 7.705 7.662v.087c.001 4.257-3.448 7.706-7.705 7.706z" fill="#ffbc85"/></g><g><path d="m374.63 205.927c-4.256 0-7.705-3.449-7.705-7.705s3.449-7.734 7.705-7.734 7.705 3.42 7.705 7.676v.058c.001 4.256-3.448 7.705-7.705 7.705z" fill="#ffbc85"/></g><g><path d="m344.262 175.558c-4.256 0-7.705-3.449-7.705-7.705s3.449-7.749 7.705-7.749 7.705 3.405 7.705 7.661v.087c.001 4.257-3.449 7.706-7.705 7.706z" fill="#ffbc85"/></g><g><path d="m313.894 145.189c-4.256 0-7.705-3.449-7.705-7.705s3.449-7.75 7.705-7.75 7.705 3.406 7.705 7.662v.087c.001 4.257-3.448 7.706-7.705 7.706z" fill="#ffbc85"/></g><g><path d="m341.799 238.757c-1.141 0-2.3-.255-3.393-.793-3.819-1.877-5.393-6.494-3.516-10.314 1.876-3.818 6.507-5.424 10.328-3.546 3.82 1.877 5.408 6.465 3.531 10.285l-.029.059c-1.339 2.725-4.075 4.309-6.921 4.309z" fill="#ffbc85"/></g><g><path d="m311.437 208.386c-4.256 0-7.705-3.449-7.705-7.705s3.449-7.75 7.705-7.75 7.705 3.405 7.705 7.661v.088c.001 4.256-3.449 7.706-7.705 7.706z" fill="#ffbc85"/></g><g><path d="m281.069 177.987c-4.256 0-7.705-3.449-7.705-7.705s3.449-7.735 7.705-7.735 7.705 3.42 7.705 7.676v.059c.001 4.256-3.449 7.705-7.705 7.705z" fill="#ffbc85"/></g><g><path d="m309.009 271.581c-4.256 0-7.705-3.449-7.705-7.705s3.449-7.75 7.705-7.75 7.705 3.405 7.705 7.661v.088c.001 4.256-3.449 7.706-7.705 7.706z" fill="#ffbc85"/></g><g><path d="m278.611 241.183c-4.256 0-7.705-3.449-7.705-7.705s3.449-7.734 7.705-7.734 7.705 3.42 7.705 7.676v.058c.001 4.255-3.449 7.705-7.705 7.705z" fill="#ffbc85"/></g><g><path d="m248.243 210.814c-4.256 0-7.705-3.449-7.705-7.705s3.449-7.734 7.705-7.734 7.705 3.42 7.705 7.676v.058c.001 4.255-3.449 7.705-7.705 7.705z" fill="#ffbc85"/></g><g><path d="m276.183 304.407c-4.256 0-7.705-3.449-7.705-7.705s3.449-7.749 7.705-7.749 7.705 3.405 7.705 7.661v.087c.001 4.256-3.449 7.706-7.705 7.706z" fill="#ffbc85"/></g><g><path d="m245.815 274.009c-4.256 0-7.705-3.449-7.705-7.705s3.449-7.734 7.705-7.734 7.705 3.42 7.705 7.676v.058c.001 4.255-3.449 7.705-7.705 7.705z" fill="#ffbc85"/></g><g><path d="m215.418 243.64c-4.256 0-7.705-3.449-7.705-7.705s3.449-7.75 7.705-7.75 7.705 3.406 7.705 7.662v.087c.001 4.256-3.449 7.706-7.705 7.706z" fill="#ffbc85"/></g><g><path d="m165.162 382.711-35.814-35.784-5.446 5.456-5.445 5.445 35.815 35.784z" fill="#365e7d"/></g></g></svg>