<svg id="Layer_1" enable-background="new 0 0 512 512" height="512" viewBox="0 0 512 512" width="512" xmlns="http://www.w3.org/2000/svg"><g><g><path d="m255.99 187.823c-17.79 0-32.174-13.975-34.977-33.986l-9.085-64.894c-.606-4.333 2.414-8.337 6.746-8.943 4.327-.607 8.336 2.414 8.943 6.746l9.084 64.893c1.419 10.125 7.933 20.342 19.289 20.342 11.396 0 17.913-10.212 19.318-20.332l9.055-64.691c.606-4.332 4.61-7.349 8.942-6.746 4.333.606 7.353 4.61 6.747 8.943l-9.054 64.681c-2.777 20.007-17.173 33.987-35.008 33.987z" fill="#dddaec"/></g><g><path clip-rule="evenodd" d="m290.548 305.732c-8.849-9.248-37.716-5.256-34.558 18.743l82.003 143.125c26.469 43.583 83.241 57.437 126.823 30.967 43.612-26.44 57.466-83.243 30.996-126.826-26.469-43.583-83.241-57.467-126.823-30.997-16.087 9.749-28.099 23.633-35.554 39.448zm84.87 139.11c-13.914-22.908-6.61-52.759 16.298-66.673s52.757-6.61 66.671 16.298 6.61 52.759-16.298 66.673c-22.908 13.915-52.757 6.641-66.671-16.298z" fill="#a7e9a6" fill-rule="evenodd"/></g><g><path clip-rule="evenodd" d="m143.02 340.744c-43.582-26.47-100.384-12.586-126.853 30.997-26.439 43.583-12.586 100.386 30.996 126.826 43.612 26.47 100.384 12.616 126.853-30.967l81.973-143.125c3.241-13.836-17.944-32.215-34.528-18.743l-42.888 74.46c-7.454-15.816-19.466-29.699-35.553-39.448zm-22.726 37.426c22.908 13.914 30.212 43.764 16.298 66.673-13.914 22.939-43.763 30.212-66.671 16.298-22.938-13.914-30.212-43.764-16.298-66.673s43.763-30.212 66.671-16.298z" fill="#a7e9a6" fill-rule="evenodd"/></g><g><path clip-rule="evenodd" d="m373.305 30.318c-79.619-40.746-157.819-40.052-234.631-.151l-7.297 38.371 22.267 39.771c21.942-10.081 43.974-16.902 66.128-20.464 24.024-3.803 48.14-3.773 72.436.211 21.912 3.592 43.944 10.413 66.097 20.464l19.677-36.286z" fill="#365e7d" fill-rule="evenodd"/></g><g><path clip-rule="evenodd" d="m336.755 192.458-66.067 52.306c-6.591 21.093 11.715 32.114 26.016 32.114l76.148-60.123c8.209-6.519 8.692-9.236 10.684-19.679l32.445-169.142c2.143-11.198-5.252-22.093-16.449-24.267-11.197-2.143-22.123 5.282-24.266 16.48l-1.962 10.171-15 78.202-13.099 68.272c-1.9 9.992-.542 9.418-8.45 15.666z" fill="#f9f6f6" fill-rule="evenodd"/></g><g><path clip-rule="evenodd" d="m96.028 27.934 32.445 169.142c1.992 10.443 2.475 13.16 10.684 19.679l76.148 60.123c19.22 6.399 36.118-16.653 26.016-32.114l-66.067-52.306c-7.908-6.248-6.549-5.674-8.481-15.665l-13.129-68.484-14.97-78.142-1.932-10.021c-2.142-11.197-13.068-18.621-24.265-16.478-11.198 2.173-18.592 13.068-16.449 24.266z" fill="#f9f6f6" fill-rule="evenodd"/></g><g><path clip-rule="evenodd" d="m241.322 244.764c-13.582 5.191-23.723 17.355-26.016 32.114-.332 2.083-.483 4.225-.483 6.399 0 8.27 2.445 15.997 6.64 22.456 7.364 11.258 20.071 18.743 34.528 18.743 14.487 0 27.194-7.485 34.558-18.743 4.195-6.459 6.64-14.186 6.64-22.456 0-2.173-.151-4.316-.483-6.399-2.294-14.759-12.435-26.923-26.016-32.114-4.557-1.72-9.507-2.686-14.698-2.686-5.163 0-10.113.966-14.67 2.686z" fill="#365e7d" fill-rule="evenodd"/></g><g><path clip-rule="evenodd" d="m495.812 371.741c-22.033-36.34-65.162-52.034-104.156-40.927 29.759 1.328 58.341 16.962 74.971 44.338 26.469 43.583 12.586 100.386-30.996 126.856-7.274 4.407-14.879 7.697-22.696 9.9 17.626.785 35.674-3.471 51.882-13.341 43.611-26.44 57.464-83.243 30.995-126.826z" fill="#7fdbae" fill-rule="evenodd"/></g><g><path clip-rule="evenodd" d="m158.775 445.144c-26.469 43.583-83.271 57.437-126.853 30.997-7.576-4.618-14.246-10.141-19.98-16.359 7.485 15.544 19.407 29.186 35.222 38.784 43.612 26.47 100.384 12.616 126.853-30.967l81.973-143.125c-8.843 0-17.053-2.807-23.783-7.576z" fill="#7fdbae" fill-rule="evenodd"/></g><g><path clip-rule="evenodd" d="m352.812 211.714-62.234 49.137c3.079 4.769 5.221 10.202 6.127 16.027l76.148-60.123c8.209-6.519 8.692-9.236 10.684-19.679l32.445-169.142c2.143-11.198-5.252-22.093-16.449-24.267l-36.037 188.368c-1.992 10.443-2.475 13.16-10.684 19.679z" fill="#dddaec" fill-rule="evenodd"/></g><g><path clip-rule="evenodd" d="m136.743 20.147c-2.143-11.198-13.069-18.622-24.266-16.479l1.932 10.051 23.481 110.256 13.129 68.514c1.932 9.96.573 9.387 8.481 15.665l63.592 50.344c4.618-6.127 10.926-10.956 18.23-13.733l-66.067-52.306c-7.908-6.248-6.549-5.674-8.481-15.665l-13.129-68.484-14.97-78.142z" fill="#dddaec" fill-rule="evenodd"/></g><g><path clip-rule="evenodd" d="m296.705 276.878c-.905-5.825-3.048-11.258-6.127-16.027-4.738-7.274-11.68-12.948-19.89-16.087-4.557-1.72-9.507-2.686-14.698-2.686-3.863 0-7.636.543-11.197 1.539 13.37 5.282 23.3 17.355 25.594 31.963.302 2.083.483 4.195.483 6.368 0 8.3-2.445 15.997-6.64 22.456-5.372 8.24-13.642 14.457-23.33 17.204 4.678 1.841 9.779 2.867 15.091 2.867 14.487 0 27.194-7.485 34.558-18.743 4.195-6.459 6.64-14.186 6.64-22.456-.001-2.173-.152-4.316-.484-6.398z" fill="#2b4d66" fill-rule="evenodd"/></g><g><path clip-rule="evenodd" d="m358.305 108.521 15-78.202c-29.97-15.333-59.759-24.81-89.337-28.522 18.471 21.882 29.427 49.167 29.427 78.746 0 3.984-.211 7.938-.604 11.831 15.121 3.863 30.303 9.235 45.514 16.147z" fill="#2b4d66" fill-rule="evenodd"/></g></g></svg>