<svg id="Layer_1" enable-background="new 0 0 512 512" height="512" viewBox="0 0 512 512" width="512" xmlns="http://www.w3.org/2000/svg"><g><g><path clip-rule="evenodd" d="m309.113 185.13-21.38-32.115c-13.706-6.73-25.756-2.757-28.542 0-10.118 9.884-12.464 24.691-8.352 43.083l41.909 63.437 108.278 161.512c3.402 5.132 1.936 12.142-3.226 15.544l-32.642 21.439 1.202 1.818c17.098 25.692 44.989 32.32 70.768 15.368l39.944-26.22c2.903-1.906 3.666-5.836 1.76-8.711l-71.97-108.222z" fill="#365e7d" fill-rule="evenodd"/></g><g><path clip-rule="evenodd" d="m309.113 185.13-21.38-32.115c-2.2 3.079-4.692 6.012-7.479 8.769-3.695 3.607-7.361 7.449-10.969 11.497l13.696 20.589 97.749 146.935 78.129 112.592c1.965 2.845 1.144 6.804-1.76 8.711l19.972-13.11c2.903-1.906 3.666-5.836 1.76-8.711l-71.97-108.222z" fill="#2b4d66" fill-rule="evenodd"/></g><g><path clip-rule="evenodd" d="m220.133 51.422-28.594-42.38c-7.567-11.174-17.919-12.113-24.019-2.141-8.769 14.342-13.432 42.702-.44 62.382l8.505 12.846c11.907 2.861 27.509.049 31.996-4.35 8.944-8.77 9.308-15.154 12.552-26.357z" fill="#365e7d" fill-rule="evenodd"/></g><g><path clip-rule="evenodd" d="m220.133 51.422-28.594-42.38c-7.567-11.174-17.919-12.113-24.019-2.141-1.848 3.05-3.549 6.746-4.898 10.852 2.698 1.466 5.367 3.989 7.742 7.508l25.251 37.364c7.449-5.543 15.837-9.268 24.518-11.203z" fill="#2b4d66" fill-rule="evenodd"/></g><g><path clip-rule="evenodd" d="m175.584 82.129c-60.943 66.399-110.36 167.495-131.857 263.78l61.705 29.006 70.621-20.002c15.309-56.34 42.584-114.967 74.785-158.813 9.444-12.846 19.298-24.431 29.416-34.314 2.786-2.757 5.279-5.69 7.479-8.769 18.036-25.252 15.954-60.71-6.481-83.615-16.394-16.776-39.739-22.788-61.119-18.008-11.438 2.581-22.318 8.241-31.263 17.01-4.487 4.398-8.916 8.973-13.286 13.725zm81.736 42.35c-5.22 12.582-19.591 18.565-32.172 13.344-12.552-5.191-18.535-19.591-13.344-32.144s19.591-18.536 32.172-13.344c1.994.821 3.842 1.906 5.484 3.138 4.458 3.402 7.567 8.153 8.916 13.432 1.32 4.986 1.056 10.441-1.056 15.574z" fill="#ffbc85" fill-rule="evenodd"/></g><g><path clip-rule="evenodd" d="m165.76 403.891-65.459-15.72-65.489 10.03c-1.936 16.893-2.845 33.405-2.669 49.272.44 35.986 30.119 64.962 66.104 64.522 35.985-.411 64.961-30.12 64.55-66.106-.176-13.198.88-27.334 2.963-41.998z" fill="#ffbc85" fill-rule="evenodd"/></g><g><path clip-rule="evenodd" d="m401.026 421.048-108.278-161.512-25.838 30.736c-5.338 6.364-5.103 12.582-.968 18.8l99.215 148.959 32.642-21.439c5.162-3.402 6.629-10.412 3.227-15.544z" fill="#f9f6f6" fill-rule="evenodd"/></g><g><path clip-rule="evenodd" d="m241.278 138.762c-5.514 5.572-10.969 11.643-16.306 18.154-3.637 4.429-7.215 9.062-10.734 13.843-32.202 43.875-59.476 102.473-74.815 158.813-2.053 7.537-3.901 15.046-5.484 22.466l42.114 2.874c15.309-56.34 42.584-114.967 74.785-158.813 9.444-12.846 19.298-24.431 29.416-34.314 2.786-2.757 5.279-5.69 7.479-8.769 18.036-25.252 15.954-60.71-6.481-83.615-8.564-8.74-18.975-14.547-30.031-17.45 12.318 17.362 15.133 39.447 8.505 58.95-.205.616-.44 1.232-.645 1.848.352 3.871-.176 7.889-1.76 11.731-2.992 7.243-9.034 12.287-16.043 14.282z" fill="#f5a96c" fill-rule="evenodd"/></g><g><path clip-rule="evenodd" d="m165.76 403.891-39.094-1.701c-.411 6.276-.557 12.435-.499 18.36.44 35.986-28.565 65.696-64.55 66.106-5.983.088-11.79-.645-17.333-2.112 12.024 16.835 31.791 27.715 53.963 27.451 35.985-.411 64.961-30.12 64.55-66.106-.176-13.198.88-27.334 2.963-41.998z" fill="#f5a96c" fill-rule="evenodd"/></g><g><path clip-rule="evenodd" d="m401.026 421.048-108.278-161.512-13.256 15.779 95.696 142.741c3.402 5.162 1.936 12.171-3.226 15.544l-16.042 10.558 9.238 13.872 32.642-21.439c5.161-3.401 6.628-10.411 3.226-15.543z" fill="#dddaec" fill-rule="evenodd"/></g><g><path clip-rule="evenodd" d="m176.054 354.912-132.326-9.004c-3.93 17.685-6.951 35.194-8.916 52.293l130.948 5.69c2.258-15.838 5.748-32.32 10.294-48.979z" fill="#f9f6f6" fill-rule="evenodd"/></g><g><path clip-rule="evenodd" d="m176.054 354.912-42.114-2.874c-1.965 8.974-3.549 17.861-4.81 26.513-1.144 8.065-1.965 15.984-2.464 23.639l39.094 1.701c2.258-15.838 5.748-32.32 10.294-48.979z" fill="#dddaec" fill-rule="evenodd"/></g><g><path d="m234.517 147.425c-4.118 0-8.297-.792-12.33-2.465-7.969-3.296-14.187-9.507-17.5-17.485-3.314-7.981-3.322-16.771-.023-24.748 6.811-16.473 25.77-24.338 42.259-17.533 16.486 6.818 24.351 25.765 17.538 42.238-.001.003-.002.006-.003.009-5.169 12.451-17.247 19.984-29.941 19.984zm.073-49.23c-6.643 0-12.957 3.934-15.646 10.437-1.721 4.162-1.716 8.749.014 12.916 1.731 4.168 4.978 7.412 9.143 9.135 8.603 3.568 18.504-.543 22.082-9.163 3.552-8.599-.556-18.487-9.16-22.045-2.104-.868-4.286-1.28-6.433-1.28zm22.731 26.284h.01z" fill="#d0cee7"/></g></g></svg>