<svg id="Layer_1" enable-background="new 0 0 512 512" height="512" viewBox="0 0 512 512" width="512" xmlns="http://www.w3.org/2000/svg"><g><path d="m266.09 405.199c-20.536-20.536-53.95-20.535-74.491.007l-7.302 7.318c-.056.053-.117.1-.172.156l-73.185 73.186c-7.035 7.036-16.438 10.911-26.477 10.911-10.04 0-19.443-3.875-26.478-10.911-14.593-14.593-14.593-38.336 0-52.93l12.801-12.802c2.972-2.972 2.972-7.792-.001-10.764-2.971-2.971-7.791-2.972-10.764.001l-12.801 12.801c-20.527 20.528-20.527 53.931 0 74.459 9.911 9.911 23.137 15.369 37.243 15.369 14.104 0 27.331-5.458 37.242-15.369l67.604-67.606c.098-.088.199-.171.294-.266l12.767-12.795c7.035-7.036 16.438-10.911 26.477-10.911 10.04 0 19.443 3.875 26.478 10.911 2.973 2.971 7.792 2.971 10.765 0 2.972-2.973 2.972-7.792 0-10.765z" fill="#d0cee7"/><g><path clip-rule="evenodd" d="m331.332 322.608-17.725-20.426-20.507 10.098c-2.675 9.781-7.623 18.815-15.304 26.496-18.411 18.412 9.608 46.432 28.02 28.02 12.685-12.686 21.057-27.79 25.516-44.188z" fill="#9dc6fb" fill-rule="evenodd"/></g><g><path clip-rule="evenodd" d="m361.164 71.23-167.457 167.432 11.507 43.167 36.276 4.617c62.569-62.571 91.049-91.052 167.456-167.461l-6.708-38.922z" fill="#fe93d3" fill-rule="evenodd"/></g><g><path clip-rule="evenodd" d="m391.168 101.207c-76.953 76.955-104.34 104.343-167.456 167.461 5.926 5.926 11.852 11.853 17.778 17.779 63.231-63.233 96.17-96.144 167.456-167.461z" fill="#fe4eb7" fill-rule="evenodd"/></g><g><path clip-rule="evenodd" d="m284.239 247.523c6.588 11.996 10.471 27.387 11.191 40.189.489 8.458-.201 16.743-2.33 24.568l38.232 10.328c3.222-11.853 4.373-24.367 3.654-37.169-.806-13.981-4.056-29.171-9.551-43.124-7.998-10.756-32.336-12.851-41.196 5.208z" fill="#365e7d" fill-rule="evenodd"/></g><g><path clip-rule="evenodd" d="m377.417 192.144-49.164 7.537-10.817 1.669c-4.084 4.922-5.221 24.204 11.651 34.206-.058.144-.115.316-.173.46l84.375-12.975c7.652-1.18 9.436-6.3 3.251-10.472l-25.517-17.232c-4.803-3.251-7.651-4.114-13.606-3.193z" fill="#365e7d" fill-rule="evenodd"/></g><g><path clip-rule="evenodd" d="m282.254 205.406c-3.452 3.423-5.811 7.509-7.134 11.824-2.963 9.752-.575 20.771 7.134 28.481.633.633 1.295 1.237 1.985 1.812 11.219 9.263 27.818 8.659 38.29-1.812 1.064-1.064 2.043-2.215 2.906-3.395 8.228-11.277 7.048-26.985-2.906-36.91-1.582-1.582-3.28-2.934-5.092-4.056-7.048-4.402-15.621-5.408-23.359-3.049-4.344 1.323-8.401 3.682-11.824 7.105z" fill="#f9f6f6" fill-rule="evenodd"/></g><g><path clip-rule="evenodd" d="m330.871 225.371c-.058-7.278-2.848-14.499-8.343-19.965-1.582-1.582-3.28-2.934-5.092-4.056-7.048-4.402-15.621-5.408-23.359-3.049-.115.029-.201.058-.316.086.058.029.086.058.144.086 1.611 1.064 3.136 2.301 4.545 3.711 5.264 5.265 8.026 12.083 8.314 18.987.316 7.681-2.474 15.449-8.314 21.289-3.337 3.366-7.307 5.696-11.536 7.019 11.047 7.163 25.948 5.898 35.614-3.769 1.064-1.064 2.043-2.215 2.906-3.395 1.553-2.129 2.762-4.402 3.653-6.761 1.209-3.278 1.813-6.73 1.784-10.183z" fill="#dddaec" fill-rule="evenodd"/></g><g><path clip-rule="evenodd" d="m437.254 7.336-22.985 22.986 2.855 29.386 32.731 6.172 22.985-22.986c9.781-9.781 9.781-25.776 0-35.558-4.891-4.891-11.306-7.336-17.75-7.336h-.086c-6.444 0-12.86 2.445-17.75 7.336z" fill="#365e7d" fill-rule="evenodd"/></g><g><path clip-rule="evenodd" d="m78.522 367.602-16.628 16.657c-7.422 7.422-7.422 19.563 0 26.985l3.51 3.51 3.538 3.539c7.422 7.422 19.562 7.422 26.984 0l16.628-16.657-7.364-30.207z" fill="#365e7d" fill-rule="evenodd"/></g><g><path clip-rule="evenodd" d="m402.071 30.322-40.907 40.908 47.783 47.755 40.907-40.909c3.366-3.337 3.366-8.832 0-12.198l-35.585-35.558c-3.337-3.364-8.832-3.364-12.198.002z" fill="#9dc6fb" fill-rule="evenodd"/></g><g><path clip-rule="evenodd" d="m455.061 25.115-22.985 22.986 17.778 17.779 22.985-22.986c9.781-9.781 9.781-25.776 0-35.558-3.251-3.251-7.163-5.408-11.306-6.502 2.216 8.401.058 17.722-6.472 24.281z" fill="#2b4d66" fill-rule="evenodd"/></g><g><path clip-rule="evenodd" d="m432.076 60.298-40.908 40.909 17.778 17.779 40.907-40.909c3.366-3.337 3.366-8.832 0-12.198l-17.778-17.779c3.338 3.367 3.338 8.833.001 12.198z" fill="#80b4fb" fill-rule="evenodd"/></g><g><path clip-rule="evenodd" d="m94.776 383.856-16.628 16.657c-5.523 5.495-13.665 6.933-20.511 4.229.921 2.388 2.33 4.603 4.258 6.502l3.51 3.51 3.538 3.539c7.422 7.422 19.562 7.422 26.984 0l16.628-16.657z" fill="#2b4d66" fill-rule="evenodd"/></g><g><path clip-rule="evenodd" d="m117.531 302.183-39.009 39.01c-7.278 7.25-7.278 19.16 0 26.409l34.032 34.033c7.278 7.278 19.159 7.278 26.437 0l38.98-38.981-18.9-44.735z" fill="#9dc6fb" fill-rule="evenodd"/></g><g><path clip-rule="evenodd" d="m148.83 270.883-31.299 31.3 60.441 60.471 31.328-31.329-17.836-17.836 4.89-26.841z" fill="#f9f6f6" fill-rule="evenodd"/></g><g><path clip-rule="evenodd" d="m247.844 306.672-24.681 24.651c-3.796 3.826-10.037 3.826-13.863 0l-12.452-12.452-5.379-5.379 13.234-13.234 25.28-25.321 11.509 11.509 6.353 6.363c3.804 3.796 3.804 10.037-.001 13.863z" fill="#9dc6fb" fill-rule="evenodd"/></g><g><path clip-rule="evenodd" d="m229.982 274.937-9.601 20.379-2.882 6.12-5.998 2.77-.02.01-20.013 9.276-5.389-5.389-14.026-14.005-5.389-5.379 14.99-23.331 23.565-15.213z" fill="#9dc6fb" fill-rule="evenodd"/></g><g><path clip-rule="evenodd" d="m205.219 250.175-25.321 25.311-13.234 13.234-5.379-5.379-12.452-12.463c-3.826-3.826-3.826-10.067 0-13.893l24.681-24.651c3.796-3.826 10.037-3.826 13.863 0z" fill="#9dc6fb" fill-rule="evenodd"/></g><g><path clip-rule="evenodd" d="m162.594 325.529h44.305v25.143h-44.305z" fill="#dddaec" fill-rule="evenodd" transform="matrix(.707 -.707 .707 .707 -184.963 229.668)"/></g><g><path clip-rule="evenodd" d="m160.193 344.875-38.98 38.981c-7.278 7.278-19.159 7.278-26.437 0l17.778 17.779c7.278 7.278 19.159 7.278 26.437 0l38.98-38.981z" fill="#80b4fb" fill-rule="evenodd"/></g><g><path d="m210.598 255.554-38.545 38.544-5.389-5.379-5.378-5.379 38.544-38.554z" fill="#80b4fb"/></g><g><path d="m235.371 280.326-14.99 14.99-8.88 8.89-.02.01-14.635 14.655-5.378-5.379-5.389-5.389 38.524-38.545z" fill="#80b4fb"/></g><g><path d="m321.723 508.469c-1.948 0-3.896-.743-5.383-2.23l-25.231-25.338c-2.972-2.972-2.972-7.792.001-10.764 2.972-2.972 7.792-2.971 10.764.001l25.231 25.338c2.972 2.972 2.972 7.792-.001 10.764-1.485 1.485-3.434 2.229-5.381 2.229z" fill="#dddaec"/></g><g><path d="m350.29 479.902c-1.947 0-3.896-.743-5.383-2.229l-24.704-24.764c-2.972-2.973-2.972-7.792 0-10.765 2.973-2.971 7.792-2.971 10.765 0l24.704 24.764c2.972 2.973 2.972 7.792 0 10.765-1.486 1.486-3.435 2.229-5.382 2.229z" fill="#dddaec"/></g><g><path clip-rule="evenodd" d="m260.707 410.582c-11.334 11.306-11.334 29.833 0 41.139l28.566 28.596c1.841 1.841 4.862 1.841 6.732 0l2.589-2.589 28.566-28.567 3.28-3.28c1.841-1.87 1.841-4.891 0-6.732l-28.595-28.567c-11.306-11.335-29.832-11.335-41.138 0z" fill="#365e7d" fill-rule="evenodd"/></g><g><path clip-rule="evenodd" d="m301.845 410.582c-11.306-11.335-29.832-11.335-41.138 0-2.503 2.503-4.459 5.351-5.869 8.429 10.759-4.919 23.935-2.963 32.738 5.84l28.566 28.596c1.841 1.841 1.841 4.862 0 6.703l11.018-10.99 3.28-3.28c1.841-1.87 1.841-4.891 0-6.732z" fill="#2b4d66" fill-rule="evenodd"/></g></g></svg>