<svg id="Layer_1" enable-background="new 0 0 512 512" height="512" viewBox="0 0 512 512" width="512" xmlns="http://www.w3.org/2000/svg"><g><g><path clip-rule="evenodd" d="m61.591 99.468c-67.225 41.791-61.56 188.131-33.759 295.279l139.561 18.953 87.258-251.24c-8.381-27.948-22.077-50.289-42.519-62.992l-75.431-10.309z" fill="#a7e9a6" fill-rule="evenodd"/></g><g><path clip-rule="evenodd" d="m27.832 394.747c11.156 42.9 25.845 79.522 40.826 100.607 7.359 10.338 12.586 16.354 30.283 16.646h2.891 35.044 35.014 2.891c.934 0 1.84-.029 2.716-.088-4.118-.613 3.592-6.045 4.03-10.309l7.213-68.95-24.151-37.906z" fill="#a7e9a6" fill-rule="evenodd"/></g><g><path clip-rule="evenodd" d="m332.01 283.802-13.171 19.216 6.571 25.378 74.701 10.338 79.549-10.338c14.777-32.445-15.332-72.396-36.095-82.822-8.293 41.674-64.801 35.892-111.555 38.228z" fill="#ffe07d" fill-rule="evenodd"/></g><g><path clip-rule="evenodd" d="m74.294 4.848v52.567l62.582 11.769 62.553-11.769v-52.567c0-2.658-2.19-4.848-4.877-4.848h-115.381c-2.687 0-4.877 2.19-4.877 4.848z" fill="#365e7d" fill-rule="evenodd"/></g><g><path clip-rule="evenodd" d="m74.294 57.415c-6.979 0-12.703 5.724-12.703 12.733v29.321h150.541v-29.322c0-7.009-5.724-12.733-12.703-12.733h-125.135z" fill="#f9f6f6" fill-rule="evenodd"/></g><g><path clip-rule="evenodd" d="m479.66 328.396h-154.25l-10.863 18.077 5.87 15.624h174.02v-30.43c0-1.811-1.46-3.271-3.242-3.271z" fill="#f9f6f6" fill-rule="evenodd"/></g><g><path clip-rule="evenodd" d="m320.417 362.097-10.425 70.556v44.448h146.686c27.655-12.295 47.046-40.038 47.046-72.104v-37.848c0-2.774-2.249-5.052-5.052-5.052h-4.234z" fill="#9dc6fb" fill-rule="evenodd"/></g><g><path clip-rule="evenodd" d="m425.547 477.102h-146.686v26.313c0 4.293-3.183 7.856-7.272 8.498.496.058.993.088 1.519.088h140.875c6.366 0 11.564-5.198 11.564-11.565z" fill="#365e7d" fill-rule="evenodd"/></g><g><path clip-rule="evenodd" d="m434.221 264.352c14.017 17.347 24.18 42.375 14.309 64.044h11.535 19.595c14.777-32.445-15.332-72.396-36.095-82.822-1.547 7.798-4.789 13.93-9.344 18.778z" fill="#ffd064" fill-rule="evenodd"/></g><g><path clip-rule="evenodd" d="m463.307 331.667v30.43h4.264 26.867v-30.43c0-1.811-1.46-3.271-3.242-3.271h-11.536-19.595c1.402 0 2.599.905 3.066 2.161.117.351.176.701.176 1.11z" fill="#dddaec" fill-rule="evenodd"/></g><g><path clip-rule="evenodd" d="m472.623 367.149v37.848c0 32.066-19.42 59.809-47.075 72.104h31.13c27.655-12.295 47.046-40.038 47.046-72.104v-37.848c0-2.774-2.249-5.052-5.052-5.052h-4.234-26.868c2.775 0 5.053 2.278 5.053 5.052z" fill="#80b4fb" fill-rule="evenodd"/></g><g><path clip-rule="evenodd" d="m425.547 477.102v23.334c0 6.366-5.198 11.565-11.564 11.565h31.13c6.366 0 11.564-5.198 11.564-11.565v-23.334z" fill="#2b4d66" fill-rule="evenodd"/></g><g><path clip-rule="evenodd" d="m131.152 168.827 5.023 33.964 104.167 38.841 103.641-38.841 5.023-33.964c.496-3.329-.847-6.366-6.045-6.366-68.569 0-137.166 0-205.764 0-5.168-.001-6.541 3.037-6.045 6.366z" fill="#f9f6f6" fill-rule="evenodd"/></g><g><path clip-rule="evenodd" d="m170.197 432.653v70.761c0 4.293 3.183 7.885 7.301 8.498.409.058.847.088 1.285.088h122.623c.438 0 .876-.029 1.285-.088 4.118-.642 7.301-4.205 7.301-8.498v-26.313-44.448c-22.924 0-41.468-27.656-64.393-27.656-23.684 0-51.719 27.656-75.402 27.656z" fill="#f9f6f6" fill-rule="evenodd"/></g><g><path clip-rule="evenodd" d="m140.147 229.571 24.443 165.176 5.607 37.906h139.795l10.425-70.556 4.994-33.701 6.6-44.594 11.973-81.011h-81.155-126.654z" fill="#365e7d" fill-rule="evenodd"/></g><g><path clip-rule="evenodd" d="m240.079 275.917c-21.785 0-39.482 18.019-39.482 40.272s17.697 40.301 39.482 40.301c5.257 0 10.25-1.051 14.806-2.92l.204-.088c10.717-4.497 19.099-13.697 22.632-25.086 1.197-3.826 1.84-7.943 1.84-12.207 0-5.607-1.11-10.951-3.154-15.799-2.687-6.396-6.921-11.944-12.265-16.15-6.658-5.227-15.01-8.323-24.063-8.323z" fill="#fe93d3" fill-rule="evenodd"/></g><g><path clip-rule="evenodd" d="m275.006 512h26.399c.438 0 .876-.029 1.285-.088 4.118-.642 7.301-4.205 7.301-8.498v-26.313-44.448h-26.458v44.448 26.313c0 4.293-3.154 7.856-7.272 8.498-.408.059-.846.088-1.255.088z" fill="#dddaec" fill-rule="evenodd"/></g><g><path clip-rule="evenodd" d="m322.578 168.827-5.023 33.964h26.429l5.023-33.964c.496-3.329-.847-6.366-6.045-6.366h-26.429c5.169-.001 6.541 3.037 6.045 6.366z" fill="#dddaec" fill-rule="evenodd"/></g><g><path clip-rule="evenodd" d="m316.007 213.275-10.455 70.527-.408 2.891-6.191 41.703-4.965 33.701-9.082 61.386-1.373 9.17h26.458l10.426-70.556 4.993-33.701 6.6-44.594 11.974-81.011h-26.429z" fill="#2b4d66" fill-rule="evenodd"/></g><g><path clip-rule="evenodd" d="m253.133 316.189c0 4.264-.642 8.382-1.869 12.207-3.534 11.389-11.886 20.589-22.632 25.086l-.175.088c-.526.204-1.051.409-1.606.613 4.147 1.489 8.586 2.307 13.229 2.307 5.257 0 10.25-1.051 14.806-2.92l.204-.088c10.717-4.497 19.099-13.697 22.632-25.086 1.197-3.826 1.84-7.943 1.84-12.207 0-5.607-1.11-10.951-3.154-15.799-2.687-6.396-6.921-11.944-12.265-16.15-6.658-5.227-15.01-8.323-24.063-8.323-4.643 0-9.082.818-13.229 2.307 3.942 1.431 7.593 3.475 10.834 6.016 5.344 4.205 9.608 9.754 12.294 16.15 2.015 4.848 3.154 10.192 3.154 15.799z" fill="#fe4eb7" fill-rule="evenodd"/></g><g><path clip-rule="evenodd" d="m211.899 471.173c-2.774 0-5.052 2.278-5.052 5.052v16.559 19.216h66.466v-35.775c0-2.774-2.278-5.052-5.052-5.052h-49.265z" fill="#d0cee7" fill-rule="evenodd"/></g><g><path clip-rule="evenodd" d="m157.786 4.848v52.567h-.029.029 41.614.029v-52.567c0-2.658-2.19-4.848-4.877-4.848h-41.614c2.657 0 4.848 2.19 4.848 4.848z" fill="#2b4d66" fill-rule="evenodd"/></g><g><path clip-rule="evenodd" d="m168.445 63.226c1.314 2.015 2.073 4.381 2.073 6.921v29.321h41.614v-29.321c0-7.009-5.724-12.733-12.703-12.733h-.029-41.614c4.468.001 8.41 2.337 10.659 5.812z" fill="#dddaec" fill-rule="evenodd"/></g><g><path clip-rule="evenodd" d="m170.518 99.468c20.413 12.704 34.109 35.045 42.49 62.992h27.071 14.572c-8.381-27.948-22.077-50.289-42.519-62.992z" fill="#7fdbae" fill-rule="evenodd"/></g><g><path clip-rule="evenodd" d="m374.676 396.003c-12.762 0-23.129 10.572-23.129 23.597s10.367 23.597 23.129 23.597 23.1-10.572 23.1-23.597c-.001-13.026-10.338-23.597-23.1-23.597z" fill="#ffe07d" fill-rule="evenodd"/></g><g><path clip-rule="evenodd" d="m8.704 229.571c-2.424 53.53 5.811 113.836 19.128 165.176h136.758l-24.443-165.176z" fill="#f9f6f6" fill-rule="evenodd"/></g></g></svg>