<svg id="Layer_1" enable-background="new 0 0 512 512" height="512" viewBox="0 0 512 512" width="512" xmlns="http://www.w3.org/2000/svg"><g><g><path clip-rule="evenodd" d="m342.512 160.553c-11.388 0-20.733 9.315-20.733 20.733v38.342l46.554 25.372 40.174-25.371v-38.342c0-11.418-9.344-20.733-20.733-20.733h-45.262z" fill="#dddaec" fill-rule="evenodd"/></g><g><path clip-rule="evenodd" d="m174.839 0h-163.002c-4.263 0-6.891 1.197-8.322 3.008-1.344 1.694-1.636 3.971-1.256 6.307l5.84 36.473 144.488 15.542 144.488-15.541 5.84-36.473c.38-2.336.058-4.585-1.256-6.308-1.459-1.811-4.087-3.008-8.322-3.008z" fill="#f9f6f6" fill-rule="evenodd"/></g><g><path clip-rule="evenodd" d="m297.075 45.789h-288.976l48.679 304.169 7.329 45.789 84.509 26.252 92.451-26.223 3.15-161.882z" fill="#9dc6fb" fill-rule="evenodd"/></g><g><path d="m152.558 182.221c14.571 0 26.456-11.856 26.456-26.428s-11.885-26.428-26.456-26.428c-14.542 0-26.427 11.856-26.427 26.428s11.885 26.428 26.427 26.428z" fill="#ffe07d"/></g><g><path clip-rule="evenodd" d="m174.839 395.776-110.731-.029v103.667c0 6.921 6.132 12.586 13.608 12.586h33.319v-52.447c0-4.059 3.329-7.388 7.388-7.388h68.331c4.059 0 7.388 3.329 7.388 7.388v52.447h31.45 1.869c7.476 0 13.608-5.665 13.608-12.586v-36.678-66.99l-20.675.029h-45.555z" fill="#f9f6f6" fill-rule="evenodd"/></g><g><path clip-rule="evenodd" d="m186.753 452.165h-68.331c-4.059 0-7.388 3.329-7.388 7.388v52.447h83.107v-52.447c0-4.059-3.329-7.388-7.388-7.388z" fill="#d0cee7" fill-rule="evenodd"/></g><g><path clip-rule="evenodd" d="m509.894 462.736-143.041-28.515-125.786 28.515s-26.79 3.163-13.608 49.264h277.237c2.862 0 5.198-2.336 5.198-5.198z" fill="#ffe07d" fill-rule="evenodd"/></g><g><path clip-rule="evenodd" d="m267.465 230.784-58.227 164.963 31.829 66.99h268.827v-152.669c0-49.731-40.707-90.439-90.436-90.439h-10.951-86.727-10.95c-15.682 0-30.458 4.059-43.365 11.155z" fill="#fe72c5" fill-rule="evenodd"/></g><g><path clip-rule="evenodd" d="m365.143 313.484c-15.301 0-27.712 12.382-27.712 27.713 0 15.302 12.411 27.713 27.712 27.713 15.302 0 27.712-12.411 27.712-27.713 0-15.331-12.41-27.713-27.712-27.713z" fill="#ffe07d" fill-rule="evenodd"/></g><g><path clip-rule="evenodd" d="m271.115 9.315-5.84 36.473h31.8l5.84-36.473c.38-2.336.058-4.585-1.256-6.308-1.459-1.81-4.087-3.007-8.322-3.007h-31.8c4.234 0 6.862 1.197 8.293 3.008 1.344 1.723 1.636 3.971 1.285 6.307z" fill="#dddaec" fill-rule="evenodd"/></g><g><path clip-rule="evenodd" d="m265.275 45.789-29.61 184.995-6.512 40.562-8.76 54.724-3.797 23.888-7.358 45.789 11.155.029 20.674-.029 26.398-164.963 29.61-184.995z" fill="#80b4fb" fill-rule="evenodd"/></g><g><path clip-rule="evenodd" d="m209.238 404.799.029 57.937-.029 36.678c0 6.921-6.103 12.586-13.579 12.586h29.931 1.869c7.476 0 13.608-5.665 13.608-12.586v-36.678-66.99l-20.675.029-11.155-.029v9.053z" fill="#dddaec" fill-rule="evenodd"/></g><g><path clip-rule="evenodd" d="m216.596 349.958-7.358 45.789 11.155.029 20.674-.029 7.33-45.789z" fill="#647b98" fill-rule="evenodd"/></g><g><path clip-rule="evenodd" d="m56.778 349.958 7.33 45.789c58.987.029 117.973.029 176.96 0l7.33-45.789h-31.8z" fill="#ffe07d" fill-rule="evenodd"/></g><g><path clip-rule="evenodd" d="m216.596 349.958-7.358 45.789 11.155.029 20.674-.029 7.33-45.789z" fill="#ffd064" fill-rule="evenodd"/></g><g><path clip-rule="evenodd" d="m371.48 181.286v38.342h10.98 26.048v-38.342c0-11.418-9.344-20.733-20.733-20.733h-37.027c11.417 0 20.732 9.315 20.732 20.733z" fill="#d0cee7" fill-rule="evenodd"/></g><g><path clip-rule="evenodd" d="m382.46 219.629c49.73 0 90.407 40.708 90.407 90.439v152.668h37.027v-152.668c0-49.731-40.707-90.439-90.436-90.439h-10.951z" fill="#fe4eb7" fill-rule="evenodd"/></g><g><path clip-rule="evenodd" d="m472.867 462.736v44.066c0 2.862-2.336 5.198-5.169 5.198h36.998c2.862 0 5.198-2.336 5.198-5.198v-44.066z" fill="#ffd064" fill-rule="evenodd"/></g><g><path d="m224.773 163.52h-15.798c-4.268 0-7.726-3.459-7.726-7.726s3.459-7.726 7.726-7.726h15.798c4.268 0 7.726 3.459 7.726 7.726s-3.459 7.726-7.726 7.726z" fill="#ffbc85"/></g><g><path d="m96.141 163.52h-15.798c-4.268 0-7.726-3.459-7.726-7.726s3.459-7.726 7.726-7.726h15.798c4.268 0 7.726 3.459 7.726 7.726s-3.459 7.726-7.726 7.726z" fill="#ffbc85"/></g><g><path d="m101.514 214.594c-1.974 0-3.948-.752-5.456-2.256-3.022-3.014-3.028-7.905-.015-10.927l11.155-11.185c3.012-3.021 7.904-3.029 10.927-.015 3.022 3.014 3.028 7.905.015 10.927l-11.155 11.185c-1.509 1.514-3.49 2.271-5.471 2.271zm90.933-90.965c-1.977 0-3.955-.755-5.464-2.263-3.017-3.017-3.017-7.909 0-10.927l11.184-11.184c3.018-3.017 7.909-3.017 10.928 0 3.017 3.017 3.017 7.909 0 10.927l-11.184 11.184c-1.51 1.509-3.487 2.263-5.464 2.263z" fill="#ffbc85"/></g><g><path d="m203.631 214.594c-1.978 0-3.955-.754-5.464-2.263l-11.184-11.185c-3.017-3.018-3.017-7.909.001-10.927 3.017-3.018 7.909-3.018 10.927 0l11.184 11.185c3.017 3.018 3.017 7.909-.001 10.927-1.508 1.509-3.486 2.263-5.463 2.263zm-90.962-90.965c-1.981 0-3.961-.757-5.471-2.27l-11.155-11.184c-3.013-3.021-3.007-7.913.015-10.927 3.02-3.014 7.912-3.008 10.927.014l11.155 11.184c3.013 3.021 3.007 7.913-.015 10.927-1.507 1.504-3.482 2.256-5.456 2.256z" fill="#ffbc85"/></g><g><path d="m152.558 235.736c-4.268 0-7.726-3.459-7.726-7.726v-15.799c0-4.267 3.459-7.726 7.726-7.726s7.726 3.459 7.726 7.726v15.799c.001 4.267-3.458 7.726-7.726 7.726zm0-128.635c-4.268 0-7.726-3.459-7.726-7.726v-15.799c0-4.267 3.459-7.726 7.726-7.726s7.726 3.459 7.726 7.726v15.798c.001 4.268-3.458 7.727-7.726 7.727z" fill="#ffbc85"/></g><g><path d="m200.711 273.261h-96.306c-4.268 0-7.726-3.459-7.726-7.726s3.459-7.726 7.726-7.726h96.306c4.268 0 7.726 3.459 7.726 7.726.001 4.267-3.458 7.726-7.726 7.726z" fill="#365e7d"/></g><g><path d="m180.299 306.113h-55.482c-4.268 0-7.726-3.459-7.726-7.726s3.459-7.726 7.726-7.726h55.482c4.268 0 7.726 3.459 7.726 7.726s-3.459 7.726-7.726 7.726z" fill="#365e7d"/></g><g><path d="m440.833 348.924h-16.557c-4.268 0-7.726-3.459-7.726-7.726s3.459-7.726 7.726-7.726h16.557c4.268 0 7.726 3.459 7.726 7.726 0 4.266-3.458 7.726-7.726 7.726z" fill="#ffbc85"/></g><g><path d="m306.011 348.924h-16.557c-4.268 0-7.726-3.459-7.726-7.726s3.459-7.726 7.726-7.726h16.557c4.268 0 7.726 3.459 7.726 7.726 0 4.266-3.458 7.726-7.726 7.726z" fill="#ffbc85"/></g><g><path d="m311.618 402.451c-1.977 0-3.955-.754-5.463-2.263-3.018-3.017-3.018-7.909-.001-10.927l11.709-11.71c3.018-3.017 7.91-3.018 10.927 0 3.018 3.017 3.018 7.909.001 10.927l-11.709 11.71c-1.51 1.508-3.487 2.263-5.464 2.263zm95.342-95.345c-1.974 0-3.948-.752-5.457-2.256-3.021-3.014-3.027-7.905-.014-10.927l11.709-11.739c3.012-3.021 7.903-3.029 10.928-.014 3.021 3.014 3.027 7.905.014 10.927l-11.709 11.739c-1.51 1.513-3.49 2.27-5.471 2.27z" fill="#ffbc85"/></g><g><path d="m418.669 402.451c-1.978 0-3.955-.754-5.464-2.263l-11.709-11.71c-3.017-3.018-3.017-7.909.001-10.927 3.017-3.018 7.909-3.017 10.927 0l11.709 11.71c3.017 3.018 3.017 7.909-.001 10.927-1.508 1.508-3.486 2.263-5.463 2.263zm-95.342-95.345c-1.981 0-3.961-.757-5.471-2.27l-11.709-11.739c-3.013-3.021-3.007-7.913.014-10.927 3.021-3.013 7.912-3.007 10.928.014l11.709 11.739c3.013 3.021 3.007 7.913-.014 10.927-1.508 1.504-3.483 2.256-5.457 2.256z" fill="#ffbc85"/></g><g><path d="m365.144 424.615c-4.268 0-7.726-3.459-7.726-7.726v-16.557c0-4.267 3.459-7.726 7.726-7.726s7.726 3.459 7.726 7.726v16.557c0 4.267-3.459 7.726-7.726 7.726zm0-134.855c-4.268 0-7.726-3.459-7.726-7.726v-16.558c0-4.267 3.459-7.726 7.726-7.726s7.726 3.459 7.726 7.726v16.558c0 4.267-3.459 7.726-7.726 7.726z" fill="#ffbc85"/></g></g></svg>