<svg id="Layer_1" enable-background="new 0 0 512 512" height="512" viewBox="0 0 512 512" width="512" xmlns="http://www.w3.org/2000/svg"><g><g><path clip-rule="evenodd" d="m27.206 461.963 223.367 23.178 234.026-23.178v-266.317l-225.354-42.153-232.039 42.153z" fill="#fe93d3" fill-rule="evenodd"/></g><g><path clip-rule="evenodd" d="m23.791 461.963c-12.756 0-23.178 10.421-23.178 23.178v17.924c0 2.89 2.364 5.255 5.254 5.255h500.071c2.89 0 5.225-2.365 5.225-5.255v-17.924c0-12.757-10.421-23.178-23.148-23.178z" fill="#f9f6f6" fill-rule="evenodd"/></g><g><path clip-rule="evenodd" d="m439.529 3.681h-367.252c-2.744 0-3.882 2.481-4.992 4.992l-20.609 45.948 224.829 26.652 193.624-26.652-20.609-45.948c-1.109-2.511-2.248-4.992-4.991-4.992z" fill="#ffbc85" fill-rule="evenodd"/></g><g><path clip-rule="evenodd" d="m444.52 8.673c-1.109-2.511-2.248-4.992-4.992-4.992h-48.807c2.744 0 3.882 2.481 5.021 4.992l20.58 45.948h36.81 11.997z" fill="#f5a96c" fill-rule="evenodd"/></g><g><path clip-rule="evenodd" d="m511.804 64.253v121.757c-.113 5.316-4.523 9.632-9.869 9.632h-492.066c-5.429 0-9.869-4.43-9.869-9.859v-121.294c0-5.429 4.44-9.869 9.869-9.869h492.066c5.347 0 9.756 4.317 9.869 9.633z" fill="#f9f6f6" fill-rule="evenodd"/></g><g><path clip-rule="evenodd" d="m501.939 54.621h-36.81-11.997c5.371 0 9.75 4.32 9.867 9.633.438 40.431 0 81.095 0 121.525-.058 5.459-4.379 9.867-9.867 9.867h31.468 17.339c5.342 0 9.75-4.32 9.867-9.633.438-40.431 0-81.095 0-121.525-.059-5.459-4.379-9.867-9.867-9.867z" fill="#dddaec" fill-rule="evenodd"/></g><g><path d="m200.281 161.251c-3.122 0-6.061-1.906-7.229-5l-3.37-8.927h-23.638l-3.411 8.95c-1.519 3.988-5.986 5.99-9.971 4.468-3.988-1.519-5.988-5.984-4.468-9.971l21.339-55.99c.019-.05.038-.102.059-.151 1.387-3.423 4.667-5.634 8.357-5.634 3.689 0 6.969 2.211 8.356 5.634.024.057.046.116.068.174l21.135 55.99c1.507 3.992-.508 8.45-4.5 9.957-.898.339-1.821.5-2.727.5zm-28.348-29.38h11.915l-5.929-15.708z" fill="#365e7d"/></g><g><path d="m385.963 161.336c-4.268 0-7.726-3.459-7.726-7.726v-56.866c0-3.381 2.199-6.37 5.428-7.376 3.232-1.006 6.737.206 8.658 2.987l25.636 37.142-.313-32.767c-.04-4.267 3.385-7.759 7.653-7.8 4.261-.039 7.758 3.385 7.8 7.653l.525 55.055c0 4.151-2.325 7.532-5.924 8.687-3.534 1.133-7.294-.197-9.576-3.388-.025-.035-.049-.07-.074-.106l-24.359-35.292v32.069c-.002 4.269-3.461 7.728-7.728 7.728z" fill="#365e7d"/></g><g><path d="m245.34 161.276c-6.406 0-6.81-.076-7.42-.193-3.644-.694-6.281-3.88-6.281-7.59v-56.778c0-4.268 3.459-7.726 7.726-7.726s7.726 3.459 7.726 7.726v49.101c3.557-.006 7.951-.024 12.106-.049h.048c4.245 0 7.699 3.429 7.725 7.679.026 4.268-3.412 7.747-7.679 7.774-6.467.039-10.894.056-13.951.056z" fill="#365e7d"/></g><g><path d="m105.7 161.248c-9.904 0-19.204-3.988-25.513-10.943-2.867-3.16-2.63-8.046.531-10.913 3.158-2.866 8.046-2.63 10.913.531 3.336 3.677 8.596 5.872 14.068 5.872 5.167 0 8.793-3.02 9.313-5.941.687-3.851-5.222-6.346-7.049-7.019-8.847-3.267-16.681-6.766-17.01-6.913-.364-.163-.716-.354-1.051-.572-6.202-4.029-9.403-11.107-8.354-18.47 1.118-7.837 6.833-14.22 14.915-16.658 15.85-4.769 28.876 5.99 29.424 6.451 3.264 2.75 3.68 7.624.932 10.887-2.735 3.247-7.578 3.678-10.843.969-.207-.166-7.376-5.818-15.053-3.511-3.3.995-3.95 3.159-4.076 4.043-.085.6-.128 2.023 1.111 3.061 2.06.904 8.466 3.672 15.353 6.214 14.691 5.41 18.372 16.064 16.917 24.23-1.931 10.825-12.246 18.682-24.528 18.682z" fill="#365e7d"/></g><g><path d="m319.728 161.248c-19.922 0-36.129-16.208-36.129-36.13s16.207-36.13 36.129-36.13 36.13 16.208 36.13 36.13-16.208 36.13-36.13 36.13zm0-56.806c-11.4 0-20.676 9.276-20.676 20.677s9.276 20.677 20.676 20.677c11.401 0 20.677-9.276 20.677-20.677s-9.275-20.677-20.677-20.677z" fill="#365e7d"/></g><g><path d="m511.804 117.389v15.453h-22.973c-4.265 0-7.726-3.451-7.726-7.726 0-4.265 3.462-7.726 7.726-7.726h22.973z" fill="#365e7d"/></g><g><path d="m511.804 82.157v15.453h-22.973c-4.265 0-7.726-3.461-7.726-7.726s3.462-7.726 7.726-7.726h22.973z" fill="#365e7d"/></g><g><path d="m511.804 152.652v15.453h-22.973c-4.265 0-7.726-3.451-7.726-7.726 0-4.265 3.462-7.726 7.726-7.726h22.973z" fill="#365e7d"/></g><g><path clip-rule="evenodd" d="m285.663 265.794c-3.415 0-6.188 2.131-6.188 4.7v109.761c0 2.598 2.773 4.7 6.188 4.7h198.937v-119.161z" fill="#9dc6fb" fill-rule="evenodd"/></g><g><path clip-rule="evenodd" d="m484.599 265.794h-18.215-18.74v14.829 70.352 33.98h36.955z" fill="#80b4fb" fill-rule="evenodd"/></g><g><path clip-rule="evenodd" d="m453.132 195.646h-425.926v36.431h420.438v33.717h18.74 18.215v-14.392-55.756z" fill="#fe4eb7" fill-rule="evenodd"/></g><g><path d="m30.669 125.115c0 4.275-3.462 7.726-7.726 7.726h-22.943v-15.453h22.942c4.265.001 7.727 3.463 7.727 7.727z" fill="#365e7d"/></g><g><path d="m30.669 89.883c0 4.265-3.462 7.726-7.726 7.726h-22.943v-15.452h22.942c4.265 0 7.727 3.461 7.727 7.726z" fill="#365e7d"/></g><g><path d="m30.669 160.379c0 4.275-3.462 7.726-7.726 7.726h-22.943v-15.453h22.942c4.265 0 7.727 3.462 7.727 7.727z" fill="#365e7d"/></g><g><path clip-rule="evenodd" d="m75.138 461.963h140.175v-185.339c0-5.955-4.875-10.83-10.83-10.83h-118.545c-5.926 0-10.801 4.875-10.801 10.83v185.339z" fill="#ffbc85" fill-rule="evenodd"/></g><g><path clip-rule="evenodd" d="m204.483 265.794h-118.545c-5.926 0-10.801 4.875-10.801 10.83v12.523h108.561c5.955 0 10.83 4.846 10.83 10.801v162.014h20.784v-185.338c.001-5.955-4.874-10.83-10.829-10.83z" fill="#f5a96c" fill-rule="evenodd"/></g><g><path d="m111.042 392.681c-4.268 0-7.726-3.459-7.726-7.726v-16.23c0-4.268 3.459-7.726 7.726-7.726 4.268 0 7.726 3.459 7.726 7.726v16.23c.001 4.267-3.458 7.726-7.726 7.726z" fill="#365e7d"/></g><g><path clip-rule="evenodd" d="m447.644 384.955h36.956v77.008h-36.956z" fill="#fe4eb7" fill-rule="evenodd"/></g><g><path clip-rule="evenodd" d="m488.015 461.963h-3.415-36.956c12.756 0 23.178 10.421 23.178 23.178v17.924c0 2.89-2.364 5.255-5.225 5.255h40.342c2.89 0 5.225-2.365 5.225-5.255v-17.924c-.001-12.757-10.422-23.178-23.149-23.178z" fill="#dddaec" fill-rule="evenodd"/></g></g></svg>