<svg id="Layer_1" enable-background="new 0 0 512 512" height="512" viewBox="0 0 512 512" width="512" xmlns="http://www.w3.org/2000/svg"><g><g><path clip-rule="evenodd" d="m349.082 339.62c-6.862-2.891-13.871-5.49-20.821-7.826-.029 0-.029 0-.029 0l-216.674 9.491c-28.179 12.586-56.621 32.619-58.636 66.376l-3.855 94.527c-.467 7.826 1.489 9.812 9.636 9.812h44.328c50.314-64.799 243.334 7.972 285.705-119.436-2.773-17.931-17.256-43.395-39.654-52.944z" fill="#fe93d3" fill-rule="evenodd"/></g><g><path clip-rule="evenodd" d="m193.293 322.479 6.599 25.231 32.326 1.781 38.633-4.556 8.41-28.122c-.876-1.022-1.343-2.395-1.343-4.263v-37.057c-32.764-11.097-57.205-22.661-81.588 6.045-22.047 9.782-21.434 22.923-3.037 40.941z" fill="#ffbc85" fill-rule="evenodd"/></g><g><path clip-rule="evenodd" d="m232.219 292.284c-9.111.467-19.886-2.628-30.953-8.147-1.635-.818-3.3-1.665-4.935-2.599.029 2.307.029 5.256.058 9.374.029 5.286-.526 10.25-.584 14.981 22.397 14.484 51.891 13.491 63.396 5.782v19.069l20.061-13.929c-.876-1.022-1.343-2.395-1.343-4.263v-37.057c-15.973 10.715-32.589 17.489-45.7 16.789z" fill="#f5a96c" fill-rule="evenodd"/></g><g><path clip-rule="evenodd" d="m193.293 322.479c-3.884 17.171-11.243 29.845-21.054 39.569l27.566 23.099c4.088 3.417 5.607 3.621 8.556-.672l23.857-34.984z" fill="#f9f6f6" fill-rule="evenodd"/></g><g><path clip-rule="evenodd" d="m279.262 316.813-47.043 32.677 23.857 34.984c2.92 4.293 4.439 4.088 8.527.672l63.659-53.352c-16.061-5.344-31.771-9.257-44.386-12.499-2.015-.525-3.592-1.255-4.614-2.482z" fill="#f9f6f6" fill-rule="evenodd"/></g><g><path clip-rule="evenodd" d="m103.412 133.278c-21.288.058-18.338 33.495-.38 47.658 6.541 5.14 14.104 6.658 21.609 6.103 6.687-18.281 7.184-37.466-2.511-53.819z" fill="#f5a96c" fill-rule="evenodd"/></g><g><path clip-rule="evenodd" d="m361.025 133.278-18.747-.058c-10.454 17.959-13.987 37.437-2.511 53.819 7.505.555 15.097-.964 21.609-6.103 17.988-14.163 20.908-47.599-.351-47.658z" fill="#f5a96c" fill-rule="evenodd"/></g><g><path clip-rule="evenodd" d="m279.262 316.813-20.061 13.929-6.278 4.351-.438.321c6.015 1.548 12.673 3.241 19.652 5.169 10.542 2.92 21.872 6.337 33.056 10.542l23.04-19.332c-16.032-5.344-31.742-9.257-44.357-12.499-2.015-.524-3.592-1.254-4.614-2.481z" fill="#dddaec" fill-rule="evenodd"/></g><g><path clip-rule="evenodd" d="m388.737 392.564c-2.774-17.93-17.258-43.394-39.655-52.943-6.862-2.891-13.871-5.49-20.821-7.826-.029 0-.029 0-.029 0l-23.04 19.332c20.85 8.848 35.392 29.085 39.509 48.563 13.288-.118 28.355-.994 44.036-7.126z" fill="#fe4eb7" fill-rule="evenodd"/></g><g><path d="m124.875 449.316c-4.232 0-7.664-3.431-7.664-7.664v-53.381c0-4.233 3.431-7.664 7.664-7.664s7.664 3.431 7.664 7.664v53.381c-.001 4.233-3.432 7.664-7.664 7.664z" fill="#dddaec"/></g><g><path d="m328.232 407.381c-4.232 0-7.664-3.431-7.664-7.664v-67.923c0-4.233 3.431-7.664 7.664-7.664 4.232 0 7.664 3.431 7.664 7.664v67.923c0 4.234-3.431 7.664-7.664 7.664z" fill="#dddaec"/></g><g><path clip-rule="evenodd" d="m275.67 441.652h-139.494-22.573c-5.811 0-10.571 4.76-10.571 10.571v59.163c0 .35.263.613.584.613h128.602 83.632c-23.595-10.484-40.181-34.196-40.181-61.558v-8.789z" fill="#a7e9a6" fill-rule="evenodd"/></g><g><path clip-rule="evenodd" d="m275.67 441.652h-44.182c.292 12.411 2.891 24.296 7.388 35.189 5.519 13.433 13.958 25.406 24.471 35.159h52.504c-18.689-8.323-32.968-24.909-38.108-45.059-1.343-5.286-2.073-10.805-2.073-16.499z" fill="#7fdbae" fill-rule="evenodd"/></g><g><path clip-rule="evenodd" d="m124.641 187.039c-3.504 58.813-49.73 56.769-20.675 115.085 7.417 14.864 9.374 22.573 7.592 39.16-1.177 10.891-3.943 25.653-7.842 48.827-.375 2.226 1.705 4.083 3.875 3.461 25.109-7.199 48.284-15.244 64.647-31.525 9.812-9.724 17.17-22.398 21.054-39.569 2.073-9.169 3.154-19.595 3.095-31.567-.058-12.586.701-8.293-9.899-15.419-7.503-39.335-33.142-65.792-61.847-88.453z" fill="#365e7d" fill-rule="evenodd"/></g><g><path clip-rule="evenodd" d="m186.489 275.492c-20.207-13.55-39.363-33.436-49.087-52.593-6.074-11.944-10.337-24.267-12.761-35.86-1.285 21.814-8.468 35.276-15.506 46.519 10.542 15.652 26.31 30.896 42.78 41.934 10.6 7.125 9.666 11.535 9.724 24.121.058 11.944-.876 13.696-2.949 22.865-.204.905-.409 1.811-.642 2.716-1.81 7.067-4.234 13.345-7.154 18.952-3.65 6.921-8.118 12.82-13.228 17.901-9.082 9.023-20.266 15.536-32.705 20.763-.398 2.335-.807 4.77-1.235 7.306-.375 2.226 1.703 4.081 3.873 3.46 9.93-2.84 19.538-5.833 28.578-9.394 13.783-5.461 26.164-12.294 36.064-22.135 9.812-9.724 17.17-22.398 21.054-39.569 2.073-9.169 3.154-19.595 3.095-31.567-.029-4.117-.029-7.067-.058-9.374-3.272-1.84-6.572-3.854-9.843-6.045z" fill="#2b4d66" fill-rule="evenodd"/></g><g><path clip-rule="evenodd" d="m232.219 75.75c-26.573 26.194-71.164 57.47-110.089 57.47.029 23.712-.029 29.056.175 32.443 0 6.629.788 13.842 2.336 21.376.496 7.972 8.965 28.384 12.761 35.86 9.724 19.157 28.88 39.043 49.087 52.593 3.271 2.19 6.57 4.205 9.841 6.045 12.79 7.125 25.434 11.301 35.888 10.746 13.111.701 29.727-6.074 45.7-16.791 20.207-13.55 39.363-33.436 49.087-52.593 6.074-11.944 10.337-24.267 12.761-35.86 1.548-7.534 2.336-14.747 2.336-21.376.204-3.387.146-8.731.175-32.443-32.033 0-74.9-22.807-110.058-57.47z" fill="#fed1a3" fill-rule="evenodd"/></g><g><path clip-rule="evenodd" d="m232.277 0c-60.476 0-109.972 49.498-109.972 109.975v23.245c31.359-.057 73.064-13.039 107.78-46.144 1.198-1.143 3.069-1.142 4.267.001 34.747 33.161 76.538 46.143 107.927 46.143v-23.245c-.001-60.477-49.497-109.975-110.002-109.975z" fill="#365e7d" fill-rule="evenodd"/></g><g><path clip-rule="evenodd" d="m294.534 180.586c-2.424 11.622-6.687 23.946-12.732 35.889-9.724 19.157-28.909 39.043-49.117 52.593-10.6 7.096-21.463 12.469-31.421 15.068 11.067 5.519 21.843 8.615 30.953 8.147 13.111.701 29.727-6.074 45.7-16.791 20.207-13.55 39.363-33.436 49.087-52.593 6.074-11.944 10.337-24.267 12.761-35.86 1.548-7.534 2.336-14.747 2.336-21.376.204-3.387.146-8.731.175-32.443-13.608 0-29.143-2.453-45.233-7.885v1.431c0 23.741.058 29.085-.146 32.443.002 6.659-.786 13.872-2.363 21.377z" fill="#ffbc85" fill-rule="evenodd"/></g><g><path clip-rule="evenodd" d="m342.278 109.975c0-60.477-49.496-109.975-110.001-109.975-2.511 0-5.023.088-7.505.234 42.05 15.477 72.273 56.039 72.273 103.317v21.785c16.09 5.432 31.625 7.885 45.233 7.885z" fill="#2b4d66" fill-rule="evenodd"/></g><g><path d="m198.223 177.972c-1.106 0-2.228-.24-3.293-.748-4.825-2.3-13.589-2.303-18.388-.005-3.818 1.825-8.394.216-10.222-3.602s-.215-8.394 3.602-10.222c8.991-4.305 22.578-4.31 31.605-.005 3.82 1.821 5.441 6.395 3.619 10.215-1.314 2.756-4.061 4.367-6.923 4.367z" fill="#365e7d"/></g><g><path d="m266.185 175.958c-2.863 0-5.609-1.612-6.923-4.368-1.822-3.82-.201-8.394 3.619-10.215 9.026-4.302 22.612-4.301 31.605.005 3.817 1.828 5.43 6.404 3.602 10.222-1.828 3.817-6.406 5.427-10.222 3.602-4.798-2.297-13.563-2.296-18.388.005-1.064.508-2.187.749-3.293.749z" fill="#365e7d"/></g><g><path d="m232.204 251.151c-9.052 0-17.51-3.899-23.814-10.978-2.814-3.161-2.534-8.006.627-10.82 3.159-2.816 8.004-2.535 10.82.626 3.356 3.769 7.748 5.845 12.367 5.845s9.011-2.076 12.367-5.845c2.816-3.159 7.66-3.44 10.82-.626 3.161 2.814 3.441 7.659.627 10.82-6.305 7.08-14.762 10.978-23.814 10.978z" fill="#fe93d3"/></g><g><path clip-rule="evenodd" d="m405.119 384.182c-28.5 18.31-56.3 15.068-76.858 15.536-20.266.467-33.523 4.497-33.611 36.123l99.255 29.056 48.533-29.056c9.286-23.332 2.979-42.898-18.601-66.96-6.219 6.307-12.498 11.33-18.718 15.301z" fill="#ffe07d" fill-rule="evenodd"/></g><g><path clip-rule="evenodd" d="m423.837 368.881c-6.629 6.687-13.958 12.645-22.105 17.375 10.133 16.236 12.411 31.626 5.256 49.585h5.665 29.785c9.287-23.332 2.979-42.898-18.601-66.96z" fill="#ffd064" fill-rule="evenodd"/></g><g><path clip-rule="evenodd" d="m279.992 435.841c-2.395 0-4.322 1.957-4.322 4.322v10.279c0 27.362 16.586 51.074 40.181 61.558h106.964c24.295-10.805 40.181-34.926 40.181-61.558v-10.279c0-2.365-1.956-4.322-4.322-4.322h-16.236c-54.139 0-108.307 0-162.446 0z" fill="#f9f6f6" fill-rule="evenodd"/></g><g><path clip-rule="evenodd" d="m442.439 435.841c-25.989 0-14.893-1.781-14.893 4.322v10.279c0 27.362-16.557 51.074-40.181 61.558h35.45c.701-.321 1.431-.642 2.132-.993 11.038-5.373 20.441-13.696 27.128-23.946 6.95-10.688 10.892-23.303 10.921-36.561 0-.029 0-.029 0-.058v-10.279c0-2.365-1.956-4.322-4.322-4.322z" fill="#dddaec" fill-rule="evenodd"/></g></g></svg>